<?xml version="1.0" encoding="UTF-8" standalone="no"?>
<svg width="1251px" height="427px" viewBox="0 0 1251 427" version="1.1" xmlns="http://www.w3.org/2000/svg" xmlns:xlink="http://www.w3.org/1999/xlink">
    <!-- Generator: Sketch 3.6.1 (26313) - http://www.bohemiancoding.com/sketch -->
    <title>Artboard 2</title>
    <desc>Created with Sketch.</desc>
    <defs></defs>
    <g id="Page-1" stroke="none" stroke-width="1" fill="none" fill-rule="evenodd">
        <g id="Artboard-2">
            <g id="Start/End" transform="translate(23.000000, 17.000000)">
                <rect id="Start/End-" stroke="#000000" x="0" y="149" width="120" height="60" rx="15"></rect>
                <text id="App-Launch" font-family="STHeitiTC-Light, Heiti TC" font-size="12" font-weight="300" fill="#000000">
                    <tspan x="24.156" y="184">App Launch</tspan>
                </text>
                <text id="Sign-Up-&amp;-Registrati" font-family="STHeitiTC-Light, Heiti TC" font-size="24" font-weight="300" fill="#000000">
                    <tspan x="0" y="21">Sign Up &amp; </tspan>
                    <tspan x="0" y="45">Registration</tspan>
                </text>
            </g>
            <g id="Start/End-Copy-2" transform="translate(1105.000000, 166.000000)">
                <rect id="Start/End-" stroke="#000000" x="0" y="0" width="120" height="60" rx="15"></rect>
                <text id="Sign-In" font-family="STHeitiTC-Light, Heiti TC" font-size="12" font-weight="300" fill="#000000">
                    <tspan x="41.598" y="35">Sign In</tspan>
                </text>
            </g>
            <g id="Start/End-Copy" transform="translate(184.000000, 346.000000)">
                <rect id="Start/End-" stroke="#000000" x="0" y="0" width="120" height="60" rx="15"></rect>
                <text id="Walkthrough" font-family="STHeitiTC-Light, Heiti TC" font-size="12" font-weight="300" fill="#000000">
                    <tspan x="23.154" y="35">Walkthrough</tspan>
                </text>
            </g>
            <path d="M143,196 L193,196" id="Line" stroke="#000000" stroke-linecap="square" fill="#000000"></path>
            <path id="Line-decoration-1" d="M193,196 L182.2,193 L182.2,199 L193,196 Z" stroke="#000000" stroke-linecap="square" fill="#000000"></path>
            <path d="M295,196 L345,196" id="Line-Copy" stroke="#000000" stroke-linecap="square" fill="#000000"></path>
            <path id="Line-Copy-decoration-1" d="M345,196 L334.2,193 L334.2,199 L345,196 Z" stroke="#000000" stroke-linecap="square" fill="#000000"></path>
            <path d="M447,196 L497,196" id="Line-Copy-2" stroke="#000000" stroke-linecap="square" fill="#000000"></path>
            <path id="Line-Copy-2-decoration-1" d="M497,196 L486.2,193 L486.2,199 L497,196 Z" stroke="#000000" stroke-linecap="square" fill="#000000"></path>
            <path d="M598,195.5 L648,195.5" id="Line-Copy-4" stroke="#000000" stroke-linecap="square" fill="#000000"></path>
            <path id="Line-Copy-4-decoration-1" d="M648,195.5 L637.2,192.5 L637.2,198.5 L648,195.5 Z" stroke="#000000" stroke-linecap="square" fill="#000000"></path>
            <path d="M749,195 L799,195" id="Line-Copy-5" stroke="#000000" stroke-linecap="square" fill="#000000"></path>
            <path id="Line-Copy-5-decoration-1" d="M799,195 L788.2,192 L788.2,198 L799,195 Z" stroke="#000000" stroke-linecap="square" fill="#000000"></path>
            <path d="M851,245 L851,295" id="Line-Copy-7" stroke="#000000" stroke-linecap="square" fill="#000000"></path>
            <path id="Line-Copy-7-decoration-1" d="M851,295 L854,284.2 L848,284.2 L851,295 Z" stroke="#000000" stroke-linecap="square" fill="#000000"></path>
            <path d="M1003,346.501259 L1003,247.5" id="Line-Copy-9" stroke="#000000" stroke-linecap="square" fill="#000000"></path>
            <path id="Line-Copy-9-decoration-1" d="M1003,247.5 L1000,258.3 L1006,258.3 L1003,247.5 Z" stroke="#000000" stroke-linecap="square" fill="#000000"></path>
            <path d="M901,195 L951,195" id="Line-Copy-6" stroke="#000000" stroke-linecap="square" fill="#000000"></path>
            <path id="Line-Copy-6-decoration-1" d="M951,195 L940.2,192 L940.2,198 L951,195 Z" stroke="#000000" stroke-linecap="square" fill="#000000"></path>
            <path d="M1053,196 L1103,196" id="Line-Copy-8" stroke="#000000" stroke-linecap="square" fill="#000000"></path>
            <path id="Line-Copy-8-decoration-1" d="M1103,196 L1092.2,193 L1092.2,199 L1103,196 Z" stroke="#000000" stroke-linecap="square" fill="#000000"></path>
            <g id="Action" transform="translate(195.000000, 146.000000)">
                <rect id="Rectangle-13" stroke="#000000" x="0" y="0" width="100" height="100"></rect>
                <text id="Get-Started" font-family="STHeitiTC-Light, Heiti TC" font-size="12" font-weight="300" fill="#000000">
                    <tspan x="16.364" y="54">Get Started</tspan>
                </text>
            </g>
            <g id="Action-Copy" transform="translate(347.000000, 146.000000)">
                <rect id="Rectangle-13" stroke="#000000" x="0" y="0" width="100" height="100"></rect>
                <text id="Take-Photo-of-ID" font-family="STHeitiTC-Light, Heiti TC" font-size="12" font-weight="300" fill="#000000">
                    <tspan x="17.828" y="54">Take Photo </tspan>
                    <tspan x="36.866" y="66">of ID</tspan>
                </text>
            </g>
            <g id="Action-Copy-3" transform="translate(649.000000, 146.000000)">
                <rect id="Rectangle-13" stroke="#000000" x="0" y="0" width="100" height="100"></rect>
                <text id="Save-Photo" font-family="STHeitiTC-Light, Heiti TC" font-size="12" font-weight="300" fill="#000000">
                    <tspan x="17.084" y="54">Save Photo</tspan>
                </text>
            </g>
            <g id="Action-Copy-6" transform="translate(802.000000, 297.000000)">
                <rect id="Rectangle-13" stroke="#000000" x="0" y="0" width="100" height="100"></rect>
                <text id="Send-Registration-Ap" font-family="STHeitiTC-Light, Heiti TC" font-size="12" font-weight="300" fill="#000000">
                    <tspan x="35.342" y="42">Send </tspan>
                    <tspan x="16.13" y="54">Registration </tspan>
                    <tspan x="16.172" y="66">Application</tspan>
                </text>
            </g>
            <g id="Action-Copy-5" transform="translate(953.000000, 146.000000)">
                <rect id="Rectangle-13" stroke="#000000" x="0" y="0" width="100" height="100"></rect>
                <text id="Enter-Email" font-family="STHeitiTC-Light, Heiti TC" font-size="12" font-weight="300" fill="#000000">
                    <tspan x="18.542" y="54">Enter Email</tspan>
                </text>
            </g>
            <g id="Action-Copy-2" transform="translate(562.639610, 190.547727) rotate(-315.000000) translate(-562.639610, -190.547727) translate(516.139610, 140.047727)">
                <rect id="Rectangle-13" stroke="#000000" x="5" y="29" width="70.2201573" height="70.9223053"></rect>
                <text id="Is-info-readable?" transform="translate(40.143538, 64.000000) rotate(-45.000000) translate(-40.143538, -64.000000) " font-family="STHeitiTC-Light, Heiti TC" font-size="12" font-weight="300" fill="#000000">
                    <tspan x="24.2855376" y="62">Is info </tspan>
                    <tspan x="9.96953764" y="74">readable?</tspan>
                </text>
                <text id="No" transform="translate(10.371320, 11.919488) rotate(-45.000000) translate(-10.371320, -11.919488) " font-family="STHeitiTC-Light, Heiti TC" font-size="12" font-weight="300" fill="#000000">
                    <tspan x="2.00132034" y="15.9194879">No</tspan>
                </text>
                <text id="Yes" transform="translate(80.287075, 12.373488) rotate(-45.000000) translate(-80.287075, -12.373488) " font-family="STHeitiTC-Light, Heiti TC" font-size="12" font-weight="300" fill="#000000">
                    <tspan x="70.5070753" y="16.3734879">Yes</tspan>
                </text>
            </g>
            <g id="Action-Copy-4" transform="translate(869.271338, 195.599765) rotate(-315.000000) translate(-869.271338, -195.599765) translate(820.771338, 143.599765)">
                <rect id="Rectangle-13" stroke="#000000" x="2.61479727e-12" y="29" width="70.2201573" height="70.9223053"></rect>
                <text id="Registered-to-vote?" transform="translate(37.971965, 66.828427) rotate(-45.000000) translate(-37.971965, -66.828427) " font-family="STHeitiTC-Light, Heiti TC" font-size="12" font-weight="300" fill="#000000">
                    <tspan x="-0.350035233" y="64.8284271">Registered to </tspan>
                    <tspan x="21.8139648" y="76.8284271">vote?</tspan>
                </text>
                <text id="No" transform="translate(85.658396, 89.371320) rotate(-45.000000) translate(-85.658396, -89.371320) " font-family="STHeitiTC-Light, Heiti TC" font-size="12" font-weight="300" fill="#000000">
                    <tspan x="77.2883956" y="93.3713203">No</tspan>
                </text>
                <text id="Yes" transform="translate(75.287075, 12.373488) rotate(-45.000000) translate(-75.287075, -12.373488) " font-family="STHeitiTC-Light, Heiti TC" font-size="12" font-weight="300" fill="#000000">
                    <tspan x="65.5070753" y="16.3734879">Yes</tspan>
                </text>
            </g>
            <g id="Dotted-Line" transform="translate(244.000000, 246.000000)">
                <path d="M1,0 L1,100" id="Line" fill="#000000"></path>
                <path id="Line-decoration-1" d="M-2,89.2 L1,100 L4,89.2" fill="#000000"></path>
                <path d="M1,2 L1,92" id="Line" stroke="#000000" stroke-linecap="square" stroke-dasharray="5,5"></path>
            </g>
            <g id="Dotted-Line-Copy" transform="translate(397.000000, 121.000000) scale(-1, 1) translate(-397.000000, -121.000000) translate(396.000000, 96.000000)">
                <path d="M1,0 L1,50" id="Line" fill="#000000"></path>
                <path id="Line-decoration-1" d="M-2,39.2 L1,50 L4,39.2" fill="#000000"></path>
                <path d="M1,1 L1,46" id="Line" stroke="#000000" stroke-linecap="square" stroke-dasharray="5,5"></path>
            </g>
            <path d="M397,96 L548.5,96" id="Line" stroke="#000000" stroke-linecap="square" stroke-dasharray="5"></path>
            <path d="M548.5,96.5 L548.5,145.596012" id="Line-Copy-3" stroke="#000000" stroke-linecap="square" stroke-dasharray="5"></path>
            <path d="M903,347 L1003,347" id="Line" stroke="#000000" stroke-linecap="square"></path>
        </g>
    </g>
</svg>