<?xml version="1.0" encoding="UTF-8" standalone="no"?>
<svg width="531px" height="892px" viewBox="0 0 531 892" version="1.1" xmlns="http://www.w3.org/2000/svg" xmlns:xlink="http://www.w3.org/1999/xlink">
    <!-- Generator: Sketch 39.1 (31720) - http://www.bohemiancoding.com/sketch -->
    <title>james_sketch</title>
    <desc>Created with Sketch.</desc>
    <defs></defs>
    <g id="Page-1" stroke="none" stroke-width="1" fill="none" fill-rule="evenodd">
        <g id="james_sketch" transform="translate(3.000000, 2.000000)" stroke-width="4" stroke="#FFFFFF">
            <g id="Group">
                <path d="M465.077097,364.115706 C454.949658,377.48228 434.65754,366.399357 417.252991,367.453469 C403.873351,368.265399 387.823369,372.253636 376.103965,375.24365 C366.510283,377.690308 353.115127,384.833119 340.51285,381.920727 C334.866496,380.615119 319.356478,370.494713 319.384407,364.115706 C319.410785,357.78793 331.345864,351.321986 339.400336,349.65 C357.265717,345.942755 382.806973,350.797259 397.232407,350.763105 C425.920354,350.697902 452.737044,345.750252 465.077097,364.115706 L465.077097,364.115706 Z" id="Shape"></path>
                <path d="M217.064218,391.935566 C195.474944,398.544336 170.613298,386.470951 148.110118,384.145385 C116.335994,380.86351 92.5123835,392.662112 68.0339882,396.386434 C64.5754218,387.15558 71.9595929,379.69607 74.7075162,373.017441 C82.080826,366.998601 104.116968,359.115273 118.081569,357.438629 C127.552673,356.30379 142.42187,359.64 155.896159,359.664839 C173.210714,359.697441 191.166088,355.40958 202.606201,359.664839 C215.677068,364.528657 216.494773,379.559455 217.064218,391.935566 L217.064218,391.935566 Z" id="Shape"></path>
                <path d="M430.600047,425.319399 C422.075434,429.492378 418.711516,419.612601 412.80449,417.529217 C405.867186,418.376853 404.537445,424.835035 402.794973,430.881818 C393.648159,434.671343 376.962012,433.168573 366.097552,431.994923 C362.342625,425.735455 361.788696,416.274839 357.200549,410.853692 C345.900083,412.902923 341.017127,421.36842 332.731463,426.432503 C330.225593,417.614601 342.796838,407.739483 350.527021,404.176615 C364.997451,397.502643 390.026673,398.476028 407.246578,405.28972 C417.020248,409.15842 430.690041,415.610392 430.600047,425.319399 L430.600047,425.319399 Z" id="Shape"></path>
                <path d="M218.178283,434.221133 C212.544342,437.586839 203.130649,434.039497 194.820159,436.447343 C195.426844,432.603483 201.768324,434.495916 202.606201,430.883371 C199.713976,424.876951 192.32515,423.36642 187.03567,419.756979 C179.687186,422.048392 179.753906,431.757399 175.91364,437.560448 C167.78469,440.924601 154.884501,439.519636 143.661617,439.786657 C137.92682,437.361734 137.602531,429.529636 132.539587,426.434056 C123.515351,429.742322 116.380991,440.552014 103.622,436.447343 C98.7421475,424.052601 108.740802,421.699091 119.192531,417.530769 C126.219829,414.727049 133.751404,408.636797 140.324077,407.514378 C175.553664,401.503301 207.782413,413.654308 218.178283,434.221133 L218.178283,434.221133 Z" id="Shape"></path>
                <path d="M507.34174,500.988797 C513.515646,510.427678 520.463811,526.956587 509.568319,535.482629 C518.127068,549.477944 507.59931,565.736727 507.34174,581.109063 C507.265711,585.542853 509.872437,590.021664 509.568319,594.463217 C509.186619,599.957329 505.228431,604.526182 504.007304,610.042028 C502.468094,616.995441 506.5861,626.533678 498.446289,628.960154 C493.349209,618.089916 496.146785,605.769692 501.780726,597.804084 C495.339941,580.421329 502.255522,552.983371 505.116714,534.375734 C501.409888,523.944839 504.440206,510.985007 507.34174,500.988797 L507.34174,500.988797 Z" id="Shape"></path>
                <path d="M35.7788614,548.835231 C42.5454867,562.094685 40.2832212,584.384727 41.3398761,603.361846 C32.4940767,591.291566 32.3854631,567.056308 35.7788614,548.835231 L35.7788614,548.835231 Z" id="Shape"></path>
                <path d="M235.972289,554.399203 C236.701552,574.809231 256.608867,576.037217 262.663298,591.119245 C275.079381,580.545524 290.721286,573.196238 300.47944,559.963175 C317.773823,560.067189 332.214773,562.010853 340.515953,573.317329 C349.864478,571.252573 356.387499,577.684364 363.872525,578.881301 C367.405569,579.444839 371.414962,577.671944 374.994555,578.881301 C385.177853,582.326182 407.096071,604.35386 411.693528,614.491343 C420.300378,633.457594 406.559209,656.353091 422.815558,673.464168 C438.265062,678.872895 453.723876,684.255231 469.525599,677.915035 C474.970242,670.379455 474.607162,657.036168 486.210195,655.662252 C489.95426,698.460126 472.960891,739.506839 448.395605,761.374615 C445.841634,775.449105 434.376696,788.157441 426.151546,802.547077 C420.182454,812.987287 417.105587,823.651049 406.132513,832.590042 C403.772496,834.511972 399.95085,835.136056 397.238614,837.044014 C391.33469,841.189049 387.115829,848.723077 380.555569,852.61972 C377.869711,854.217189 373.478619,854.426769 370.547605,855.957483 C360.808071,861.040196 353.285805,870.721259 344.967558,874.875608 C338.554702,878.078308 328.335717,883.834783 323.836012,884.890448 C315.330018,886.885343 302.364661,884.210476 291.58554,884.890448 C283.599339,885.393441 276.060006,887.680196 269.341481,887.116657 C260.562401,886.38235 251.707292,882.338224 241.537959,882.667343 C227.778171,883.108238 214.291469,883.084951 200.936655,883.084951 C188.497298,883.084951 189.040366,876.875161 177.145628,877.909091 C170.315386,874.88958 163.969251,859.276615 151.368525,857.20565 C146.679522,850.174615 144.099174,849.356476 140.027717,843.755245 C131.77774,832.408406 116.607528,812.259189 105.521186,804.427091 C95.1966903,783.66621 95.8638879,773.392112 88.0607788,753.585986 C85.0894218,746.045748 78.7339764,739.929105 74.7137227,732.443203 C70.8175988,725.190168 68.1534631,716.775902 64.7042065,709.07421 C53.9374985,685.039217 40.1808142,664.21158 44.685174,631.181706 C48.145292,635.374867 48.367174,636.452266 54.6946903,636.745678 C56.1982124,641.609497 57.0624661,650.638531 61.3682183,656.773804 C65.0921121,662.083175 73.4336342,668.095804 79.1637758,672.34951 C84.2825782,676.154559 90.1446077,678.944308 95.8452684,673.462615 C98.1168437,662.306727 97.462059,645.402126 92.5092802,637.855678 C97.2324189,625.88786 110.32656,622.295497 112.528313,607.809608 C124.322195,598.240322 132.879392,585.528881 149.230389,579.989748 C155.692897,577.800797 163.662029,578.965133 170.361935,576.653538 C181.344319,572.857804 188.942614,563.310252 197.052944,557.736965 C215.121587,561.254811 223.075204,542.831916 235.972289,554.399203 L235.972289,554.399203 Z" id="Shape"></path>
                <path d="M332.72836,625.616182 C328.436572,633.563161 342.12033,627.22607 337.176861,634.519469 C345.813192,648.825273 357.056248,630.231608 371.657015,633.406364 C385.904012,647.80842 372.515062,676.565958 382.779044,693.493846 C380.060602,696.232364 377.95505,692.672601 373.882041,693.493846 C372.524372,703.43572 363.287563,715.88635 370.547605,727.990783 C348.176313,728.355608 350.452543,724.120531 348.010289,740.076587 C350.215145,737.310126 348.010289,740.076587 340.065982,748.537427 C326.883398,742.869441 339.406543,774.110895 307.998602,726.803161 C310.118118,724.370476 302.355351,734.472252 301.593504,723.538364 C296.744684,707.243874 303.860425,693.684797 273.788431,687.928322 C263.997693,690.972671 248.324755,683.359469 238.198867,693.492294 C232.789912,694.453259 232.484242,690.308224 227.075286,691.266084 C217.504879,694.147427 217.577805,705.235007 221.517375,713.521972 C221.261357,717.348755 218.206212,718.370266 214.842295,719.085944 L214.842295,729.100783 C206.583009,734.189706 195.259268,736.214098 187.037221,741.341832 C179.420307,738.946406 174.251853,734.104322 165.907227,732.440098 C165.68069,718.201049 158.245316,711.176224 148.11167,706.848 C147.626012,703.022769 148.550779,700.608713 149.224183,697.946266 C142.860979,692.754881 138.870206,682.934098 140.32718,673.462615 C140.715086,670.936783 143.576277,669.126629 144.775681,665.672434 C148.544572,654.827035 145.509599,642.109385 153.672684,636.742573 C168.185009,635.769189 179.769422,634.423217 190.075298,641.100294 C204.002661,638.714182 203.487522,637.309217 217.06577,634.576909 C217.459882,627.878098 224.007729,633.87986 222.629888,628.953944 C234.218956,612.529049 263.820808,603.656811 283.797947,616.712895 C300.400307,608.334336 309.877617,630.725287 332.72836,625.616182 L332.72836,625.616182 L332.72836,625.616182 Z" id="Shape"></path>
                <path d="M40.2273628,612.265133 C46.838826,612.58028 45.1847965,624.602434 40.2273628,625.620839 C38.6834985,622.092126 38.6834985,615.790741 40.2273628,612.265133 L40.2273628,612.265133 Z" id="Shape"></path>
                <path d="M279.346342,640.084993 C271.000165,642.092308 261.381658,640.811538 253.764743,638.971888 C257.231068,631.940853 274.843534,634.123594 279.346342,640.084993 L279.346342,640.084993 Z" id="Shape"></path>
                <path d="M521.799758,419.755427 C520.941711,424.83193 514.254218,424.075888 512.902755,428.657161 C511.526466,437.294979 510.572218,446.355063 504.007304,449.799944 C495.574236,420.041077 496.891563,380.601147 491.772761,348.536895 C488.598142,328.657804 484.427381,310.93351 490.658696,292.897175 C498.814024,293.26821 498.334572,302.278615 504.007304,305.138224 C508.88095,291.246923 498.125103,279.814699 493.997788,269.529734 C491.515192,263.344783 493.510578,253.013245 483.988271,252.837818 C479.848543,261.113916 493.958997,263.20972 488.436773,272.867497 C484.522029,273.462084 480.633664,265.352098 480.650732,258.40179 C454.921729,223.125524 450.440643,173.417706 399.460537,166.042028 C376.356879,162.699608 345.709233,162.008769 320.498472,163.815818 C298.668696,165.380685 278.134525,171.932014 260.438271,174.943762 C241.922761,178.095231 224.525971,187.15221 210.392242,177.169972 C183.719853,185.023804 166.181864,168.248056 136.988088,171.606 C132.994212,174.959287 139.80118,176.876559 138.100602,181.620839 C130.826596,178.533021 124.292714,175.771217 116.969056,176.05842 C106.008395,176.486895 99.7351858,185.94751 89.1655339,186.073259 C79.3778997,192.754993 67.3078289,198.047287 60.2479469,209.442252 C51.8490147,222.996671 43.5261121,248.197552 43.5649027,261.742657 C43.575764,265.538392 46.4788496,268.983273 46.9008909,272.870601 C47.4362006,277.79186 45.6828673,283.133832 45.7883776,287.334755 C46.1405959,301.229161 52.5100059,316.652727 50.2368791,335.184294 C48.297351,350.997524 37.1737699,363.111273 34.6663481,381.919175 C30.6988496,411.693566 34.3032684,441.893329 29.1053333,474.28049 C16.3680649,462.542434 14.3090619,440.123538 1.30181121,428.657161 C3.58579941,412.611063 5.70531563,397.204573 5.75031268,379.694517 C5.7999646,360.184909 -1.20250737,339.88821 0.189297935,321.831692 C0.631510324,316.086084 4.51056637,309.693105 4.63779941,304.026671 C4.75882596,298.607077 1.37939233,292.675175 1.30181121,287.334755 C1.19785251,280.285091 5.16379941,273.948 5.75031268,267.306629 C6.86748083,254.666601 2.05745133,242.55751 3.52528614,230.585035 C4.58659587,221.933245 11.2818466,213.745636 12.4222891,204.991385 C14.8304071,186.500182 10.2127788,167.718671 14.6473156,152.690979 C16.5558112,146.217273 21.3503245,139.776168 24.6552802,131.548196 C32.2054749,112.757371 33.3179882,99.4792867 49.1243658,90.3757343 C52.1531327,74.3855245 68.0557109,67.9925455 79.1544661,55.8803497 C83.8512271,50.7526154 86.2919292,44.1935245 90.2764956,40.3015385 C97.3736165,33.3683077 113.965115,23.2556643 124.753546,19.1587552 C149.143499,9.89995804 176.569976,0.471944056 204.829676,1.35373427 C210.842212,1.54158042 215.444324,4.51451748 221.514271,4.6914965 C239.069327,5.20690909 257.175209,-1.55865734 277.119764,1.35373427 C294.753953,3.92924476 311.779906,13.3262098 328.279858,19.1587552 C332.056507,20.4938601 336.044177,19.8915105 339.401888,21.384965 C343.23905,23.088 346.685204,27.2485594 350.523917,29.1735944 C370.859481,39.3731748 396.735888,38.5891888 408.354437,54.7672448 C414.272324,63.0060839 414.148195,72.7507972 421.703044,82.5855524 C429.715622,93.018 447.234991,99.6950769 450.620631,117.080937 C463.266354,121.710336 474.448897,136.435301 479.538218,151.576322 C482.171322,159.417734 481.592566,168.04779 485.099233,176.05842 C488.820024,184.565832 496.984661,190.680923 501.782277,199.42586 C506.578342,208.167692 512.021434,220.227105 515.130885,229.470378 C524.214083,256.506252 523.553091,287.929343 525.140401,320.717035 C520.074354,326.34 521.886649,332.812154 520.6919,342.972923 C519.652313,351.770643 515.725156,361.051175 516.243398,367.453469 C517.085929,377.884364 523.712909,385.82979 522.916926,396.386434 C522.220248,405.533455 515.20226,411.851916 521.799758,419.755427 L521.799758,419.755427 Z" id="Shape"></path>
                <path d="M405.018448,120.420252 C382.865935,124.363469 374.287015,105.209371 367.206962,90.3757343 C356.628,91.314965 356.119068,82.1834685 350.523917,78.1346853 C354.59072,75.2285035 356.157858,84.328951 360.533434,84.8117622 C362.412448,72.906042 348.218206,67.4616084 346.075416,55.8803497 C350.797003,55.6071189 352.063127,58.7911888 357.197445,58.1065594 C357.588454,56.6441538 359.155593,56.3553986 359.422472,54.7687972 C378.856543,72.4139161 395.890254,92.4637762 405.018448,120.420252 L405.018448,120.420252 Z" id="Shape"></path>
                <path d="M336.0659,79.2477902 C339.411198,75.9736783 343.254566,81.6432168 344.962903,83.6986573 C341.229699,87.3593287 339.190867,79.8858462 336.0659,79.2477902 L336.0659,79.2477902 Z" id="Shape"></path>
            </g>
        </g>
    </g>
</svg>