<?xml version="1.0" encoding="utf-8"?>
<!-- Generator: Adobe Illustrator 15.0.2, SVG Export Plug-In . SVG Version: 6.00 Build 0)  -->
<!DOCTYPE svg PUBLIC "-//W3C//DTD SVG 1.1 Tiny//EN" "http://www.w3.org/Graphics/SVG/1.1/DTD/svg11-tiny.dtd">
<svg version="1.1" baseProfile="tiny" id="Layer_1" xmlns="http://www.w3.org/2000/svg" xmlns:xlink="http://www.w3.org/1999/xlink"
	 x="0px" y="0px" width="800px" height="600px" viewBox="0 0 800 600" xml:space="preserve">
<g>
	<g>
		<path fill="none" stroke="#ffffff" stroke-width="3" stroke-linecap="round" d="M529.736,247.543
			c-6.527,8.61-19.605,1.471-30.822,2.15c-8.623,0.523-18.967,3.092-26.52,5.018c-6.183,1.576-14.816,6.177-22.938,4.301
			c-3.639-0.841-13.635-7.36-13.617-11.469c0.017-4.076,7.709-8.241,12.9-9.318c11.514-2.388,27.975,0.739,37.272,0.717
			C504.5,238.9,521.783,235.713,529.736,247.543z"/>
		<path fill="none" stroke="#ffffff" stroke-width="3" stroke-linecap="round" d="M369.895,265.463
			c-13.914,4.257-29.937-3.52-44.44-5.018c-20.478-2.114-35.832,5.486-51.608,7.885c-2.229-5.946,2.53-10.751,4.301-15.053
			c4.752-3.877,18.954-8.955,27.954-10.035c6.104-0.731,15.687,1.418,24.371,1.434c11.159,0.021,22.731-2.741,30.104,0
			C369.001,247.809,369.528,257.491,369.895,265.463z"/>
		<path fill="none" stroke="#ffffff" stroke-width="3" stroke-linecap="round" d="M507.516,286.967
			c-5.494,2.688-7.662-3.676-11.469-5.018c-4.471,0.546-5.328,4.706-6.451,8.601c-5.895,2.441-16.649,1.473-23.651,0.717
			c-2.42-4.032-2.777-10.126-5.734-13.618c-7.283,1.32-10.43,6.773-15.77,10.035c-1.615-5.68,6.487-12.041,11.469-14.336
			c9.326-4.299,25.457-3.672,36.555,0.717C498.764,276.557,507.574,280.713,507.516,286.967z"/>
		<path fill="none" stroke="#ffffff" stroke-width="3" stroke-linecap="round" d="M370.613,292.701
			c-3.631,2.168-9.698-0.117-15.054,1.434c0.391-2.476,4.478-1.257,5.018-3.584c-1.864-3.869-6.626-4.842-10.035-7.167
			c-4.736,1.476-4.693,7.73-7.168,11.468c-5.239,2.167-13.553,1.262-20.786,1.434c-3.696-1.562-3.905-6.607-7.168-8.601
			c-5.816,2.131-10.414,9.094-18.637,6.45c-3.145-7.984,3.299-9.5,10.035-12.185c4.529-1.806,9.383-5.729,13.619-6.452
			C343.142,271.626,363.913,279.453,370.613,292.701z"/>
		<path fill="none" stroke="#ffffff" stroke-width="3" stroke-linecap="round" d="M556.975,335.709
			c3.979,6.08,8.457,16.727,1.435,22.219c5.516,9.015-1.269,19.488-1.435,29.39c-0.049,2.856,1.631,5.741,1.435,8.602
			c-0.246,3.539-2.797,6.482-3.584,10.035c-0.992,4.479,1.662,10.623-3.584,12.186c-3.285-7.002-1.482-14.938,2.149-20.069
			c-4.151-11.197,0.306-28.871,2.15-40.857C553.152,350.496,555.105,342.148,556.975,335.709z"/>
		<path fill="none" stroke="#ffffff" stroke-width="3" stroke-linecap="round" d="M253.059,366.529
			c4.361,8.541,2.903,22.899,3.584,35.123C250.942,393.877,250.872,378.266,253.059,366.529z"/>
		<path fill="none" stroke="#ffffff" stroke-width="3" stroke-linecap="round" d="M382.081,370.113
			c0.47,13.147,13.3,13.938,17.202,23.653c8.002-6.811,18.083-11.545,24.372-20.069c11.146,0.067,20.453,1.319,25.803,8.602
			c6.025-1.33,10.229,2.813,15.053,3.584c2.277,0.363,4.861-0.779,7.168,0c6.563,2.219,20.689,16.408,23.652,22.938
			c5.547,12.217-3.309,26.965,7.168,37.987c9.957,3.484,19.92,6.951,30.104,2.867c3.509-4.854,3.275-13.449,10.753-14.334
			c2.413,27.568-8.539,54.008-24.371,68.094c-1.646,9.066-9.035,17.252-14.336,26.521c-3.847,6.725-5.83,13.594-12.902,19.352
			c-1.521,1.238-3.984,1.64-5.732,2.869c-3.805,2.67-6.524,7.523-10.752,10.033c-1.731,1.029-4.561,1.164-6.45,2.15
			c-6.277,3.274-11.125,9.51-16.486,12.186c-4.133,2.063-10.719,5.771-13.619,6.451c-5.482,1.285-13.838-0.438-20.785,0
			c-5.147,0.324-10.006,1.797-14.336,1.434c-5.658-0.473-11.365-3.078-17.919-2.866c-8.868,0.284-17.56,0.269-26.167,0.269
			c-8.017,0-7.667-4-15.333-3.334c-4.402-1.945-8.492-12.002-16.613-13.336c-3.022-4.529-4.685-5.056-7.309-8.664
			c-5.317-7.309-15.094-20.288-22.239-25.333c-6.654-13.373-6.224-19.991-11.253-32.749c-1.915-4.857-6.011-8.797-8.602-13.619
			c-2.511-4.672-4.228-10.092-6.451-15.053c-6.939-15.482-15.805-28.898-12.902-50.174c2.23,2.701,2.373,3.395,6.451,3.584
			c0.969,3.133,1.526,8.949,4.301,12.901c2.4,3.42,7.776,7.293,11.469,10.033c3.299,2.451,7.077,4.248,10.751,0.717
			c1.464-7.186,1.042-18.075-2.15-22.936c3.044-7.709,11.483-10.023,12.902-19.354c7.601-6.164,13.116-14.352,23.654-17.92
			c4.165-1.41,9.301-0.66,13.619-2.149c7.078-2.445,11.975-8.595,17.202-12.185C368.643,374.529,373.769,362.662,382.081,370.113z"
			/>
		<path fill="none" stroke="#ffffff" stroke-width="3" stroke-linecap="round" d="M444.439,415.987
			c-2.766,5.119,6.053,1.037,2.867,5.735c5.566,9.215,12.812-2.762,22.222-0.717c9.182,9.277,0.553,27.801,7.168,38.705
			c-1.752,1.764-3.109-0.529-5.734,0c-0.875,6.404-6.828,14.424-2.149,22.221c-14.418,0.235-12.951-2.493-14.525,7.785
			c1.421-1.782,0,0-5.12,5.45c-8.496-3.651-0.425,16.473-20.667-14c1.366-1.567-3.637,4.94-4.128-2.103
			c-3.125-10.496,1.461-19.23-17.92-22.938c-6.31,1.961-16.411-2.943-22.937,3.584c-3.486,0.619-3.683-2.051-7.169-1.434
			c-6.168,1.856-6.121,8.998-3.582,14.336c-0.165,2.465-2.134,3.123-4.302,3.584c0,2.149,0,4.301,0,6.451
			c-5.323,3.278-12.621,4.582-17.92,7.885c-4.909-1.543-8.24-4.662-13.618-5.734c-0.146-9.172-4.938-13.697-11.469-16.485
			c-0.313-2.464,0.283-4.019,0.717-5.734c-4.101-3.344-6.673-9.67-5.734-15.771c0.25-1.627,2.094-2.793,2.867-5.018
			c2.429-6.986,0.473-15.178,5.734-18.635c9.353-0.627,16.819-1.494,23.461,2.807c8.976-1.537,8.644-2.442,17.395-4.202
			c0.254-4.315,4.474-0.449,3.586-3.622c7.469-10.58,26.547-16.295,39.422-7.885C423.604,404.855,429.712,419.278,444.439,415.987
			L444.439,415.987z"/>
		<path fill="none" stroke="#ffffff" stroke-width="3" stroke-linecap="round" d="M255.926,407.387c4.261,0.203,3.195,7.947,0,8.603
			C254.931,413.717,254.931,409.658,255.926,407.387z"/>
		<path fill="none" stroke="#ffffff" stroke-width="3" stroke-linecap="round" d="M410.035,425.307
			c-5.379,1.293-11.578,0.468-16.487-0.717C395.782,420.061,407.133,421.467,410.035,425.307z"/>
		<path fill="none" stroke="#ffffff" stroke-width="3" stroke-linecap="round" d="M566.293,283.383
			c-0.553,3.27-4.863,2.783-5.734,5.734c-0.887,5.564-1.502,11.4-5.733,13.619c-5.435-19.169-4.586-44.574-7.885-65.228
			c-2.046-12.805-4.734-24.222-0.718-35.84c5.256,0.239,4.947,6.043,8.603,7.885c3.141-8.948-3.791-16.312-6.451-22.937
			c-1.6-3.984-0.314-10.639-6.451-10.752c-2.668,5.331,6.426,6.681,2.867,12.902c-2.523,0.383-5.029-4.841-5.018-9.318
			c-16.582-22.723-19.47-54.742-52.326-59.493c-14.89-2.153-34.642-2.598-50.89-1.434c-14.069,1.008-27.303,5.228-38.708,7.168
			c-11.933,2.03-23.145,7.864-32.254,1.434c-17.19,5.059-28.493-5.747-47.308-3.584c-2.574,2.16,1.813,3.395,0.717,6.451
			c-4.688-1.989-8.899-3.768-13.619-3.583c-7.064,0.276-11.107,6.37-17.919,6.451c-6.308,4.304-14.087,7.713-18.637,15.053
			c-5.413,8.731-10.777,24.964-10.752,33.689c0.007,2.445,1.878,4.664,2.15,7.168c0.345,3.17-0.785,6.611-0.717,9.317
			c0.227,8.95,4.332,18.885,2.867,30.822c-1.25,10.186-8.419,17.989-10.035,30.104c-2.557,19.179-0.234,38.632-3.584,59.494
			c-8.209-7.561-9.536-22.002-17.919-29.388c1.472-10.336,2.838-20.26,2.867-31.539c0.032-12.567-4.481-25.641-3.584-37.272
			c0.285-3.701,2.785-7.819,2.867-11.469c0.078-3.491-2.1-7.312-2.15-10.752c-0.067-4.541,2.489-8.623,2.867-12.901
			c0.72-8.142-2.38-15.942-1.434-23.654c0.684-5.573,4.999-10.847,5.734-16.486c1.552-11.911-1.424-24.009,1.434-33.689
			c1.23-4.17,4.32-8.319,6.45-13.619c4.866-12.104,5.583-20.657,15.77-26.521c1.952-10.3,12.201-14.418,19.354-22.22
			c3.027-3.303,4.6-7.528,7.168-10.035c4.574-4.466,15.267-10.98,22.22-13.619c15.719-5.964,33.395-12.037,51.608-11.469
			c3.875,0.121,6.841,2.036,10.753,2.15c11.314,0.332,22.983-4.026,35.837-2.15c11.365,1.659,22.338,7.712,32.972,11.469
			c2.434,0.86,5.004,0.472,7.168,1.434c2.473,1.097,4.694,3.777,7.168,5.017c13.106,6.57,29.783,6.065,37.271,16.486
			c3.814,5.307,3.734,11.584,8.603,17.919c5.164,6.72,16.455,11.021,18.637,22.22c8.15,2.982,15.357,12.467,18.637,22.22
			c1.697,5.051,1.324,10.61,3.584,15.77c2.398,5.48,7.66,9.419,10.752,15.052c3.091,5.631,6.599,13.399,8.603,19.353
			c5.854,17.415,5.428,37.656,6.451,58.776c-3.265,3.622-2.097,7.791-2.867,14.336c-0.67,5.667-3.201,11.645-2.867,15.769
			c0.543,6.719,4.814,11.837,4.301,18.637C566.564,274.222,562.041,278.292,566.293,283.383z"/>
		<path fill="none" stroke="#ffffff" stroke-width="3" stroke-linecap="round" d="M491.029,90.568
			c-14.277,2.54-19.806-9.798-24.369-19.353c-6.818,0.605-7.146-5.277-10.752-7.885c2.621-1.872,3.631,3.99,6.451,4.301
			c1.211-7.669-7.937-11.176-9.318-18.636c3.043-0.176,3.859,1.875,7.168,1.434c0.252-0.942,1.262-1.128,1.434-2.15
			C474.168,59.645,485.146,72.56,491.029,90.568z"/>
		<path fill="none" stroke="#ffffff" stroke-width="3" stroke-linecap="round" d="M446.59,64.047
			c2.156-2.109,4.633,1.543,5.734,2.867C449.918,69.272,448.604,64.458,446.59,64.047z"/>
	</g>
</g>
</svg>
