<?xml version="1.0" encoding="UTF-8" standalone="no"?>
<svg width="329px" height="493px" viewBox="0 0 329 493" version="1.1" xmlns="http://www.w3.org/2000/svg" xmlns:xlink="http://www.w3.org/1999/xlink">
    <!-- Generator: Sketch 3.7 (28169) - http://www.bohemiancoding.com/sketch -->
    <title>james_selfie_sketch</title>
    <desc>Created with Sketch.</desc>
    <defs>
        <filter x="-50%" y="-50%" width="200%" height="200%" filterUnits="objectBoundingBox" id="filter-1">
            <feOffset dx="75" dy="75" in="SourceAlpha" result="shadowOffsetOuter1"></feOffset>
            <feGaussianBlur stdDeviation="5" in="shadowOffsetOuter1" result="shadowBlurOuter1"></feGaussianBlur>
            <feColorMatrix values="0 0 0 0 0   0 0 0 0 0   0 0 0 0 0  0 0 0 0.25 0" type="matrix" in="shadowBlurOuter1" result="shadowMatrixOuter1"></feColorMatrix>
            <feMerge>
                <feMergeNode in="shadowMatrixOuter1"></feMergeNode>
                <feMergeNode in="SourceGraphic"></feMergeNode>
            </feMerge>
        </filter>
    </defs>
    <g id="Page-1" stroke="none" stroke-width="1" fill="none" fill-rule="evenodd">
        <g id="Desktop" transform="translate(-340.000000, -76.000000)" stroke-width="5" stroke="#FFFFFF">
            <g id="james_selfie_sketch" filter="url(#filter-1)" transform="translate(343.000000, 79.000000)">
                <g id="Layer_1">
                    <g id="Group">
                        <path d="M211.318301,165.246205 C206.71667,171.312341 197.496487,166.282591 189.588336,166.760977 C183.508994,167.129455 176.216322,168.939432 170.891345,170.296386 C166.532239,171.40675 160.445847,174.648364 154.719717,173.326636 C152.154168,172.734114 145.106841,168.141182 145.119531,165.246205 C145.131516,162.374477 150.55449,159.440045 154.214221,158.68125 C162.331761,156.998795 173.937009,159.201909 180.491531,159.186409 C193.526549,159.156818 205.711319,156.911432 211.318301,165.246205 L211.318301,165.246205 Z" id="Shape"></path>
                        <path d="M98.6280383,177.871659 C88.8184631,180.870909 77.5220118,175.391659 67.2971829,174.33625 C52.8598909,172.846841 42.0350944,178.201386 30.9127817,179.891591 C29.3413038,175.702364 32.696469,172.317023 33.9450501,169.286068 C37.2952802,166.554545 47.3078997,162.976864 53.6530324,162.215955 C57.9564425,161.700932 64.7125988,163.215 70.8349469,163.226273 C78.7022065,163.241068 86.8606372,161.295114 92.0587109,163.226273 C97.9977552,165.433614 98.3692979,172.255023 98.6280383,177.871659 L98.6280383,177.871659 Z" id="Shape"></path>
                        <path d="M195.652873,193.022205 C191.779522,194.916023 190.25105,190.432295 187.567059,189.486795 C184.414938,189.871477 183.81074,192.802386 183.019009,195.546591 C178.862947,197.266386 171.281218,196.584386 166.344705,196.05175 C164.638569,193.211023 164.386879,188.917523 162.30215,186.45725 C157.167528,187.38725 154.948847,191.229136 151.184068,193.527364 C150.045469,189.525545 155.757499,185.043932 159.269882,183.427 C165.84485,180.398159 177.217442,180.839909 185.041696,183.932159 C189.482584,185.687886 195.693764,188.615977 195.652873,193.022205 L195.652873,193.022205 Z" id="Shape"></path>
                        <path d="M99.1342389,197.062068 C96.5743304,198.589523 92.2970059,196.979636 88.5209469,198.072386 C88.7966077,196.327932 91.6780029,197.186773 92.0587109,195.547295 C90.7445634,192.821409 87.3872832,192.135886 84.9838879,190.497818 C81.6449381,191.537727 81.6752537,195.943955 79.9303422,198.577545 C76.2367699,200.104295 70.3752773,199.466682 65.2759056,199.587864 C62.6701711,198.487364 62.522823,194.932932 60.2223599,193.528068 C56.1219941,195.029455 52.8803363,199.935205 47.083,198.072386 C44.8657286,192.447295 49.4088437,191.379205 54.157823,189.4875 C57.3508348,188.215091 60.7729764,185.451159 63.7594189,184.941773 C79.7667788,182.213773 94.4106401,187.72825 99.1342389,197.062068 L99.1342389,197.062068 Z" id="Shape"></path>
                        <path d="M230.522198,227.363159 C233.327451,231.646795 236.484507,239.148091 231.533894,243.017455 C235.422755,249.368932 230.63923,256.747636 230.522198,263.724045 C230.487652,265.736227 231.672077,267.768841 231.533894,269.784545 C231.36046,272.277932 229.561968,274.351409 229.007121,276.854659 C228.307746,280.010318 230.178855,284.339045 226.480348,285.44025 C224.164375,280.507023 225.435516,274.91575 227.995425,271.300727 C225.068909,263.411932 228.211159,250.959795 229.511206,242.515114 C227.826926,237.781273 229.20382,231.899727 230.522198,227.363159 L230.522198,227.363159 Z" id="Shape"></path>
                        <path d="M16.2569351,249.07725 C19.3315044,255.094773 18.3035929,265.210636 18.783708,273.823 C14.7644189,268.345159 14.7150678,257.3465 16.2569351,249.07725 L16.2569351,249.07725 Z" id="Shape"></path>
                        <path d="M107.219348,251.602341 C107.550705,260.865 116.596044,261.422295 119.347012,268.266955 C124.98854,263.468295 132.095794,260.132977 136.529631,254.127432 C144.387726,254.174636 150.949298,255.056727 154.721127,260.187932 C158.968841,259.250886 161.932723,262.169818 165.333714,262.713023 C166.939032,262.968773 168.760791,262.164182 170.38726,262.713023 C175.014271,264.276409 184.97331,274.273205 187.062268,278.873886 C190.972985,287.481318 184.729375,297.871955 192.115814,305.637455 C199.135646,308.092091 206.159708,310.53475 213.339578,307.657386 C215.813475,304.237523 215.648501,298.181955 220.920602,297.558432 C222.621802,316.981341 214.900481,335.609523 203.738687,345.53375 C202.578233,351.921159 197.368879,357.688568 193.631596,364.219 C190.919404,368.957068 189.52136,373.796591 184.535496,377.853364 C183.463168,378.725591 181.726717,379.008818 180.494351,379.874705 C177.81177,381.755841 175.894835,385.175 172.914032,386.943409 C171.693652,387.668386 169.69846,387.7635 168.366687,388.458182 C163.94131,390.764864 160.523398,395.158409 156.743814,397.043773 C153.829988,398.49725 149.186761,401.109705 147.142218,401.588795 C143.277327,402.494136 137.386224,401.280205 132.488487,401.588795 C128.859776,401.817068 125.434109,402.854864 122.381395,402.599114 C118.392422,402.265864 114.368903,400.430523 109.748236,400.579886 C103.496165,400.779977 97.368177,400.769409 91.300115,400.769409 C85.6480118,400.769409 85.894767,397.951227 80.4901239,398.420455 C77.386649,397.050114 74.5031386,389.9645 68.7777139,389.024636 C66.6471593,385.83375 65.4747198,385.462455 63.6247611,382.920455 C59.8761976,377.770932 52.9832684,368.626636 47.9459381,365.072205 C43.2547699,355.650318 43.5579263,350.987636 40.0124071,341.999045 C38.6623038,338.577068 35.7745634,335.801159 33.9478702,332.403841 C32.1775782,329.112205 30.9670678,325.293568 29.3998201,321.798318 C24.5077227,310.890545 18.2570619,301.438364 20.3037198,286.448455 C21.8759027,288.351432 21.9767198,288.840386 24.8517699,288.973545 C25.5349292,291.180886 25.9276224,295.278523 27.8840383,298.062886 C29.5760737,300.472432 33.366233,303.201136 35.9698525,305.131591 C38.2956962,306.858432 40.9592419,308.1245 43.5494661,305.63675 C44.5816077,300.573886 44.2840914,292.902091 42.0336844,289.477295 C44.1797493,284.045955 50.1293687,282.415636 51.1297847,275.841523 C56.4886018,271.498705 60.3767581,265.729886 67.8062035,263.216068 C70.74259,262.222659 74.3635457,262.751068 77.4077994,261.702 C82.3978938,259.979386 85.850351,255.646432 89.5354631,253.117114 C97.7453599,254.713614 101.359265,246.352773 107.219348,251.602341 L107.219348,251.602341 Z" id="Shape"></path>
                        <path d="M151.182658,283.922659 C149.232587,287.529227 155.450112,284.653273 153.203935,287.963227 C157.128047,294.455614 162.236584,286.017273 168.870773,287.458068 C175.344218,293.994136 169.260646,307.045136 173.924319,314.7275 C172.689133,315.970318 171.732428,314.354795 169.881764,314.7275 C169.264876,319.239409 165.067923,324.889864 168.366687,330.383205 C158.201785,330.548773 159.236041,328.626773 158.126348,335.868091 C159.128174,334.612591 158.126348,335.868091 154.516673,339.707864 C148.526867,337.135568 154.217041,351.313841 139.946133,329.844227 C140.909183,328.740205 137.381994,333.324682 137.035832,328.362568 C134.832661,320.967659 138.065858,314.814159 124.401968,312.201705 C119.953324,313.583318 112.831971,310.128227 108.231044,314.726795 C105.773363,315.162909 105.634475,313.281773 103.176794,313.716477 C98.8282625,315.024114 98.8613982,320.055977 100.651431,323.816841 C100.535103,325.553545 99.1469292,326.017136 97.6184572,326.341932 L97.6184572,330.886955 C93.8656637,333.196455 88.7204661,334.115182 84.9845929,336.442295 C81.5236755,335.355182 79.1752714,333.157705 75.3837021,332.402432 C75.2807699,325.940341 71.9023392,322.752273 67.2978879,320.788 C67.0772183,319.052 67.4974071,317.956432 67.8033835,316.748136 C64.912118,314.392136 63.0988201,309.935182 63.7608289,305.63675 C63.9370826,304.490455 65.2371298,303.668955 65.7821062,302.101341 C67.494587,297.179386 66.1155782,291.40775 69.8246608,288.972136 C76.4186637,288.530386 81.6823038,287.919545 86.3650118,290.949795 C92.6932242,289.866909 92.4591593,289.229295 98.6287434,287.989295 C98.8078171,284.949182 101.782979,287.672955 101.156926,285.437432 C106.422681,277.983341 119.872953,273.956864 128.950018,279.882091 C136.493676,276.079659 140.799906,286.241318 151.182658,283.922659 L151.182658,283.922659 L151.182658,283.922659 Z" id="Shape"></path>
                        <path d="M18.2782124,277.863568 C21.2822802,278.006591 20.5307345,283.462591 18.2782124,283.924773 C17.5767227,282.323341 17.5767227,279.463591 18.2782124,277.863568 L18.2782124,277.863568 Z" id="Shape"></path>
                        <path d="M126.92733,290.489023 C123.135056,291.4 118.76467,290.81875 115.303752,289.983864 C116.878755,286.792977 124.881378,287.783568 126.92733,290.489023 L126.92733,290.489023 Z" id="Shape"></path>
                        <path d="M237.091525,190.497114 C236.701652,192.800977 233.663038,192.457864 233.048971,194.536977 C232.423622,198.457068 231.990038,202.568795 229.007121,204.132182 C225.175366,190.62675 225.773923,172.727773 223.44808,158.176091 C222.005619,149.154386 220.11054,141.110591 222.941879,132.925182 C226.647437,133.093568 226.429587,137.18275 229.007121,138.480523 C231.221572,132.17625 226.33441,126.987977 224.459071,122.320364 C223.331047,119.513455 224.237696,114.824705 219.911021,114.745091 C218.030041,118.501023 224.441445,119.452159 221.932298,123.835136 C220.153546,124.104977 218.386779,120.424432 218.394534,117.270182 C206.703979,101.260795 204.667897,78.7019545 181.503932,75.3546591 C171.006263,73.8377727 157.080811,73.52425 145.625732,74.3443409 C135.706879,75.0545227 126.376714,78.0277045 118.336021,79.3945227 C109.92308,80.82475 102.018454,84.9350682 95.5964749,80.4048409 C83.4772714,83.9691364 75.5084897,76.3558182 62.2436372,77.87975 C60.4289292,79.4015682 63.5218289,80.2716818 62.7491327,82.4247727 C59.4440236,81.0234318 56.4752065,79.7700455 53.1475369,79.9003864 C48.1673127,80.0948409 45.3169381,84.3883409 40.5143776,84.4454091 C36.0671445,87.4777727 30.5828348,89.8795682 27.3750177,95.0509318 C23.5587729,101.202318 19.7770737,112.639205 19.7946991,118.786364 C19.7996342,120.508977 21.1187168,122.072364 21.3104808,123.836545 C21.5537109,126.069955 20.7570442,128.494295 20.8049853,130.400795 C20.9650236,136.706477 23.8591091,143.706136 22.8262625,152.116295 C21.9449941,159.292795 16.8907434,164.790364 15.7514395,173.325932 C13.9487168,186.838409 15.5864661,200.543932 13.2246667,215.242159 C7.43720059,209.915091 6.50164602,199.74075 0.591507375,194.536977 C1.62928909,187.254795 2.59233923,180.262886 2.61278466,172.316318 C2.63534513,163.462295 -0.546386431,154.251068 0.0860117994,146.0565 C0.286941003,143.448977 2.04947788,140.547659 2.10728909,137.976068 C2.16228024,135.5165 0.626758112,132.824432 0.591507375,130.400795 C0.544271386,127.201455 2.34628909,124.3255 2.61278466,121.311455 C3.12039528,115.575045 0.934849558,110.079591 1.60179351,104.646136 C2.0840236,100.719705 5.12616224,97.0039318 5.64434808,93.031 C6.73853097,84.6391591 4.64040708,76.1155682 6.65533923,69.2955682 C7.52250737,66.3576136 9.70100295,63.4344545 11.2026844,59.7003636 C14.6332861,51.1725455 15.1387817,45.1465682 22.320767,41.0151136 C23.6969558,33.7582955 30.9226519,30.8569773 35.9656224,25.3601136 C38.0997021,23.033 39.2086903,20.0562955 41.0191681,18.29 C44.2439056,15.1435 51.7826283,10.5540909 56.6845959,8.69479545 C67.7667227,4.49288636 80.2285634,0.214181818 93.0689971,0.614363636 C95.8009292,0.699613636 97.8920029,2.04881818 100.650021,2.12913636 C108.626558,2.36304545 116.853375,-0.707363636 125.915634,0.614363636 C133.928127,1.78320455 141.664254,6.04781818 149.161381,8.69479545 C150.877386,9.30070455 152.689274,9.02734091 154.214926,9.70511364 C155.958428,10.478 157.524265,12.3661818 159.268472,13.2398182 C168.508395,17.8686818 180.265926,17.5128864 185.545077,24.8549545 C188.234003,28.5939773 188.177602,33.0164091 191.610319,37.4797045 C195.251015,42.21425 203.211336,45.2445 204.749678,53.1347045 C210.495549,55.2356591 215.57659,61.9182727 217.889038,68.7897045 C219.085448,72.3483636 218.822478,76.2649318 220.415811,79.9003864 C222.106437,83.7612955 225.816224,86.5365 227.99613,90.5052045 C230.17533,94.4725 232.648522,99.9454091 234.061372,104.140273 C238.188528,116.409932 237.888192,130.670636 238.609422,145.550636 C236.307549,148.1025 237.131006,151.03975 236.588145,155.651 C236.115785,159.643659 234.331392,163.855432 234.566867,166.760977 C234.94969,171.494818 237.960808,175.100682 237.599136,179.891591 C237.282584,184.042773 234.093802,186.910273 237.091525,190.497114 L237.091525,190.497114 Z" id="Shape"></path>
                        <path d="M184.029295,54.6501818 C173.963799,56.4397273 170.065773,47.7470455 166.848791,41.0151136 C162.042,41.4413636 161.810755,37.2972273 159.268472,35.4597727 C161.116316,34.1408636 161.828381,38.2709091 163.816522,38.4900227 C164.670295,33.0868636 158.22082,30.6160227 157.247195,25.3601136 C159.392555,25.2361136 159.967847,26.6811364 162.30074,26.3704318 C162.478404,25.70675 163.190469,25.5757045 163.311732,24.8556591 C172.142041,32.8635227 179.881693,41.9627273 184.029295,54.6501818 L184.029295,54.6501818 Z" id="Shape"></path>
                        <path d="M152.699145,35.9649318 C154.219156,34.4790455 155.965478,37.0520455 156.741699,37.9848636 C155.045434,39.6461818 154.119044,36.2545 152.699145,35.9649318 L152.699145,35.9649318 Z" id="Shape"></path>
                    </g>
                </g>
            </g>
        </g>
    </g>
</svg>