<?xml version="1.0" encoding="UTF-8" standalone="no"?>
<svg width="144px" height="144px" viewBox="0 0 144 144" version="1.1" xmlns="http://www.w3.org/2000/svg" xmlns:xlink="http://www.w3.org/1999/xlink">
    <!-- Generator: Sketch 39.1 (31720) - http://www.bohemiancoding.com/sketch -->
    <title>144 - xxhdpi</title>
    <desc>Created with Sketch.</desc>
    <defs></defs>
    <g id="Page-1" stroke="none" stroke-width="1" fill="none" fill-rule="evenodd">
        <g id="144---xxhdpi">
            <g id="Group-2-Copy" transform="translate(4.000000, 4.000000)">
                <circle id="circle-copy-2" stroke="#000000" stroke-width="5" cx="67.5" cy="67.5" r="67.5"></circle>
                <path d="M62.6379682,73.3756744 C62.3822394,75.2277298 62.0366677,76.8359001 61.6012453,78.2002236 C61.1088679,79.7430062 60.4687868,81.0559931 59.6809829,82.1392234 C58.893179,83.2224538 57.9740882,84.1251323 56.923683,84.8472858 C55.8732778,85.5694394 54.658765,86.1931082 53.2801081,86.7183108 L53.2801081,41.0259123 L39.0997086,41.0259123 L39.0997086,90.6573106 C37.5241008,91.1825133 35.9485166,91.8225943 34.3729088,92.5775731 C32.7973009,93.3325518 31.3858401,94.2352303 30.1384839,95.2856355 C28.8911277,96.3360407 27.8735629,97.5669659 27.085759,98.9784479 C26.2979551,100.38993 25.904059,101.981926 25.904059,103.754485 C25.904059,105.461394 26.2651304,107.004153 26.987284,108.38281 C27.7094376,109.761467 28.6777654,110.926743 29.8922964,111.878672 C31.1068274,112.830602 32.5511129,113.569157 34.2251963,114.09436 C35.8992796,114.619562 37.6882241,114.88216 39.5920836,114.88216 C41.1020411,114.88216 42.6612129,114.668799 44.2696459,114.242072 C45.8780789,113.815345 47.3551891,112.994728 48.7010208,111.780197 C50.0468525,110.565666 51.1464789,108.858784 51.9999332,106.659498 C52.8533874,104.460212 53.2801081,101.620878 53.2801081,98.1414104 L53.2801081,91.1496856 C54.7244153,90.6901333 56.1851131,90.0664646 57.6622455,89.2786607 C59.1393778,88.4908568 60.518014,87.4076426 61.7981953,86.0289858 C62.0882295,85.7166414 62.3681536,85.3849225 62.6379682,85.0338285 L62.6379682,90.2634107 L76.8183677,90.2634107 L76.8183677,58.6529367 C77.0153187,56.1582243 77.5733381,54.0246207 78.4924427,52.2520619 C79.4115472,50.4795031 80.7573587,49.593237 82.5299175,49.593237 C84.236826,49.593237 85.5334005,50.4138538 86.4196799,52.0551119 C87.3059593,53.6963701 87.7490924,56.4536424 87.7490924,60.3270117 C87.7490924,61.1148156 87.73268,62.0503187 87.6998549,63.1335491 C87.6670297,64.2167794 87.6506174,65.3328182 87.6506174,66.481699 C87.6506174,67.6305797 87.634205,68.7794431 87.6013799,69.9283238 C87.5685547,71.0772045 87.5521424,72.078357 87.5521424,72.9318112 C87.5521424,75.3608733 87.7655027,77.6586002 88.1922298,79.825061 C88.618957,81.9915218 89.3410997,83.8953527 90.3586798,85.5366108 C91.3762598,87.177869 92.705659,88.4744435 94.3469171,89.4263732 C95.9881753,90.3783029 98.0233049,90.8542606 100.452367,90.8542606 C103.275331,90.8542606 105.425347,90.0500562 106.902479,88.4416232 C108.379612,86.8331902 109.118167,84.2564536 109.118167,80.711336 C108.592964,81.1052379 107.542575,81.302186 105.966967,81.302186 C103.866156,81.302186 102.471108,80.5964555 101.781779,79.1849735 C101.092451,77.7734915 100.747792,75.6891249 100.747792,72.9318112 C100.747792,72.0127067 100.764204,70.9294925 100.797029,69.6821363 C100.829855,68.4347802 100.879092,67.154618 100.944742,65.8416115 C101.010392,64.528605 101.059629,63.2320305 101.092454,61.9518491 C101.12528,60.6716677 101.141692,59.4735673 101.141692,58.3575117 C101.141692,55.0093451 100.780621,52.2028358 100.058467,49.9378995 C99.3363134,47.6729633 98.3351609,45.851194 97.0549795,44.4725372 C95.7747982,43.0938803 94.2812757,42.1091402 92.5743672,41.5182873 C90.8674587,40.9274344 89.0621018,40.6320123 87.1582424,40.6320123 C85.6482849,40.6320123 83.941402,40.960259 82.0375425,41.6167623 C80.1336831,42.2732655 78.3939755,43.7832004 76.8183677,46.1466121 L76.8183677,21.330913 L62.6379682,23.3004129 L62.6379682,73.3756744 Z M38.2134336,27.9287377 C38.2134336,25.762277 38.9684011,23.9076831 40.4783586,22.3649004 C41.9883161,20.8221178 43.8264976,20.050738 45.9929584,20.050738 C48.1594191,20.050738 50.014013,20.8221178 51.5567957,22.3649004 C53.0995783,23.9076831 53.8709581,25.762277 53.8709581,27.9287377 C53.8709581,30.0951985 53.0995783,31.9333801 51.5567957,33.4433376 C50.014013,34.9532951 48.1594191,35.7082625 45.9929584,35.7082625 C43.8264976,35.7082625 41.9883161,34.9532951 40.4783586,33.4433376 C38.9684011,31.9333801 38.2134336,30.0951985 38.2134336,27.9287377 Z M31.1232339,102.86821 C31.1232339,104.181217 31.5663669,105.231606 32.4526463,106.01941 C33.3389257,106.807214 34.2416042,107.20111 35.1607087,107.20111 C36.3424146,107.20111 37.29433,106.478967 38.0164836,105.03466 C38.7386372,103.590353 39.0997086,101.3911 39.0997086,98.4368354 L39.0997086,95.5810605 C36.8675975,96.500165 34.980179,97.5505545 33.4373963,98.7322604 C31.8946136,99.9139662 31.1232339,101.292602 31.1232339,102.86821 Z" id="jh" fill="#000000"></path>
            </g>
        </g>
    </g>
</svg>