<?xml version="1.0" encoding="UTF-8" standalone="no"?>
<svg width="730px" height="730px" viewBox="0 0 730 730" version="1.1" xmlns="http://www.w3.org/2000/svg" xmlns:xlink="http://www.w3.org/1999/xlink">
    <!-- Generator: Sketch 39.1 (31720) - http://www.bohemiancoding.com/sketch -->
    <title>TapShades</title>
    <desc>Created with Sketch.</desc>
    <defs></defs>
    <g id="Page-1" stroke="none" stroke-width="1" fill="none" fill-rule="evenodd">
        <g id="Artboard" transform="translate(-278.000000, -7098.000000)">
            <g id="TapShades" transform="translate(278.000000, 7098.000000)">
                <g id="TapRipple" fill="#50E3C2">
                    <circle id="Large" fill-opacity="0.400000006" cx="365" cy="365" r="365"></circle>
                    <circle id="Med" fill-opacity="0.600000024" cx="365" cy="365" r="280"></circle>
                    <circle id="Small" cx="365" cy="365" r="185"></circle>
                </g>
                <path d="M460.910909,519.658026 C481.403043,529.429523 504.269857,527.196021 519.350541,521.211833 C534.431226,515.227645 540.217645,509.366868 544.89043,504.775159 C547.309407,502.398152 551.025566,497.72332 554.129726,492.870939 C557.02193,488.349885 559.358104,483.646649 560.272978,481.245564 C562.169773,476.26743 565.203839,472.035986 559.666782,469.308195 C554.129726,466.580404 553.093826,469.550949 551.369857,471.049483 C543.872803,477.566182 539.097367,485.017224 521.438316,485.017224 C503.213952,485.017224 485.516931,471.131763 485.58431,446.399936 L485.58431,273.155977 C544.89043,273.155977 541.031558,273.231452 541.031558,258.743175 C541.031558,244.254898 544.89043,243.1475 485.58431,243.1475 C485.584307,162.919893 491.909138,163 454.717769,163 C417.5264,163 423.674009,163 423.674009,231.573881 L423.674008,451.381115 C419.035118,486.734536 388.069596,485.017222 388.069596,485.017222 C352.138588,485.017211 349.874011,451.381115 349.874011,451.381115 L349.874011,231.573885 C349.874012,163 355.473736,163 319.331281,163 C283.188826,163 286.167508,163 287.854343,231.573883 L287.854346,364.700754 C287.854346,344.170986 271.003538,330.547735 263.719709,326.700663 C244.758604,316.68605 205.848222,307.689185 172.102601,347.791209 C160.370982,361.732623 152.472664,380.432094 151.162238,412.105104 C149.851813,443.778115 151.751031,466.200139 172.1026,494.813833 C195.677309,527.959163 240.808483,533.251631 263.719705,523.764081 C271.020245,520.740924 278.05381,516.67766 286.167508,509.660223 C294.281206,502.642786 301.401847,491.040285 301.401847,491.040285 C301.401847,497.125517 370.530131,558.003404 427.830587,485.017211 C434.889923,498.043707 440.418774,509.88653 460.910909,519.658026 Z M291.503248,462.733577 C291.503248,462.733577 291.83089,463.92825 291.855622,439.193473 C291.880354,414.458696 291.710283,400.990583 291.710283,400.990583 C291.878104,377.346551 271.289602,365.407554 251.901005,363.39093 C227.064114,360.807626 206.920119,379.075751 202.22851,407.873268 C197.5369,436.670786 207.800567,464.183186 230.761303,478.244742 C251.648235,491.036264 291.297016,477.614763 291.503248,462.733577 Z" id="DTShortT" fill="#FFFFFF"></path>
            </g>
        </g>
    </g>
</svg>