<svg xmlns="http://www.w3.org/2000/svg" width="1920" height="1080"><path d="M-43,1256L-221,1248L444,1339Z" fill="#8b8793" stroke="#8b8793" stroke-width="1.51"/><path d="M913,1331L444,1339L1035,1332Z" fill="#436c90" stroke="#436c90" stroke-width="1.51"/><path d="M594,-259L886,-229L1049,-238Z" fill="#b4dec9" stroke="#b4dec9" stroke-width="1.51"/><path d="M1035,1332L444,1339L1675,1345Z" fill="#2b6290" stroke="#2b6290" stroke-width="1.51"/><path d="M1317,1330L1035,1332L1675,1345Z" fill="#1c508b" stroke="#1c508b" stroke-width="1.51"/><path d="M1949,1321L1675,1345L2045,1326Z" fill="#182978" stroke="#182978" stroke-width="1.51"/><path d="M1049,-238L1619,-238L2069,-260Z" fill="#9ea8be" stroke="#9ea8be" stroke-width="1.51"/><path d="M594,-259L1049,-238L2069,-260Z" fill="#a3c8cb" stroke="#a3c8cb" stroke-width="1.51"/><path d="M1619,-238L1798,-236L2069,-260Z" fill="#9c95b6" stroke="#9c95b6" stroke-width="1.51"/><path d="M1924,671L2079,869L2117,660Z" fill="#235b97" stroke="#235b97" stroke-width="1.51"/><path d="M2069,-260L1896,-160L2122,-17Z" fill="#8e899a" stroke="#8e899a" stroke-width="1.51"/><path d="M1896,-160L1904,-52L2122,-17Z" fill="#8f8a9a" stroke="#8f8a9a" stroke-width="1.51"/><path d="M1931,269L2100,412L2132,239Z" fill="#587694" stroke="#587694" stroke-width="1.51"/><path d="M2126,64L1971,59L2132,239Z" fill="#767f90" stroke="#767f90" stroke-width="1.51"/><path d="M1971,59L1931,269L2132,239Z" fill="#707f97" stroke="#707f97" stroke-width="1.51"/><path d="M1923,1087L2111,1182L2134,962Z" fill="#1c3584" stroke="#1c3584" stroke-width="1.51"/><path d="M1943,983L1923,1087L2134,962Z" fill="#1f3d8c" stroke="#1f3d8c" stroke-width="1.51"/><path d="M2117,660L2079,869L2134,962Z" fill="#1c4d8b" stroke="#1c4d8b" stroke-width="1.51"/><path d="M1935,561L2117,660L2138,498Z" fill="#316796" stroke="#316796" stroke-width="1.51"/><path d="M2100,412L1935,561L2138,498Z" fill="#3c6c97" stroke="#3c6c97" stroke-width="1.51"/><path d="M2132,239L2100,412L2138,498Z" fill="#486e8e" stroke="#486e8e" stroke-width="1.51"/><path d="M2117,660L2134,962L2138,498Z" fill="#21598e" stroke="#21598e" stroke-width="1.51"/><path d="M2122,-17L1971,59L2126,64Z" fill="#7e8290" stroke="#7e8290" stroke-width="1.51"/><path d="M2079,869L1943,983L2134,962Z" fill="#1d438b" stroke="#1d438b" stroke-width="1.51"/><path d="M1935,561L1924,671L2117,660Z" fill="#30669d" stroke="#30669d" stroke-width="1.51"/><path d="M1904,-52L1971,59L2122,-17Z" fill="#878798" stroke="#878798" stroke-width="1.51"/><path d="M1924,671L1896,857L2079,869Z" fill="#25579c" stroke="#25579c" stroke-width="1.51"/><path d="M1931,269L1898,384L2100,412Z" fill="#54779d" stroke="#54779d" stroke-width="1.51"/><path d="M1949,1321L2045,1326L2111,1182Z" fill="#152670" stroke="#152670" stroke-width="1.51"/><path d="M1923,1087L1949,1321L2111,1182Z" fill="#1c2c80" stroke="#1c2c80" stroke-width="1.51"/><path d="M1898,384L1935,561L2100,412Z" fill="#47729e" stroke="#47729e" stroke-width="1.51"/><path d="M1896,857L1943,983L2079,869Z" fill="#224a95" stroke="#224a95" stroke-width="1.51"/><path d="M1798,-236L1896,-160L2069,-260Z" fill="#978fac" stroke="#978fac" stroke-width="1.51"/><path d="M1049,-238L1215,-189L1619,-238Z" fill="#a1c2c6" stroke="#a1c2c6" stroke-width="1.51"/><path d="M1896,857L1836,937L1943,983Z" fill="#254b9c" stroke="#254b9c" stroke-width="1.51"/><path d="M1779,1258L1675,1345L1949,1321Z" fill="#1b2f80" stroke="#1b2f80" stroke-width="1.51"/><path d="M1923,1087L1779,1258L1949,1321Z" fill="#202f88" stroke="#202f88" stroke-width="1.51"/><path d="M1804,127L1931,269L1971,59Z" fill="#7c86a2" stroke="#7c86a2" stroke-width="1.51"/><path d="M1904,-52L1804,127L1971,59Z" fill="#898aa3" stroke="#898aa3" stroke-width="1.51"/><path d="M1761,1087L1779,1258L1923,1087Z" fill="#263996" stroke="#263996" stroke-width="1.51"/><path d="M1753,860L1896,857L1924,671Z" fill="#2b5ca7" stroke="#2b5ca7" stroke-width="1.51"/><path d="M1804,127L1758,224L1931,269Z" fill="#7687a9" stroke="#7687a9" stroke-width="1.51"/><path d="M1837,342L1898,384L1931,269Z" fill="#5c7ca6" stroke="#5c7ca6" stroke-width="1.51"/><path d="M1898,384L1783,546L1935,561Z" fill="#4675aa" stroke="#4675aa" stroke-width="1.51"/><path d="M1836,937L1923,1087L1943,983Z" fill="#244397" stroke="#244397" stroke-width="1.51"/><path d="M1738,634L1753,860L1924,671Z" fill="#2d68ad" stroke="#2d68ad" stroke-width="1.51"/><path d="M1783,546L1924,671L1935,561Z" fill="#396eaa" stroke="#396eaa" stroke-width="1.51"/><path d="M1836,937L1761,1087L1923,1087Z" fill="#26429b" stroke="#26429b" stroke-width="1.51"/><path d="M1783,546L1738,634L1924,671Z" fill="#3870ad" stroke="#3870ad" stroke-width="1.51"/><path d="M1758,224L1837,342L1931,269Z" fill="#6882a9" stroke="#6882a9" stroke-width="1.51"/><path d="M1837,342L1783,546L1898,384Z" fill="#517bab" stroke="#517bab" stroke-width="1.51"/><path d="M1896,-160L1733,-110L1904,-52Z" fill="#9891a9" stroke="#9891a9" stroke-width="1.51"/><path d="M1733,-110L1804,127L1904,-52Z" fill="#9192a8" stroke="#9192a8" stroke-width="1.51"/><path d="M1215,-189L1357,-170L1619,-238Z" fill="#9fb8c0" stroke="#9fb8c0" stroke-width="1.51"/><path d="M1798,-236L1733,-110L1896,-160Z" fill="#9a95af" stroke="#9a95af" stroke-width="1.51"/><path d="M1753,860L1836,937L1896,857Z" fill="#2854a3" stroke="#2854a3" stroke-width="1.51"/><path d="M1523,1292L1317,1330L1675,1345Z" fill="#1b4387" stroke="#1b4387" stroke-width="1.51"/><path d="M1738,634L1657,735L1753,860Z" fill="#296daf" stroke="#296daf" stroke-width="1.51"/><path d="M1733,-110L1670,-85L1804,127Z" fill="#9298aa" stroke="#9298aa" stroke-width="1.51"/><path d="M1670,-85L1627,125L1804,127Z" fill="#8b98ac" stroke="#8b98ac" stroke-width="1.51"/><path d="M1631,977L1761,1087L1836,937Z" fill="#264da0" stroke="#264da0" stroke-width="1.51"/><path d="M1753,860L1631,977L1836,937Z" fill="#2655a4" stroke="#2655a4" stroke-width="1.51"/><path d="M1603,396L1783,546L1837,342Z" fill="#4f82ae" stroke="#4f82ae" stroke-width="1.51"/><path d="M1758,224L1603,396L1837,342Z" fill="#5f88ad" stroke="#5f88ad" stroke-width="1.51"/><path d="M1684,209L1603,396L1758,224Z" fill="#688eae" stroke="#688eae" stroke-width="1.51"/><path d="M1761,1087L1633,1168L1779,1258Z" fill="#253d96" stroke="#253d96" stroke-width="1.51"/><path d="M1619,-238L1733,-110L1798,-236Z" fill="#9b9db5" stroke="#9b9db5" stroke-width="1.51"/><path d="M1684,209L1758,224L1804,127Z" fill="#798fab" stroke="#798fab" stroke-width="1.51"/><path d="M1627,125L1684,209L1804,127Z" fill="#7f94ac" stroke="#7f94ac" stroke-width="1.51"/><path d="M1580,561L1738,634L1783,546Z" fill="#387cb1" stroke="#387cb1" stroke-width="1.51"/><path d="M1603,396L1580,561L1783,546Z" fill="#4284b3" stroke="#4284b3" stroke-width="1.51"/><path d="M1633,1168L1675,1345L1779,1258Z" fill="#1f3a8b" stroke="#1f3a8b" stroke-width="1.51"/><path d="M1357,-170L1522,-188L1619,-238Z" fill="#9daebc" stroke="#9daebc" stroke-width="1.51"/><path d="M1657,735L1610,886L1753,860Z" fill="#2765ac" stroke="#2765ac" stroke-width="1.51"/><path d="M1610,886L1631,977L1753,860Z" fill="#255ca7" stroke="#255ca7" stroke-width="1.51"/><path d="M1631,977L1633,1168L1761,1087Z" fill="#264a9e" stroke="#264a9e" stroke-width="1.51"/><path d="M1619,-238L1670,-85L1733,-110Z" fill="#9a9fb2" stroke="#9a9fb2" stroke-width="1.51"/><path d="M1212,1314L1035,1332L1317,1330Z" fill="#245b91" stroke="#245b91" stroke-width="1.51"/><path d="M1533,-9L1627,125L1670,-85Z" fill="#90a0ae" stroke="#90a0ae" stroke-width="1.51"/><path d="M1580,561L1657,735L1738,634Z" fill="#3279b2" stroke="#3279b2" stroke-width="1.51"/><path d="M1512,207L1520,366L1603,396Z" fill="#5d96b3" stroke="#5d96b3" stroke-width="1.51"/><path d="M1631,977L1484,1035L1633,1168Z" fill="#2552a2" stroke="#2552a2" stroke-width="1.51"/><path d="M1619,-238L1522,-188L1670,-85Z" fill="#9ba5b6" stroke="#9ba5b6" stroke-width="1.51"/><path d="M1633,1168L1523,1292L1675,1345Z" fill="#1e3f8c" stroke="#1e3f8c" stroke-width="1.51"/><path d="M1627,125L1512,207L1684,209Z" fill="#7a99af" stroke="#7a99af" stroke-width="1.51"/><path d="M1512,207L1603,396L1684,209Z" fill="#6995b0" stroke="#6995b0" stroke-width="1.51"/><path d="M1580,561L1489,723L1657,735Z" fill="#2c7cb5" stroke="#2c7cb5" stroke-width="1.51"/><path d="M1494,815L1610,886L1657,735Z" fill="#246daf" stroke="#246daf" stroke-width="1.51"/><path d="M1522,-188L1533,-9L1670,-85Z" fill="#99a6b0" stroke="#99a6b0" stroke-width="1.51"/><path d="M1489,723L1494,815L1657,735Z" fill="#2377b4" stroke="#2377b4" stroke-width="1.51"/><path d="M763,1308L444,1339L913,1331Z" fill="#4b708f" stroke="#4b708f" stroke-width="1.51"/><path d="M1445,518L1580,561L1603,396Z" fill="#418db6" stroke="#418db6" stroke-width="1.51"/><path d="M1519,143L1512,207L1627,125Z" fill="#7e9fb1" stroke="#7e9fb1" stroke-width="1.51"/><path d="M1533,-9L1519,143L1627,125Z" fill="#88a1b0" stroke="#88a1b0" stroke-width="1.51"/><path d="M1610,886L1484,1035L1631,977Z" fill="#235ca7" stroke="#235ca7" stroke-width="1.51"/><path d="M1431,1142L1523,1292L1633,1168Z" fill="#244998" stroke="#244998" stroke-width="1.51"/><path d="M1484,1035L1431,1142L1633,1168Z" fill="#2751a2" stroke="#2751a2" stroke-width="1.51"/><path d="M1520,366L1445,518L1603,396Z" fill="#4d92b6" stroke="#4d92b6" stroke-width="1.51"/><path d="M1494,815L1484,1035L1610,886Z" fill="#2365ab" stroke="#2365ab" stroke-width="1.51"/><path d="M1445,518L1489,723L1580,561Z" fill="#3288b8" stroke="#3288b8" stroke-width="1.51"/><path d="M1445,518L1368,651L1489,723Z" fill="#2e8cba" stroke="#2e8cba" stroke-width="1.51"/><path d="M1357,880L1484,1035L1494,815Z" fill="#236caf" stroke="#236caf" stroke-width="1.51"/><path d="M1512,207L1328,275L1520,366Z" fill="#67a0b6" stroke="#67a0b6" stroke-width="1.51"/><path d="M1313,60L1519,143L1533,-9Z" fill="#8bacb4" stroke="#8bacb4" stroke-width="1.51"/><path d="M1299,-47L1313,60L1533,-9Z" fill="#93b5b6" stroke="#93b5b6" stroke-width="1.51"/><path d="M1522,-188L1357,-170L1533,-9Z" fill="#9bb0b6" stroke="#9bb0b6" stroke-width="1.51"/><path d="M1357,-170L1299,-47L1533,-9Z" fill="#9ab6b5" stroke="#9ab6b5" stroke-width="1.51"/><path d="M1318,353L1445,518L1520,366Z" fill="#4f9bba" stroke="#4f9bba" stroke-width="1.51"/><path d="M1328,275L1318,353L1520,366Z" fill="#5ca3b9" stroke="#5ca3b9" stroke-width="1.51"/><path d="M1431,1142L1317,1330L1523,1292Z" fill="#224e95" stroke="#224e95" stroke-width="1.51"/><path d="M1313,60L1512,207L1519,143Z" fill="#83aab4" stroke="#83aab4" stroke-width="1.51"/><path d="M1313,60L1328,275L1512,207Z" fill="#7cadb7" stroke="#7cadb7" stroke-width="1.51"/><path d="M1318,353L1351,511L1445,518Z" fill="#469ebc" stroke="#469ebc" stroke-width="1.51"/><path d="M1357,880L1319,944L1484,1035Z" fill="#236caf" stroke="#236caf" stroke-width="1.51"/><path d="M1368,651L1357,880L1489,723Z" fill="#2184ba" stroke="#2184ba" stroke-width="1.51"/><path d="M1489,723L1357,880L1494,815Z" fill="#2379b5" stroke="#2379b5" stroke-width="1.51"/><path d="M1304,1160L1317,1330L1431,1142Z" fill="#26579e" stroke="#26579e" stroke-width="1.51"/><path d="M1319,944L1431,1142L1484,1035Z" fill="#2761aa" stroke="#2761aa" stroke-width="1.51"/><path d="M1319,944L1304,1160L1431,1142Z" fill="#2962aa" stroke="#2962aa" stroke-width="1.51"/><path d="M1351,511L1368,651L1445,518Z" fill="#3496bd" stroke="#3496bd" stroke-width="1.51"/><path d="M1313,60L1227,119L1328,275Z" fill="#82b8bb" stroke="#82b8bb" stroke-width="1.51"/><path d="M1174,790L1357,880L1368,651Z" fill="#208abd" stroke="#208abd" stroke-width="1.51"/><path d="M1207,1111L1304,1160L1319,944Z" fill="#296aae" stroke="#296aae" stroke-width="1.51"/><path d="M1318,353L1194,390L1351,511Z" fill="#4da7bf" stroke="#4da7bf" stroke-width="1.51"/><path d="M1351,511L1195,557L1368,651Z" fill="#319cc0" stroke="#319cc0" stroke-width="1.51"/><path d="M1195,557L1202,674L1368,651Z" fill="#2b9cc1" stroke="#2b9cc1" stroke-width="1.51"/><path d="M1202,674L1174,790L1368,651Z" fill="#2395c1" stroke="#2395c1" stroke-width="1.51"/><path d="M1304,1160L1212,1314L1317,1330Z" fill="#235a99" stroke="#235a99" stroke-width="1.51"/><path d="M1227,119L1224,283L1328,275Z" fill="#73b6bd" stroke="#73b6bd" stroke-width="1.51"/><path d="M1194,390L1195,557L1351,511Z" fill="#40a7c1" stroke="#40a7c1" stroke-width="1.51"/><path d="M1174,790L1319,944L1357,880Z" fill="#227fb8" stroke="#227fb8" stroke-width="1.51"/><path d="M1202,-97L1299,-47L1357,-170Z" fill="#9dc1bc" stroke="#9dc1bc" stroke-width="1.51"/><path d="M1215,-189L1202,-97L1357,-170Z" fill="#9fc4c1" stroke="#9fc4c1" stroke-width="1.51"/><path d="M1146,962L1207,1111L1319,944Z" fill="#2974b2" stroke="#2974b2" stroke-width="1.51"/><path d="M1174,790L1146,962L1319,944Z" fill="#2681b8" stroke="#2681b8" stroke-width="1.51"/><path d="M1224,283L1318,353L1328,275Z" fill="#62aebd" stroke="#62aebd" stroke-width="1.51"/><path d="M143,1266L-43,1256L444,1339Z" fill="#838492" stroke="#838492" stroke-width="1.51"/><path d="M1299,-47L1227,119L1313,60Z" fill="#90bdba" stroke="#90bdba" stroke-width="1.51"/><path d="M1207,1111L1212,1314L1304,1160Z" fill="#2a61a4" stroke="#2a61a4" stroke-width="1.51"/><path d="M1224,283L1194,390L1318,353Z" fill="#5aafbe" stroke="#5aafbe" stroke-width="1.51"/><path d="M1202,-97L1227,119L1299,-47Z" fill="#96c1bb" stroke="#96c1bb" stroke-width="1.51"/><path d="M1,-249L89,-228L594,-259Z" fill="#eaf7c2" stroke="#eaf7c2" stroke-width="1.51"/><path d="M1003,1126L1035,1332L1207,1111Z" fill="#366aa7" stroke="#366aa7" stroke-width="1.51"/><path d="M1207,1111L1035,1332L1212,1314Z" fill="#2c629d" stroke="#2c629d" stroke-width="1.51"/><path d="M1083,255L1194,390L1224,283Z" fill="#64b6be" stroke="#64b6be" stroke-width="1.51"/><path d="M1202,-97L1088,-58L1227,119Z" fill="#98c6bb" stroke="#98c6bb" stroke-width="1.51"/><path d="M1088,-58L1056,122L1227,119Z" fill="#92c7bc" stroke="#92c7bc" stroke-width="1.51"/><path d="M1083,255L1224,283L1227,119Z" fill="#77bbbd" stroke="#77bbbd" stroke-width="1.51"/><path d="M1056,122L1083,255L1227,119Z" fill="#84c2bc" stroke="#84c2bc" stroke-width="1.51"/><path d="M1076,944L1146,962L1174,790Z" fill="#2c86b8" stroke="#2c86b8" stroke-width="1.51"/><path d="M1194,390L980,395L1195,557Z" fill="#4db1c1" stroke="#4db1c1" stroke-width="1.51"/><path d="M980,395L1004,594L1195,557Z" fill="#42b1c3" stroke="#42b1c3" stroke-width="1.51"/><path d="M1053,719L1174,790L1202,674Z" fill="#2999c1" stroke="#2999c1" stroke-width="1.51"/><path d="M1195,557L1004,594L1202,674Z" fill="#34a5c3" stroke="#34a5c3" stroke-width="1.51"/><path d="M1146,962L1003,1126L1207,1111Z" fill="#3374b0" stroke="#3374b0" stroke-width="1.51"/><path d="M1088,-58L1202,-97L1215,-189Z" fill="#a1c9be" stroke="#a1c9be" stroke-width="1.51"/><path d="M1049,-238L1088,-58L1215,-189Z" fill="#a4cdc3" stroke="#a4cdc3" stroke-width="1.51"/><path d="M1004,594L1053,719L1202,674Z" fill="#32a3c2" stroke="#32a3c2" stroke-width="1.51"/><path d="M1083,255L980,395L1194,390Z" fill="#5eb9bf" stroke="#5eb9bf" stroke-width="1.51"/><path d="M1076,944L1003,1126L1146,962Z" fill="#337cb3" stroke="#337cb3" stroke-width="1.51"/><path d="M997,853L1076,944L1174,790Z" fill="#2f8dbb" stroke="#2f8dbb" stroke-width="1.51"/><path d="M1053,719L997,853L1174,790Z" fill="#2d97bf" stroke="#2d97bf" stroke-width="1.51"/><path d="M1003,1126L913,1331L1035,1332Z" fill="#356b9c" stroke="#356b9c" stroke-width="1.51"/><path d="M880,1015L1003,1126L1076,944Z" fill="#3980b3" stroke="#3980b3" stroke-width="1.51"/><path d="M1056,122L906,217L1083,255Z" fill="#80c7bd" stroke="#80c7bd" stroke-width="1.51"/><path d="M906,217L980,395L1083,255Z" fill="#6ec2bf" stroke="#6ec2bf" stroke-width="1.51"/><path d="M1049,-238L935,-54L1088,-58Z" fill="#a5d3bf" stroke="#a5d3bf" stroke-width="1.51"/><path d="M925,61L1056,122L1088,-58Z" fill="#97cebc" stroke="#97cebc" stroke-width="1.51"/><path d="M935,-54L925,61L1088,-58Z" fill="#9fd3bc" stroke="#9fd3bc" stroke-width="1.51"/><path d="M886,-229L935,-54L1049,-238Z" fill="#a9d8c4" stroke="#a9d8c4" stroke-width="1.51"/><path d="M997,853L880,1015L1076,944Z" fill="#368ab7" stroke="#368ab7" stroke-width="1.51"/><path d="M980,395L916,591L1004,594Z" fill="#44b6c4" stroke="#44b6c4" stroke-width="1.51"/><path d="M856,818L997,853L1053,719Z" fill="#349cbf" stroke="#349cbf" stroke-width="1.51"/><path d="M1004,594L895,640L1053,719Z" fill="#38aac3" stroke="#38aac3" stroke-width="1.51"/><path d="M925,61L906,217L1056,122Z" fill="#8ecfbd" stroke="#8ecfbd" stroke-width="1.51"/><path d="M895,640L856,818L1053,719Z" fill="#38a6c2" stroke="#38a6c2" stroke-width="1.51"/><path d="M892,393L916,591L980,395Z" fill="#55bbc2" stroke="#55bbc2" stroke-width="1.51"/><path d="M906,217L892,393L980,395Z" fill="#68c3bf" stroke="#68c3bf" stroke-width="1.51"/><path d="M856,818L880,1015L997,853Z" fill="#3e92b9" stroke="#3e92b9" stroke-width="1.51"/><path d="M869,1090L913,1331L1003,1126Z" fill="#4173a8" stroke="#4173a8" stroke-width="1.51"/><path d="M880,1015L869,1090L1003,1126Z" fill="#427eb0" stroke="#427eb0" stroke-width="1.51"/><path d="M916,591L895,640L1004,594Z" fill="#40b1c3" stroke="#40b1c3" stroke-width="1.51"/><path d="M602,1285L444,1339L763,1308Z" fill="#587591" stroke="#587591" stroke-width="1.51"/><path d="M869,1090L763,1308L913,1331Z" fill="#45719e" stroke="#45719e" stroke-width="1.51"/><path d="M775,795L856,818L895,640Z" fill="#45a7c0" stroke="#45a7c0" stroke-width="1.51"/><path d="M774,647L775,795L895,640Z" fill="#4badc1" stroke="#4badc1" stroke-width="1.51"/><path d="M755,223L892,393L906,217Z" fill="#7ac9bd" stroke="#7ac9bd" stroke-width="1.51"/><path d="M892,393L727,511L916,591Z" fill="#57bdc2" stroke="#57bdc2" stroke-width="1.51"/><path d="M755,223L906,217L925,61Z" fill="#8fd0bb" stroke="#8fd0bb" stroke-width="1.51"/><path d="M700,126L755,223L925,61Z" fill="#9ad5ba" stroke="#9ad5ba" stroke-width="1.51"/><path d="M705,-50L925,61L935,-54Z" fill="#a6d8ba" stroke="#a6d8ba" stroke-width="1.51"/><path d="M886,-229L705,-50L935,-54Z" fill="#afdcbd" stroke="#afdcbd" stroke-width="1.51"/><path d="M686,-174L705,-50L886,-229Z" fill="#b6dfbf" stroke="#b6dfbf" stroke-width="1.51"/><path d="M705,-50L700,126L925,61Z" fill="#a5d9b9" stroke="#a5d9b9" stroke-width="1.51"/><path d="M856,818L723,1004L880,1015Z" fill="#4a8fb5" stroke="#4a8fb5" stroke-width="1.51"/><path d="M594,-259L686,-174L886,-229Z" fill="#bce2c5" stroke="#bce2c5" stroke-width="1.51"/><path d="M774,647L895,640L916,591Z" fill="#4ab1c2" stroke="#4ab1c2" stroke-width="1.51"/><path d="M727,511L774,647L916,591Z" fill="#53b8c1" stroke="#53b8c1" stroke-width="1.51"/><path d="M680,1109L763,1308L869,1090Z" fill="#5379a8" stroke="#5379a8" stroke-width="1.51"/><path d="M755,223L679,334L892,393Z" fill="#79c9bd" stroke="#79c9bd" stroke-width="1.51"/><path d="M775,795L723,1004L856,818Z" fill="#4d99b8" stroke="#4d99b8" stroke-width="1.51"/><path d="M679,334L727,511L892,393Z" fill="#6cc4bf" stroke="#6cc4bf" stroke-width="1.51"/><path d="M723,1004L869,1090L880,1015Z" fill="#4c85b1" stroke="#4c85b1" stroke-width="1.51"/><path d="M723,1004L680,1109L869,1090Z" fill="#5384ae" stroke="#5384ae" stroke-width="1.51"/><path d="M637,105L700,126L705,-50Z" fill="#abdcb8" stroke="#abdcb8" stroke-width="1.51"/><path d="M680,1109L602,1285L763,1308Z" fill="#55779d" stroke="#55779d" stroke-width="1.51"/><path d="M727,511L532,591L774,647Z" fill="#61bdc0" stroke="#61bdc0" stroke-width="1.51"/><path d="M532,591L568,708L774,647Z" fill="#66b9be" stroke="#66b9be" stroke-width="1.51"/><path d="M611,884L723,1004L775,795Z" fill="#579ab6" stroke="#579ab6" stroke-width="1.51"/><path d="M774,647L568,708L775,795Z" fill="#57afbf" stroke="#57afbf" stroke-width="1.51"/><path d="M568,708L611,884L775,795Z" fill="#5ca9bb" stroke="#5ca9bb" stroke-width="1.51"/><path d="M628,-37L637,105L705,-50Z" fill="#b2dfb7" stroke="#b2dfb7" stroke-width="1.51"/><path d="M629,284L679,334L755,223Z" fill="#87cfbb" stroke="#87cfbb" stroke-width="1.51"/><path d="M700,126L629,284L755,223Z" fill="#94d4ba" stroke="#94d4ba" stroke-width="1.51"/><path d="M89,-228L258,-166L594,-259Z" fill="#e3f4c0" stroke="#e3f4c0" stroke-width="1.51"/><path d="M637,105L629,284L700,126Z" fill="#9ed8b9" stroke="#9ed8b9" stroke-width="1.51"/><path d="M686,-174L628,-37L705,-50Z" fill="#b9e2b7" stroke="#b9e2b7" stroke-width="1.51"/><path d="M627,1088L680,1109L723,1004Z" fill="#5b87ae" stroke="#5b87ae" stroke-width="1.51"/><path d="M590,1027L627,1088L723,1004Z" fill="#5f8baf" stroke="#5f8baf" stroke-width="1.51"/><path d="M611,884L590,1027L723,1004Z" fill="#5e92b2" stroke="#5e92b2" stroke-width="1.51"/><path d="M679,334L550,383L727,511Z" fill="#77c9bd" stroke="#77c9bd" stroke-width="1.51"/><path d="M550,383L532,591L727,511Z" fill="#73c6be" stroke="#73c6be" stroke-width="1.51"/><path d="M627,1088L602,1285L680,1109Z" fill="#607fa8" stroke="#607fa8" stroke-width="1.51"/><path d="M594,-259L450,-155L628,-37Z" fill="#c8e9bc" stroke="#c8e9bc" stroke-width="1.51"/><path d="M594,-259L628,-37L686,-174Z" fill="#c0e5bd" stroke="#c0e5bd" stroke-width="1.51"/><path d="M629,284L550,383L679,334Z" fill="#85cfbb" stroke="#85cfbb" stroke-width="1.51"/><path d="M466,230L629,284L637,105Z" fill="#a1d9b8" stroke="#a1d9b8" stroke-width="1.51"/><path d="M446,524L532,591L550,383Z" fill="#80cabd" stroke="#80cabd" stroke-width="1.51"/><path d="M258,-166L450,-155L594,-259Z" fill="#d7efbe" stroke="#d7efbe" stroke-width="1.51"/><path d="M447,1131L602,1285L627,1088Z" fill="#6a81a7" stroke="#6a81a7" stroke-width="1.51"/><path d="M388,66L466,230L637,105Z" fill="#b7e2b6" stroke="#b7e2b6" stroke-width="1.51"/><path d="M628,-37L420,-30L637,105Z" fill="#bce3b6" stroke="#bce3b6" stroke-width="1.51"/><path d="M420,-30L388,66L637,105Z" fill="#c1e6b5" stroke="#c1e6b5" stroke-width="1.51"/><path d="M568,708L402,887L611,884Z" fill="#6faab9" stroke="#6faab9" stroke-width="1.51"/><path d="M450,-155L420,-30L628,-37Z" fill="#cbeab4" stroke="#cbeab4" stroke-width="1.51"/><path d="M466,230L550,383L629,284Z" fill="#95d4ba" stroke="#95d4ba" stroke-width="1.51"/><path d="M590,1027L447,1131L627,1088Z" fill="#6b8aac" stroke="#6b8aac" stroke-width="1.51"/><path d="M402,887L381,962L590,1027Z" fill="#779cb0" stroke="#779cb0" stroke-width="1.51"/><path d="M447,1131L444,1339L602,1285Z" fill="#6b7d99" stroke="#6b7d99" stroke-width="1.51"/><path d="M402,887L590,1027L611,884Z" fill="#6d9cb2" stroke="#6d9cb2" stroke-width="1.51"/><path d="M420,698L402,887L568,708Z" fill="#79b4bc" stroke="#79b4bc" stroke-width="1.51"/><path d="M381,962L447,1131L590,1027Z" fill="#7692ad" stroke="#7692ad" stroke-width="1.51"/><path d="M532,591L420,698L568,708Z" fill="#77bcbe" stroke="#77bcbe" stroke-width="1.51"/><path d="M248,1258L143,1266L444,1339Z" fill="#7d8292" stroke="#7d8292" stroke-width="1.51"/><path d="M466,230L381,409L550,383Z" fill="#97d5b9" stroke="#97d5b9" stroke-width="1.51"/><path d="M381,409L446,524L550,383Z" fill="#8ed0bb" stroke="#8ed0bb" stroke-width="1.51"/><path d="M446,524L420,698L532,591Z" fill="#7fc4be" stroke="#7fc4be" stroke-width="1.51"/><path d="M307,1138L248,1258L444,1339Z" fill="#7d8499" stroke="#7d8499" stroke-width="1.51"/><path d="M297,659L420,698L446,524Z" fill="#88c5bc" stroke="#88c5bc" stroke-width="1.51"/><path d="M281,550L297,659L446,524Z" fill="#8fccbc" stroke="#8fccbc" stroke-width="1.51"/><path d="M307,1138L444,1339L447,1131Z" fill="#7b85a0" stroke="#7b85a0" stroke-width="1.51"/><path d="M381,962L307,1138L447,1131Z" fill="#8192aa" stroke="#8192aa" stroke-width="1.51"/><path d="M237,247L381,409L466,230Z" fill="#acddb7" stroke="#acddb7" stroke-width="1.51"/><path d="M277,142L237,247L466,230Z" fill="#bce4b6" stroke="#bce4b6" stroke-width="1.51"/><path d="M388,66L277,142L466,230Z" fill="#c2e6b5" stroke="#c2e6b5" stroke-width="1.51"/><path d="M237,247L312,415L381,409Z" fill="#a6dab8" stroke="#a6dab8" stroke-width="1.51"/><path d="M258,-166L310,-12L420,-30Z" fill="#dbf1b3" stroke="#dbf1b3" stroke-width="1.51"/><path d="M229,857L402,887L420,698Z" fill="#86b3b8" stroke="#86b3b8" stroke-width="1.51"/><path d="M297,659L229,857L420,698Z" fill="#8abdbb" stroke="#8abdbb" stroke-width="1.51"/><path d="M258,-166L420,-30L450,-155Z" fill="#daf0b6" stroke="#daf0b6" stroke-width="1.51"/><path d="M381,409L281,550L446,524Z" fill="#93d1bc" stroke="#93d1bc" stroke-width="1.51"/><path d="M312,415L281,550L381,409Z" fill="#9bd5bb" stroke="#9bd5bb" stroke-width="1.51"/><path d="M248,976L307,1138L381,962Z" fill="#8799ad" stroke="#8799ad" stroke-width="1.51"/><path d="M310,-12L388,66L420,-30Z" fill="#d1edb3" stroke="#d1edb3" stroke-width="1.51"/><path d="M229,857L381,962L402,887Z" fill="#86a7b3" stroke="#86a7b3" stroke-width="1.51"/><path d="M229,857L248,976L381,962Z" fill="#8aa5b1" stroke="#8aa5b1" stroke-width="1.51"/><path d="M310,-12L277,142L388,66Z" fill="#d0ecb4" stroke="#d0ecb4" stroke-width="1.51"/><path d="M281,550L183,659L297,659Z" fill="#94cabc" stroke="#94cabc" stroke-width="1.51"/><path d="M183,659L229,857L297,659Z" fill="#91c1bb" stroke="#91c1bb" stroke-width="1.51"/><path d="M189,1142L248,1258L307,1138Z" fill="#898ba3" stroke="#898ba3" stroke-width="1.51"/><path d="M248,976L190,1044L307,1138Z" fill="#8b98ab" stroke="#8b98ab" stroke-width="1.51"/><path d="M190,1044L189,1142L307,1138Z" fill="#8c92a9" stroke="#8c92a9" stroke-width="1.51"/><path d="M258,-166L186,-98L310,-12Z" fill="#e2f3b4" stroke="#e2f3b4" stroke-width="1.51"/><path d="M162,113L277,142L310,-12Z" fill="#d3edb3" stroke="#d3edb3" stroke-width="1.51"/><path d="M186,-98L162,113L310,-12Z" fill="#dcf1b3" stroke="#dcf1b3" stroke-width="1.51"/><path d="M111,430L281,550L312,415Z" fill="#a1d6bb" stroke="#a1d6bb" stroke-width="1.51"/><path d="M237,247L111,430L312,415Z" fill="#acddb8" stroke="#acddb8" stroke-width="1.51"/><path d="M111,430L153,587L281,550Z" fill="#9fd5bb" stroke="#9fd5bb" stroke-width="1.51"/><path d="M153,587L183,659L281,550Z" fill="#99cdbc" stroke="#99cdbc" stroke-width="1.51"/><path d="M162,209L237,247L277,142Z" fill="#c4e7b5" stroke="#c4e7b5" stroke-width="1.51"/><path d="M162,113L162,209L277,142Z" fill="#cdebb4" stroke="#cdebb4" stroke-width="1.51"/><path d="M183,659L82,849L229,857Z" fill="#95bab8" stroke="#95bab8" stroke-width="1.51"/><path d="M162,209L111,430L237,247Z" fill="#b8e2b6" stroke="#b8e2b6" stroke-width="1.51"/><path d="M189,1142L143,1266L248,1258Z" fill="#88899c" stroke="#88899c" stroke-width="1.51"/><path d="M229,857L82,849L248,976Z" fill="#91acb3" stroke="#91acb3" stroke-width="1.51"/><path d="M89,-228L186,-98L258,-166Z" fill="#eaf7ba" stroke="#eaf7ba" stroke-width="1.51"/><path d="M82,849L190,1044L248,976Z" fill="#91a4b0" stroke="#91a4b0" stroke-width="1.51"/><path d="M-11,-14L162,113L186,-98Z" fill="#e3f4b2" stroke="#e3f4b2" stroke-width="1.51"/><path d="M-19,386L111,430L162,209Z" fill="#b7e1b6" stroke="#b7e1b6" stroke-width="1.51"/><path d="M-26,207L-19,386L162,209Z" fill="#c5e7b7" stroke="#c5e7b7" stroke-width="1.51"/><path d="M-7,728L82,849L183,659Z" fill="#9bc2ba" stroke="#9bc2ba" stroke-width="1.51"/><path d="M10,1154L143,1266L189,1142Z" fill="#908da2" stroke="#908da2" stroke-width="1.51"/><path d="M82,849L23,872L190,1044Z" fill="#97aab1" stroke="#97aab1" stroke-width="1.51"/><path d="M23,872L-30,1006L190,1044Z" fill="#98a5ae" stroke="#98a5ae" stroke-width="1.51"/><path d="M10,1154L189,1142L190,1044Z" fill="#9393a8" stroke="#9393a8" stroke-width="1.51"/><path d="M-30,1006L10,1154L190,1044Z" fill="#989aaa" stroke="#989aaa" stroke-width="1.51"/><path d="M89,-228L-11,-14L186,-98Z" fill="#edf8b4" stroke="#edf8b4" stroke-width="1.51"/><path d="M-11,-14L-2,118L162,113Z" fill="#e0f3b3" stroke="#e0f3b3" stroke-width="1.51"/><path d="M153,587L-7,728L183,659Z" fill="#9dcabb" stroke="#9dcabb" stroke-width="1.51"/><path d="M111,430L-60,572L153,587Z" fill="#a6d7bc" stroke="#a6d7bc" stroke-width="1.51"/><path d="M162,113L-2,118L162,209Z" fill="#d4eeb4" stroke="#d4eeb4" stroke-width="1.51"/><path d="M-2,118L-26,207L162,209Z" fill="#d3edb5" stroke="#d3edb5" stroke-width="1.51"/><path d="M-60,572L-7,728L153,587Z" fill="#a3cfbd" stroke="#a3cfbd" stroke-width="1.51"/><path d="M10,1154L-43,1256L143,1266Z" fill="#918b9d" stroke="#918b9d" stroke-width="1.51"/><path d="M1,-249L-11,-14L89,-228Z" fill="#f2fabb" stroke="#f2fabb" stroke-width="1.51"/><path d="M-19,386L-60,572L111,430Z" fill="#afdcbd" stroke="#afdcbd" stroke-width="1.51"/><path d="M-7,728L23,872L82,849Z" fill="#9cbab9" stroke="#9cbab9" stroke-width="1.51"/><path d="M-136,-232L-126,-21L-11,-14Z" fill="#f2fabc" stroke="#f2fabc" stroke-width="1.51"/><path d="M-60,572L-145,675L-7,728Z" fill="#a4cdc3" stroke="#a4cdc3" stroke-width="1.51"/><path d="M-136,-232L-11,-14L1,-249Z" fill="#f5fbc1" stroke="#f5fbc1" stroke-width="1.51"/><path d="M-30,1006L-149,1134L10,1154Z" fill="#9a98b0" stroke="#9a98b0" stroke-width="1.51"/><path d="M-7,728L-145,853L23,872Z" fill="#9ebabd" stroke="#9ebabd" stroke-width="1.51"/><path d="M-145,853L-30,1006L23,872Z" fill="#9caeb9" stroke="#9caeb9" stroke-width="1.51"/><path d="M-26,207L-155,185L-19,386Z" fill="#c9e9be" stroke="#c9e9be" stroke-width="1.51"/><path d="M-155,185L-211,384L-19,386Z" fill="#c1e6c3" stroke="#c1e6c3" stroke-width="1.51"/><path d="M-11,-14L-126,-21L-2,118Z" fill="#e7f5b9" stroke="#e7f5b9" stroke-width="1.51"/><path d="M-149,1134L-43,1256L10,1154Z" fill="#978faa" stroke="#978faa" stroke-width="1.51"/><path d="M-207,541L-60,572L-19,386Z" fill="#addbc5" stroke="#addbc5" stroke-width="1.51"/><path d="M-211,384L-207,541L-19,386Z" fill="#b5dfc6" stroke="#b5dfc6" stroke-width="1.51"/><path d="M-155,185L-26,207L-2,118Z" fill="#d7efbc" stroke="#d7efbc" stroke-width="1.51"/><path d="M-126,-21L-194,85L-2,118Z" fill="#e6f5bd" stroke="#e6f5bd" stroke-width="1.51"/><path d="M-145,675L-145,853L-7,728Z" fill="#a0c4c4" stroke="#a0c4c4" stroke-width="1.51"/><path d="M-194,85L-155,185L-2,118Z" fill="#dff3be" stroke="#dff3be" stroke-width="1.51"/><path d="M-145,853L-179,1001L-30,1006Z" fill="#9ca9ba" stroke="#9ca9ba" stroke-width="1.51"/><path d="M-179,1001L-149,1134L-30,1006Z" fill="#9c9eb6" stroke="#9c9eb6" stroke-width="1.51"/><path d="M-149,1134L-221,1248L-43,1256Z" fill="#968eaa" stroke="#968eaa" stroke-width="1.51"/><path d="M-207,541L-145,675L-60,572Z" fill="#a8d4c8" stroke="#a8d4c8" stroke-width="1.51"/><path d="M-136,-232L-194,85L-126,-21Z" fill="#f2fabf" stroke="#f2fabf" stroke-width="1.51"/><path d="M-145,675L-207,541L-145,853Z" fill="#a5cbc9" stroke="#a5cbc9" stroke-width="1.51"/><path d="M-207,541L-179,1001L-145,853Z" fill="#a1bfc7" stroke="#a1bfc7" stroke-width="1.51"/><path d="M-179,1001L-221,1248L-149,1134Z" fill="#9d96b6" stroke="#9d96b6" stroke-width="1.51"/><path d="M-194,85L-211,384L-155,185Z" fill="#d3eec4" stroke="#d3eec4" stroke-width="1.51"/><path d="M-207,541L-221,1248L-179,1001Z" fill="#9fadc1" stroke="#9fadc1" stroke-width="1.51"/><path d="M-211,384L-221,1248L-207,541Z" fill="#a4c8cb" stroke="#a4c8cb" stroke-width="1.51"/></svg>