<?xml version="1.0" encoding="UTF-8" standalone="no"?>
<svg width="1131px" height="1556px" viewBox="0 0 1131 1556" version="1.1" xmlns="http://www.w3.org/2000/svg" xmlns:xlink="http://www.w3.org/1999/xlink">
    <!-- Generator: Sketch 3.6.1 (26313) - http://www.bohemiancoding.com/sketch -->
    <title>james-tree</title>
    <desc>Created with Sketch.</desc>
    <defs></defs>
    <g id="Page-1" stroke="none" stroke-width="1" fill="none" fill-rule="evenodd">
        <text id="UX-Design" font-family="Lato-Bold, Lato" font-size="36" font-weight="bold" fill="#000000">
            <tspan x="673" y="499">UX Design</tspan>
            <tspan x="673" y="543" font-family="Lato-Regular, Lato" font-size="24" font-weight="normal">General Assembly</tspan>
        </text>
        <text id="B.S.-in-Computer-Sci" font-family="Lato-Bold, Lato" font-size="36" font-weight="bold" fill="#000000">
            <tspan x="673" y="596">B.S. in Computer Science</tspan>
            <tspan x="673" y="640" font-family="Lato-Regular, Lato" font-size="24" font-weight="normal">Gonzaga University</tspan>
        </text>
        <g id="Love" transform="translate(673.000000, 1302.000000)" fill="#000000">
            <path d="M133.685749,5.38265544 C108.446629,-8.56768203 82.0205076,10.7609592 76.8282264,30.1911294 C69.2857908,-8.01302103 -4.05006965,-9.58092639 2.40144186,40.5307191 C4.75568481,58.8297624 20.0490651,76.0372001 32.3790292,89.1132991 C46.3975069,103.983529 59.4293148,112.417238 75.79454,124.26 C96.4737195,110.62447 141.119842,74.2137691 148.155315,45.6984698 C152.866526,26.6076377 143.555172,10.8365948 133.685749,5.38265544 L133.685749,5.38265544 Z" id="Heart" stroke="#000000"></path>
            <text id="I-Love" font-family="Lato-Bold, Lato" font-size="36" font-weight="bold">
                <tspan x="0" y="168">I Love</tspan>
                <tspan x="0" y="212" font-family="Lato-Regular, Lato" font-size="24" font-weight="normal">Psychology, Philosophy, Physics, </tspan>
                <tspan x="0" y="241" font-family="Lato-Regular, Lato" font-size="24" font-weight="normal">Photography, and Video Games</tspan>
            </text>
        </g>
        <g id="Expertise" transform="translate(0.000000, 960.000000)" fill="#000000">
            <path d="M46.9052,34.3679431 C42.1401882,35.6177204 42.3627882,42.6252891 46.6564118,43.9210095 C54.9044588,46.4087678 55.5049176,32.1148673 46.9052,34.3679431 L46.9052,34.3679431 Z" id="Shape"></path>
            <path d="M32.8845176,34.3679431 C29.9221294,35.0695071 28.8147412,37.1884787 29.1932235,40.001564 C29.9514353,45.6246303 39.8605647,45.4973555 39.2813059,38.5313839 C39.0188,35.4010427 36.5327882,33.4993697 32.8845176,34.3679431 L32.8845176,34.3679431 Z" id="Shape"></path>
            <path d="M108.539212,68.686218 C108.743106,66.9211327 106.767765,64.8220284 105.832471,63.5405877 C104.517447,61.7401137 103.255424,60.1097536 102.389341,58.8860521 C100.442059,56.1350521 97.1479529,51.4842417 97.2234,47.86591 C97.2633059,45.8791801 98.4879176,44.5499336 98.7005412,42.9673791 C99.4275765,37.5044929 97.5177059,30.7489905 95.5012118,26.0658957 C88.4241529,9.63563981 69.5499176,-2.19099052 45.3201882,0.594156398 C23.5608824,3.09433175 7.82736471,14.6490284 4.23770588,34.883872 C3.212,40.6764313 3.31550588,46.7607915 3.74823529,52.2739668 C4.6536,63.8193507 9.04387059,72.0444123 14.3251647,79.4605024 C16.7669059,82.8882322 20.8042588,87.0436019 21.4589647,91.218218 C22.0793765,95.1699479 20.9888235,99.1663791 19.9843176,102.484839 C16.7089176,113.296374 10.6126706,118.230294 9.15984706,130.649218 L69.4283294,130.649218 C69.2206941,125.884791 65.9933059,123.06736 65.4901176,118.161379 C64.8279294,111.715062 67.1156588,104.436801 72.3782471,102.976555 C80.2852235,100.783081 94.3071529,107.61681 97.9610353,99.3011043 C98.2802824,95.8001137 97.0625294,93.6600332 97.7172353,90.7277441 C98.2048353,88.5473081 100.097247,87.5707062 100.177059,85.8292133 C100.235671,84.5397014 99.7904706,83.692237 98.7024118,82.8913365 C100.336682,81.5720237 101.896129,80.6183934 101.899871,78.4826588 C101.904235,76.6784597 99.9376235,75.4690379 100.422729,73.3376493 C103.011624,71.6476872 108.155741,72.012128 108.539212,68.686218 L108.539212,68.686218 Z M70.0294118,51.0229479 C67.2179176,59.3994976 59.9182588,66.8373175 49.3637765,67.4345782 C40.3581412,67.9411943 32.7236471,63.0724645 28.9481765,57.1451801 C12.6466235,61.2310142 5.64688235,40.26791 16.8947294,32.40791 C18.3020353,31.4263412 20.0061412,30.9811896 21.815,30.2051232 C22.8525529,19.3271564 30.7177529,10.758763 42.4800118,10.6091374 C49.3008,10.5215972 54.5465529,13.8208104 58.4641882,17.7129384 C71.3843412,12.6945829 83.9073059,20.9575166 83.8019294,33.8774692 C83.7283529,42.9779336 77.8447294,48.5711991 70.0294118,51.0229479 L70.0294118,51.0229479 Z" id="Shape"></path>
            <path d="M60.929,34.3679431 C59.0185059,34.8776635 57.7047294,36.6042559 57.4821294,37.5516777 C55.8890118,44.3270474 65.1303412,46.1293839 67.0738824,41.2265071 C68.9326235,36.5502417 64.7905176,33.3348436 60.929,34.3679431 L60.929,34.3679431 Z" id="Shape"></path>
            <text font-family="Lato-Bold, Lato" font-size="36" font-weight="bold">
                <tspan x="0" y="174">Expertise</tspan>
                <tspan x="153.018" y="174" font-size="24"></tspan>
                <tspan x="0" y="218" font-family="Lato-Regular, Lato" font-size="24" font-weight="normal">User Research &amp; Analytics, Information </tspan>
                <tspan x="0" y="247" font-family="Lato-Regular, Lato" font-size="24" font-weight="normal">Architecture, and Interaction Design</tspan>
            </text>
        </g>
        <g id="Tools" transform="translate(675.000000, 818.630000)" fill="#000000">
            <path d="M27.9525381,46.3488821 C29.9117513,46.5887077 32.4328934,46.4382154 34.4311675,46.8622051 C36.8700761,47.3775897 38.9540102,49.2632103 41.0824873,50.9674154 C47.1122589,55.790041 52.3155838,61.1521026 57.6223858,66.3568 C62.2425381,61.8674564 66.7886802,57.3066462 71.2656091,52.6791795 C65.4146954,46.4210359 59.4034264,41.0280513 53.700533,34.0380615 C52.473198,32.5297026 49.4977157,28.8910872 49.0961421,26.6866154 C48.7151269,24.5962154 48.946066,22.2055179 48.7576142,20.3576923 C48.1168782,14.169641 46.5619797,10.0541231 42.4468782,6.67801026 C37.5327411,2.6532 31.1993909,1.10154872 21.9851269,0.52294359 L17.55,0.52294359 C16.9599746,1.58532308 16.5275635,2.80437949 15.8443401,3.77261538 C21.5342132,7.58646154 28.0080457,10.6121128 33.75,14.3744205 C33.5944416,24.3673846 29.1140863,30.0153128 22.8355584,33.8683282 C16.7119036,30.5458154 10.8328934,26.980041 4.76063452,23.6066769 C3.31469543,25.1768821 4.52010152,26.9896615 5.10258883,28.3956308 C9.04705584,37.9694154 15.9416497,44.8748821 27.9525381,46.3488821 L27.9525381,46.3488821 Z" id="Shape" stroke="#000000"></path>
            <path d="M129.691142,110.733477 L81.3844416,62.2900718 L67.5527665,76.1628513 L116.970305,125.719487 C117.541827,126.482944 118.216142,127.159815 118.97269,127.726738 L118.978858,127.734985 L118.980228,127.732236 C120.592005,128.938236 122.570406,129.654277 124.713959,129.654277 C130.125609,129.654277 134.513452,125.103087 134.513452,119.490205 C134.513452,115.762256 132.578909,112.503651 129.691142,110.733477 L129.691142,110.733477 Z M125.406777,124.081251 C123.286523,124.081251 121.569213,122.358492 121.569213,120.232359 C121.569213,118.1076 123.286523,116.384154 125.406777,116.384154 C127.526345,116.384154 129.243655,118.1076 129.243655,120.232359 C129.243655,122.358492 127.526345,124.081251 125.406777,124.081251 L125.406777,124.081251 Z" id="Shape" stroke="#000000"></path>
            <path d="M62.3980964,76.9579179 C76.321599,62.9978667 90.3012944,49.1498256 104.520838,34.8929128 C106.511574,32.891159 108.790812,29.7088308 110.828147,28.7364718 C111.673782,28.3337846 112.859315,28.1427487 113.897513,27.8829949 C114.900076,27.6321744 116.233629,27.5923179 116.966878,27.1985641 C117.804289,26.7450256 119.509264,24.0993846 120.206878,23.094041 C123.254315,18.7160205 126.185939,14.0095282 129.24434,10.0994769 C127.780584,8.08947692 125.878249,6.52270769 124.128046,4.7972 C118.381294,8.83781538 112.569442,12.8145231 106.90698,16.9382872 C106.312843,18.8342154 106.268985,21.3712821 105.370584,23.2651487 C104.387893,25.3404308 101.321954,27.4981744 99.2332234,29.5933846 C84.8327665,44.0303385 70.1020051,58.9084615 55.919467,73.1956103 C53.747132,71.7277949 51.3753807,70.4558256 49.2695178,68.9213538 C47.8345431,69.8194974 46.8367766,71.1574359 45.6875635,72.3400718 C45.0118782,80.8769026 38.622335,85.7455692 31.1918528,87.3893026 C30.4846447,87.5466667 29.5711675,87.4470256 28.8063959,87.7294564 C27.7640863,88.1184 26.2222081,89.9799692 25.0538071,91.1488615 C16.833198,99.3963897 8.69139594,107.809528 0.496827411,115.778062 L0.496827411,117.484328 C2.62804569,126.291908 8.08629442,131.766667 16.870203,133.898985 L18.5751777,133.898985 C27.7962944,124.396667 37.3182487,115.193272 46.5400508,105.687518 C47.7913706,97.7801436 51.130736,91.9006359 57.2852284,89.4405333 C57.5449492,89.3374564 57.826599,89.1883385 58.1349746,89.0976308 C59.2608883,88.7677846 60.5704569,88.9973026 61.7182995,88.5863692 C63.2238579,88.0421231 64.0139848,86.1661231 65.298198,85.1649026 C63.9495685,82.9858564 62.644797,80.7587077 61.2070812,78.6683077 C61.2063959,77.9598256 61.9814467,77.3770974 62.3980964,76.9579179 L62.3980964,76.9579179 Z" id="Shape" stroke="#000000"></path>
            <text font-family="Lato-Bold, Lato" font-size="36" font-weight="bold">
                <tspan x="0" y="182">Tools</tspan>
                <tspan x="84.168" y="182" font-size="48"></tspan>
                <tspan x="0" y="226" font-family="Lato-Regular, Lato" font-size="24" font-weight="normal">Sketch, Illustrator, Photoshop, Invision, </tspan>
                <tspan x="0" y="255" font-family="Lato-Regular, Lato" font-size="24" font-weight="normal">HTML, CSS, JavaScript, Ruby on Rails, </tspan>
                <tspan x="0" y="284" font-family="Lato-Regular, Lato" font-size="24" font-weight="normal">GIT, and Google Analytics</tspan>
            </text>
        </g>
        <g id="Exp" transform="translate(1.000000, 541.000000)" fill="#000000">
            <path d="M89.068985,15.1125 L76.8143158,15.1125 L76.8143158,34.821875 L58.6204662,34.821875 L58.6204662,45.6075 L76.8143158,45.6075 L76.8143158,65.68875 L89.068985,65.68875 L89.068985,45.6075 L107.632278,45.6075 L107.632278,34.821875 L89.068985,34.821875 L89.068985,15.1125 Z" id="Shape" stroke="#000000"></path>
            <path d="M39.6852331,35.2875 C41.4032707,34.693125 42.9340902,33.946875 44.2733233,33.05125 C45.6119323,32.15875 46.7358647,31.074375 47.6451203,29.7975 C48.5537519,28.52375 49.2420902,27.016875 49.7045188,25.2775 C50.1663233,23.539375 50.3984737,21.526875 50.3984737,19.24125 C50.3984737,16.725625 49.9017218,14.330625 48.9100902,12.06125 C47.9190827,9.7925 46.4612782,7.798125 44.5435414,6.07625 C42.6258045,4.3525 40.2780902,2.98875 37.4997744,1.975625 C34.7220827,0.966875 31.5481128,0.460625 27.9753684,0.460625 C24.6684737,0.460625 21.5768797,0.90125 18.6999624,1.778125 C15.8224211,2.655625 13.2662707,3.988125 11.0358797,5.776875 C8.80174436,7.565625 6.93455639,9.80125 5.42869925,12.48375 C3.92409023,15.16625 2.90687218,18.3125 2.37704511,21.92375 L10.5141654,23.364375 C10.9104436,23.431875 11.298609,23.480625 11.6799098,23.51375 C12.0605865,23.548125 12.4138045,23.565 12.7464286,23.565 C14.1355865,23.565 15.2333083,23.234375 16.0452105,22.571875 C16.8552406,21.909375 17.5248571,20.831875 18.0553083,19.34125 C18.3854361,18.446875 18.8235263,17.61875 19.370203,16.856875 C19.9150075,16.094375 20.5690226,15.433125 21.3303759,14.87 C22.0892331,14.30625 22.9504361,13.86 23.9096165,13.52875 C24.868797,13.196875 25.9278271,13.03 27.0867068,13.03 C29.8968496,13.03 31.9905714,13.8 33.3647519,15.34125 C34.735812,16.883125 35.4278947,19.075625 35.4278947,21.924375 C35.4278947,23.316875 35.2725038,24.591875 34.9423759,25.749375 C34.611,26.90875 33.9607293,27.894375 32.9516241,28.705 C31.944391,29.518125 30.5527368,30.155 28.7011504,30.618125 C26.8495639,31.08375 24.4600376,31.315 21.4888872,31.315 L21.4888872,41.94875 C24.8301053,41.94875 27.7644361,42.186875 29.7676692,42.66625 C31.767782,43.146875 33.1843985,43.833125 34.1772782,44.728125 C35.1695338,45.6225 35.7736241,46.6925 35.9876767,47.934375 C36.2023534,49.17375 36.3109398,50.575 36.3109398,52.13125 C36.3109398,53.321875 36.0956391,54.498125 35.6669098,55.659375 C35.2369323,56.819375 34.5997669,57.855 33.7554135,58.765 C32.9129323,59.678125 31.8539023,60.419375 30.5808195,61.00125 C29.3083609,61.58125 27.8093684,61.871875 26.0925789,61.871875 C23.842218,61.871875 21.8826692,61.25 20.2139323,60.01 C18.5420752,58.76875 16.9663233,56.771875 15.4741955,54.021875 C15.0454662,53.228125 14.4083008,52.624375 13.5658195,52.2075 C12.7208421,51.795 11.7716466,51.586875 10.7126165,51.586875 C10.1503383,51.586875 9.58057143,51.639375 9.00019549,51.73625 C8.42293985,51.835 7.83569925,52.01875 7.23909774,52.281875 L0.393157895,55.065 C1.55203759,58.441875 2.91560902,61.3575 4.48636842,63.810625 C6.05712782,66.2625 7.88375188,68.273125 9.96811278,69.846875 C12.0512256,71.4225 14.4326391,72.579375 17.1111053,73.32625 C19.7908195,74.069375 22.8487143,74.4425 26.2891579,74.4425 C29.6291278,74.4425 32.8374211,73.97375 35.9134135,73.028125 C38.989406,72.08125 41.6934586,70.665 44.0249474,68.77875 C46.355812,66.890625 48.2161353,64.521875 49.6065414,61.673125 C50.9956992,58.825625 51.6890301,55.48 51.6902782,51.6375 C51.6909023,43.519375 47.6881805,38.07125 39.6852331,35.2875 L39.6852331,35.2875 Z" id="Shape" stroke="#000000"></path>
            <path d="M153.673564,62.343125 L153.673564,1.35375 L140.882203,1.35375 L118.359248,20.209375 L123.21818,26.595625 C123.547684,27.025 124.048805,27.431875 124.727782,27.8125 C125.404887,28.19375 126.172481,28.384375 127.032436,28.384375 C127.528564,28.384375 128.033429,28.293125 128.563256,28.11 C129.090586,27.929375 129.605436,27.624375 130.137759,27.190625 L138.289233,20.385 C138.190632,22.34 138.080797,24.209375 138.080797,25.99875 L138.080797,62.343125 L124.340865,62.343125 L124.340865,73.498125 L165.557541,73.498125 L165.557541,62.34375 L153.673564,62.343125 L153.673564,62.343125 L153.673564,62.343125 Z" id="Shape" stroke="#000000"></path>
            <text id="Years-of-Experience" font-family="Lato-Bold, Lato" font-size="36" font-weight="bold">
                <tspan x="2" y="125">Years of Experience</tspan>
                <tspan x="2" y="169" font-family="Lato-Regular, Lato" font-size="24" font-weight="normal">3 years Software Development</tspan>
                <tspan x="2" y="198" font-family="Lato-Regular, Lato" font-size="24" font-weight="normal">1 year Design</tspan>
            </text>
        </g>
        <g id="Grad" transform="translate(673.000000, 352.000000)" fill="#000000" stroke="#000000">
            <path d="M8.10244621,29.8660781 C11.1182248,30.8829663 14.2074865,31.7328473 16.4654236,33.0028441 C16.6940379,45.4816207 16.8046338,61.4742284 16.7252126,74.2885039 C15.3505579,75.0901384 14.3923078,76.3089197 13.5884466,77.6843166 C13.1134039,81.0326251 14.4591107,82.5653799 15.6793765,84.2198643 C14.7166729,88.094431 11.9822086,94.911293 12.8053684,99.8955296 C13.4318309,103.681768 17.8222642,104.264437 20.8914851,103.79756 C25.2485169,103.135469 25.6211284,99.7827069 25.2789493,96.0870236 C24.9865012,92.9161139 24.0275088,89.9033043 23.257049,86.8288876 C23.0180432,85.8765756 23.12567,84.8337085 22.4717441,84.4781688 C23.6667733,82.5943278 25.2967634,80.5575824 24.6138896,77.6843166 C24.1492385,75.7351573 22.2542637,75.1235398 21.5283391,74.025746 L21.5283391,39.2719226 C21.5283391,37.5773564 21.0421626,35.356532 22.0004127,34.5719693 C22.2164087,35.003219 23.9822313,35.3483672 24.0675905,35.3543052 C27.8827768,36.7638458 32.0676057,37.789641 35.5495198,39.5346805 C36.8299082,49.8824455 33.0815248,70.5519966 37.3732383,76.3816606 C38.8666536,78.4028186 41.0837667,79.8331424 43.3038489,80.9405855 C45.3977478,81.9856794 47.3290931,83.4998778 49.5157738,84.3371405 C51.4931388,85.0964665 53.2537656,86.307083 55.2096053,87.1116865 C57.0585603,87.872497 59.0129155,88.4321566 60.9346115,88.9903317 C65.2174179,90.2328651 69.58113,91.1710744 73.9492956,92.0558413 C81.7741387,93.2018817 93.9099939,93.57672 102.953618,93.1009351 C105.776411,92.9509998 108.592523,92.6637475 111.388594,92.2488274 C115.874036,91.5793142 120.297129,90.5535189 124.648965,89.2983672 C126.673092,88.7149554 128.680147,88.0795859 130.679037,87.4152684 C135.249838,85.8891939 139.292154,83.8160781 143.376779,81.2382295 C145.431338,79.9415115 148.015125,78.5906089 149.529324,76.6421918 C150.06152,75.9578335 150.998987,74.0791883 151.229085,73.1105466 C151.652913,71.2823747 151.433205,69.2701237 151.496297,67.4085503 C151.812497,58.0331382 151.367145,48.6510459 151.551224,39.2726648 C151.565327,38.5601008 155.917905,37.640448 156.500574,37.4675028 C159.252111,36.6495387 161.993255,35.7922352 164.715843,34.8837161 C170.284976,33.028823 175.801409,31.0262213 181.355697,29.1171437 C182.026694,28.8848181 188.027819,27.1227068 187.082187,25.9388114 C185.825551,24.3667172 183.572067,24.3303467 181.862656,23.8567886 C156.986009,16.9642166 131.911179,9.9462037 107.394525,2.95416969 C103.374477,1.80738704 99.1881631,0.393392905 95.3766881,0.0794194036 C89.345131,-0.4141796 84.8010511,1.49638256 79.6973116,2.95416969 C74.1511887,4.53591327 68.6065503,6.09984274 63.0574583,7.65412291 C53.1016035,10.4472252 43.1383262,13.2098952 33.1817291,15.9866679 C23.6311451,18.6513603 14.0523554,21.9915039 4.36222759,24.0534859 C2.76044315,24.3941806 0.789758406,24.5166525 1.13686838e-13,26.2089919 C2.00334393,28.2657782 5.1534705,28.8773956 8.10244621,29.8660781 L8.10244621,29.8660781 Z"></path>
        </g>
        <g id="James" transform="translate(0.000000, 1.000000)" fill="#000000">
            <path d="M65.562414,137.277106 C66.9716752,137.104125 69.1575414,137.70163 69.8412994,136.801408 C68.6069363,136.275257 66.6916943,136.922494 65.562414,137.277106 L65.562414,137.277106 Z" id="Shape" stroke="#000000"></path>
            <path d="M57.4782357,137.277106 C58.8234395,137.980562 62.3170828,138.015879 63.6594076,137.277106 C62.6186561,136.890781 61.3965287,136.685366 60.3320255,136.324268 C59.3546115,137.346298 57.8920892,135.461525 57.4782357,137.277106 L57.4782357,137.277106 Z" id="Shape" stroke="#000000"></path>
            <path d="M44.6372611,93.9402868 C45.490879,94.6214 46.2581274,93.6260377 47.2513758,93.701717 C48.129465,93.8761396 49.7308981,94.1507472 49.8690892,93.2260189 C50.3534777,92.6472528 48.9139873,91.9697434 48.6800701,91.3210642 C46.2408535,90.031634 43.9664586,88.5778717 41.0702038,87.748283 C38.1746688,87.5810679 36.4242484,87.6769283 33.4610573,87.748283 C30.8750127,88.2528113 29.5449236,90.0186604 26.803414,90.3689472 C26.0440828,91.3160189 24.4966306,92.3358868 25.3754395,94.1781358 C27.2086306,94.3460717 28.0219427,93.4941396 29.4189682,93.2260189 C30.2862611,92.8238377 30.2877006,91.5560302 31.5587707,91.5589132 C32.5145924,92.029566 32.5757707,93.3968377 33.2228217,94.1781358 C35.0387389,95.0120491 38.7151975,94.7403245 40.5937325,94.1781358 C41.5603503,93.1589887 41.7071783,91.3232264 42.7349745,90.3689472 C43.5583631,90.5758038 44.3824713,90.7819396 44.8740573,91.3210642 C45.5160701,91.788834 46.6640637,91.750634 46.538828,92.9881698 C46.0767516,93.478283 44.7430637,93.0941208 44.6372611,93.9402868 L44.6372611,93.9402868 Z" id="Shape" stroke="#000000"></path>
            <path d="M107.174484,140.849166 C105.506115,141.083411 104.67121,142.15157 104.795006,144.184098 C103.333204,143.669479 104.13572,145.425238 103.610306,145.849762 C102.843777,145.900936 102.601943,145.4274 101.70586,145.612634 C101.300643,146.001842 101.117828,146.607996 100.281484,146.56403 C98.5368217,145.841113 97.1865796,145.447581 95.2864522,145.612634 C94.8589236,144.849355 93.7217261,144.798902 93.1473694,144.184819 C92.2181783,142.73394 92.1094968,140.459958 91.4833185,138.706362 C91.8590255,137.735506 92.0281656,136.554909 91.9583503,135.136464 C91.7309108,134.092811 90.984535,133.570264 91.2436433,132.039381 C89.9999236,130.429936 88.4035287,129.167174 87.441949,127.277355 C85.9657516,126.215683 84.4809172,125.160498 82.9233885,124.181713 C82.1582994,124.131981 81.9171847,124.603355 81.0196624,124.421004 C80.2848025,123.805479 78.7647006,123.979181 78.1658726,123.230317 C77.0617834,123.090491 76.7299809,123.555377 76.0267898,123.230317 C74.8579236,121.699434 72.9225287,120.940479 70.7935223,120.371804 C69.6045032,121.125713 68.8286178,120.535415 67.4654204,120.371804 C65.9568344,121.721057 64.7462229,123.365098 63.1850955,124.656691 C62.3285987,124.595426 62.0392611,125.097792 61.2820892,125.134551 C60.5011656,125.701785 60.5573057,127.105815 59.3805223,127.277355 C58.5247452,125.117253 56.7217834,123.908547 54.8626815,122.752457 C55.0397389,121.703038 54.0918344,121.777275 53.9111783,121.085351 L53.9111783,119.419687 C53.0158153,118.587215 51.9210828,118.008449 50.344121,118.465408 C49.3998153,118.789747 49.0492994,119.708709 47.9668025,119.896106 L45.3519682,119.896106 C43.7159873,121.510596 41.7057389,122.752457 39.6451083,123.942423 C37.9098025,124.033238 36.8683312,124.813094 34.8890318,124.65597 C34.5536306,125.35294 33.5819745,125.412762 32.9860255,125.847377 C32.3137834,126.284155 31.9128854,126.99554 30.8462229,127.037343 C29.9127134,128.403894 28.6495605,129.44106 27.2784459,130.370834 C27.1524904,131.515392 26.5961274,132.228219 26.3283822,133.229347 C25.5740892,133.663962 25.1947834,134.475532 24.1885796,134.656442 C24.2533567,135.914158 23.3126497,136.162098 22.998121,137.039257 C24.0993312,139.074668 24.1072484,141.298196 23.9503439,144.183377 C23.2960955,144.557449 23.1053631,145.397849 22.2870127,145.611192 C20.7971401,144.960351 19.1683567,144.445011 18.7192357,142.752679 C17.4675987,142.497532 16.7291401,141.729928 16.1036815,140.847725 C16.2778599,139.641181 15.5134904,139.37306 15.1528981,138.7042 C15.1053949,137.878215 15.2363885,136.874204 14.4381911,136.800687 C13.551465,136.54554 13.7616306,137.391706 13.0123758,137.276385 C12.5474204,138.635008 12.8684268,140.783577 12.7755796,142.514109 C13.6637452,144.798902 14.4050828,147.230728 15.6279299,149.182532 C16.8075924,153.081815 18.938758,155.734192 20.4430255,159.306974 C20.4430255,159.306974 22.4266433,161.284725 22.7814777,162.277925 C23.4702739,166.825887 26.4536178,170.169468 27.7901847,174.071634 C28.2680955,174.780857 28.5444777,176.200023 29.0043949,176.929426 C30.0638599,179.283411 31.1334013,179.323053 32.1755924,181.692174 C33.589172,182.180125 34.035414,183.958226 35.0286624,184.867819 C35.6152548,186.423208 36.6214586,186.184638 37.541293,187.406317 C38.5762866,187.956253 40.2986369,188.260411 41.7849108,188.360596 C43.5648408,187.543981 44.394707,189.763185 46.3257834,189.78697 C49.7625669,189.833098 52.4695287,189.78697 55.3384331,189.182257 C56.6980318,189.964996 59.3121465,189.49074 60.5709809,190.372943 C62.4883822,190.309517 64.4280955,190.271317 65.8013694,189.660117 C66.2310573,190.228072 67.6633503,189.792736 68.1794076,189.660117 C69.7988344,190.078875 70.7611338,189.735796 72.6979682,189.896525 C74.0079045,189.066215 74.9730828,187.888502 76.978293,187.755162 C79.4873248,186.140672 81.275172,183.801823 84.5874395,182.991694 C85.6109172,181.715238 87.1360573,180.941147 88.1523376,179.659645 C88.7497261,179.461438 89.0880064,179.005921 89.817828,178.945377 C91.2249299,176.782392 93.665586,175.654411 94.0981529,172.514083 C96.4646752,170.202623 97.7299873,166.785525 99.0910255,163.467891 C99.959758,162.911468 100.664389,162.184947 101.467624,161.562936 C101.81886,159.926823 102.883363,159.010743 103.611745,157.753026 C104.13572,156.292777 105.018127,155.192185 105.750828,153.940234 C105.973229,151.169653 107.822975,149.22866 106.938408,146.084728 C107.196076,144.448615 108.159096,142.331038 107.174484,140.849166 L107.174484,140.849166 Z M84.9912166,149.325242 C83.2220828,148.776026 83.0241529,149.129917 82.5951847,150.678098 C82.3065669,151.716706 81.5817834,152.950638 81.7027006,154.059879 C81.7372484,154.34746 82.667879,156.526302 82.6390892,156.530626 C81.9913185,156.63946 81.2319873,155.942491 80.7447197,156.248091 C79.7550701,156.867219 80.2696879,158.545136 78.639465,158.945875 C78.9453567,161.080751 76.9135159,162.334143 74.9608471,161.903853 C73.9409682,161.683302 72.9484395,161.131925 72.0422803,160.631 C71.6507389,160.412611 71.3052611,159.966464 70.8834904,159.836728 C70.5977516,159.751679 70.2162866,160.167555 70.0327516,160.091875 C69.1157962,159.716362 67.1228217,158.327468 66.8298854,157.306158 C66.585172,156.470083 67.3315478,156.238721 67.4186369,155.536706 C67.5316369,154.601887 67.0933121,153.739143 66.5974076,152.937664 C65.9978599,151.96897 65.8625478,152.381242 65.0845032,151.699408 C64.5000701,151.185509 64.3136561,150.523857 63.8652548,149.869411 C62.8331401,148.35943 62.062293,148.040857 60.4061592,147.957249 C59.6014841,147.915445 59.0163312,147.593268 58.2973057,147.511102 C57.1262803,147.379204 56.5828726,147.937789 55.5133312,148.396189 C54.5956561,148.786838 54.0234586,148.864679 53.0827516,148.81783 C51.5964777,148.742151 50.7723694,148.148249 50.3988217,149.997706 C50.1404331,151.271279 51.0998535,152.793513 50.4254522,154.009426 C50.2152866,154.388543 49.4055732,154.240789 49.1327898,154.751804 C48.8600064,155.261377 49.4149299,156.023215 49.0917643,156.570268 C48.1438599,158.163857 44.5674459,157.892853 43.2107261,159.420132 C43.2603885,159.362472 39.5335478,157.643472 39.1931083,157.305438 C38.3524459,156.479453 38.6302675,155.533823 38.1962611,154.479358 C37.7435414,153.378045 37.2555541,153.586343 36.2946943,152.835317 C35.0991975,151.90266 35.4475541,151.297947 35.0423376,150.117351 C34.7328471,149.217849 33.9864713,148.528808 33.8633949,147.390015 C33.6978535,147.489479 33.4473822,147.521192 33.2552102,147.651649 C33.4229108,146.765842 33.2537707,145.843275 33.4301083,144.962513 C33.5575032,144.331132 34.157051,143.595242 34.1736051,142.991249 C34.2405414,140.439057 34.7882675,138.368328 35.8376561,136.801408 C36.1752166,136.820868 36.5127771,136.840328 36.5538025,136.562838 C38.1415605,136.473464 42.2966497,135.943709 40.8319682,135.372872 C39.0873057,134.692479 44.5609682,134.108668 44.6588535,134.657162 C44.6919618,134.853928 46.8929427,134.031547 47.2744076,133.968121 C49.3753439,133.615672 47.8897898,133.743966 49.9669745,133.096008 C50.3491592,131.518275 55.0994777,131.462057 56.5137771,131.204747 C59.1876306,130.721121 61.7160955,132.1338 64.3510828,132.293087 C65.1406433,132.340657 65.8546306,131.836128 66.6758599,132.053796 C67.4510255,132.259211 67.6439172,132.923747 68.2808917,133.235113 C69.6548854,133.90037 71.2793503,134.471208 72.8210446,134.471208 C73.1902739,134.471208 77.4799554,132.962668 76.7378981,132.5158 C77.9074841,133.219257 79.5197134,132.025687 80.0674395,133.230789 C78.8669045,134.648513 81.2139936,132.883385 80.1127834,134.402015 C80.3841274,135.318815 80.1127834,134.402015 81.043414,134.657162 C82.4310828,133.824691 80.1192611,135.983351 82.2058025,135.84857 C83.8691338,135.741177 84.6882038,141.239094 84.5730446,142.282747 C84.4370127,143.464785 84.1476752,144.366449 84.3635987,145.588128 C84.5874395,146.857377 85.224414,147.993287 84.9912166,149.325242 L84.9912166,149.325242 Z" id="Shape" stroke="#000000"></path>
            <path d="M53.1108217,136.291834 L48.8304968,136.767532 C50.2419172,136.598155 52.4270637,137.19494 53.1108217,136.291834 L53.1108217,136.291834 Z" id="Shape" stroke="#000000"></path>
            <path d="M10.873293,117.752581 C10.6832803,118.198008 10.4752739,118.623974 10.3968217,119.180396 C10.6156242,120.689657 10.5206178,121.805385 10.1578662,123.229596 C10.6681656,124.068555 10.6573694,125.428619 10.6343376,126.801657 C11.477879,127.543313 11.1144076,129.495838 11.8233567,130.372275 C12.4041911,126.523445 11.7305096,121.903408 11.3483248,118.229 C11.2972229,117.960158 11.0841783,117.85637 10.873293,117.752581 L10.873293,117.752581 Z" id="Shape" stroke="#000000"></path>
            <path id="Shape" stroke="#000000" d="M50.0613726,133.096008 C49.059664,133.407936 49.8346375,134.045047 50.0613726,133.096008 L50.0613726,133.096008 L50.0613726,133.096008 Z"></path>
            <path d="M45.8262803,77.2721132 C39.5860892,77.2908528 34.3074777,77.5892453 28.4681847,77.0335434 C26.803414,77.6692491 25.2574013,78.421717 22.7613248,78.2256717 C21.6701911,79.0365208 20.2242229,79.4942 19.1949873,80.3684755 C18.5069108,81.9022415 17.3733121,82.9891396 17.5294968,85.3683509 C18.5565732,85.611966 20.5394713,84.9423849 21.8098217,84.6548038 C22.9909236,84.0097283 24.659293,83.8569283 25.8511911,83.2255472 C29.7227006,82.3873094 35.0315414,82.2791962 38.4532102,83.7012453 C42.4046115,83.5852038 45.4332994,85.5629547 49.3911783,84.6555245 C49.9979236,83.2651887 49.2313949,81.3746491 49.1543822,79.8920566 C48.1870446,78.877234 47.3319873,77.7492528 45.8262803,77.2721132 L45.8262803,77.2721132 Z" id="Shape" stroke="#000000"></path>
            <path d="M115.258662,58.2240075 C114.674229,55.3950453 113.930013,52.7282528 113.357815,49.8899208 C112.24221,47.752883 111.246083,45.4954792 110.500427,42.9836491 C108.037459,40.4530792 106.195631,37.2961736 105.74651,32.7453283 C104.53158,30.7870377 103.539771,28.6067547 102.181611,26.7918943 C101.493535,26.1309623 100.254134,26.0235698 99.5667771,25.3633585 C99.4293057,24.0724868 98.5195478,23.5542642 98.1395223,22.5070075 C97.5262994,21.691834 96.6021465,21.1865849 96.2365159,20.1249132 C95.0870828,19.6110151 93.9952293,19.0372943 93.3841656,17.9821094 C93.0725159,16.7070943 92.3736433,15.8191245 91.7215541,14.8871887 C91.4667643,13.4752302 90.5570064,12.717717 90.0560637,11.5536981 C89.1095987,10.7551019 87.9709618,10.1496679 86.9640382,9.40945283 C83.6798408,8.96763019 81.5529936,7.36755472 78.4055478,6.7916717 C77.4741975,6.37291321 77.0481083,5.45034717 76.0267898,5.12528679 C75.1443822,5.29322264 75.0061911,4.71878113 74.1230637,4.88599623 C69.4627134,2.40804151 64.1661083,0.568675472 57.24,0.361098113 C54.9022675,0.800037736 52.5969236,1.26780755 49.8690892,1.3146566 C47.6026115,0.391369811 45.7708599,1.1380717 43.4475223,1.3146566 C41.3149172,1.47610566 39.0657134,1.1157283 37.7413822,1.55322642 C35.1668535,2.7042717 32.837758,4.1032566 29.6564841,4.64886792 C27.5339554,6.09398113 25.1328854,7.26160377 22.9988408,8.69590566 C21.7436051,10.2967019 20.5711401,11.9782226 19.195707,13.4579321 C17.3603567,14.557083 16.0129936,16.1456264 14.4389108,17.5064113 C14.3784522,18.4779887 13.5536242,18.682683 13.7270828,19.8870642 C12.7036051,20.8485509 11.477879,21.6031811 10.6357771,22.7441358 C9.12719108,26.314034 7.82517197,30.0900679 6.11721656,33.4610377 C6.11217834,37.3574377 5.26215924,40.533083 5.87898089,44.4129057 C5.20601911,46.1203736 4.39918471,47.6966642 3.97669427,49.6513509 C3.70678981,52.7772642 4.41070064,54.9308792 4.45244586,57.7483094 C4.15159236,59.1934226 3.40449682,60.1938302 3.49950318,62.0331962 C3.48150955,63.4783094 4.26315287,64.1269887 4.21349045,65.6059774 C3.99180892,66.8125208 3.54700637,67.7949094 3.26198726,68.9387472 C3.21664331,72.3976491 3.78524204,75.2439094 4.21349045,78.2263925 C4.52442038,82.3599208 3.97381529,85.7683698 3.97669427,90.1310981 C4.09401274,91.1242981 3.28214013,91.1819585 3.49950318,92.2746226 C4.25955414,93.5777472 5.46440764,94.4325623 6.11505732,95.8474038 C6.66350318,97.1202566 6.97371338,98.6360038 7.77910828,99.6565925 C8.13682166,100.171211 8.04541401,101.138464 8.73205096,101.323698 C9.00843312,101.998325 9.06097452,102.898547 9.68211465,103.227932 C9.61157962,98.7924075 9.72889809,94.5428377 10.3968217,90.8460868 C10.5263758,88.2888491 10.2183248,86.0804566 10.3968217,83.9405358 C10.7682102,79.450234 12.9857452,76.0944 13.9631592,72.2729585 C14.5022484,67.1404642 12.3559682,63.6541736 13.2498917,58.9382755 C12.9843057,58.1735547 12.5978025,57.5270377 12.5359045,56.5576226 C13.1980701,54.2058 13.6507898,51.6413547 14.2006752,49.1763736 C15.0470955,47.8790151 15.7603631,46.4526415 16.3404777,44.8886038 C17.0695796,44.4287623 17.4172166,43.5869208 18.0052484,42.9865321 C20.1256178,42.2513623 20.8647962,40.1345057 23.9496242,40.3651472 C24.659293,38.9337283 26.4133121,38.5481245 28.2285096,38.2223434 C29.3563503,38.1279245 29.8659299,38.6483094 31.0837389,38.461634 C31.9236815,38.5704679 31.9208025,39.5283509 32.9853057,39.4144717 C33.6741019,38.7845321 31.2320064,38.0126038 32.2720382,37.0330981 C35.2820127,37.3502302 38.7914904,37.171483 40.8319682,38.461634 C42.6198153,38.2583811 43.3230064,39.1398642 45.1115732,38.9387736 C46.3704076,39.0065245 46.8742293,38.3210868 48.202879,38.461634 C49.4818662,38.4501019 49.6207771,39.5802453 50.8177134,39.6516 C53.5045223,39.1650906 56.3475159,38.8400302 58.6650955,37.9844943 C62.2335924,38.0659396 64.4244968,36.7693019 67.2257452,36.0802604 C74.0575669,35.1612981 81.7307707,35.902234 88.8641656,36.0802604 C90.5584459,36.6064113 92.2959108,37.0885962 93.8570382,37.747366 C98.5476178,41.5443019 101.792229,46.7870717 103.843503,53.2255736 C104.515745,54.0609283 105.244847,54.8379019 105.74507,55.8433547 C106.091987,56.3709472 105.907732,57.4318981 106.459777,57.7497509 C106.87507,58.2059887 106.739038,59.215766 107.648076,59.1768453 C108.661478,56.9763811 105.757306,56.4473472 106.697293,54.4148189 C108.462828,54.7658264 108.811904,56.503566 108.839255,57.9876 C110.131917,60.0280566 111.715357,63.0429736 110.976898,66.3216868 C110.092331,66.2532151 110.495389,64.9003585 109.787159,64.6553019 C109.495662,63.9158075 109.066694,63.3139774 108.123108,63.2253245 C107.670389,63.8012075 107.975561,65.1389283 107.885592,66.083117 C107.640879,66.6316113 107.065803,66.8507208 107.173045,67.7495019 C107.149293,68.0154604 107.519962,68.1199698 107.173045,68.2259208 C107.80858,72.3061132 109.013433,76.9571434 109.313567,81.7977321 C109.645369,87.1558226 109.340917,92.6040075 110.976898,97.0373698 C111.952873,96.9040302 111.690885,95.5281094 112.403433,95.1345774 C112.461732,94.0801132 112.889981,93.399 112.881344,92.2767849 C113.321828,91.4508 114.287726,91.1473623 115.020427,90.6089585 C114.913185,89.6056679 113.998389,89.4096226 114.306439,87.9904566 C114.650478,86.987166 115.111834,86.0984755 115.257223,84.8948151 C114.958529,82.7311094 114.148815,81.0820226 113.591732,79.1806717 C113.650032,76.0050264 115.097439,74.2608 114.544675,71.0851547 C114.826096,70.3341283 115.37886,69.8584302 115.496178,68.9416302 C115.600541,66.7750415 115.472427,64.8369321 114.782911,63.4660566 C115.331357,62.1067132 115.29321,60.1642792 115.258662,58.2240075 L115.258662,58.2240075 Z" id="Shape" stroke="#000000"></path>
            <path d="M102.894159,78.2263925 C101.267535,76.9989472 99.3011911,76.1088151 97.1887389,75.3678792 C94.0405732,75.4082415 91.0428344,74.7537962 88.3876943,75.6064491 C84.6450191,74.8323585 79.9083758,75.1761585 75.7885541,75.3678792 C74.1734459,76.2133245 71.8652229,76.3610792 71.5075096,78.4635208 C71.8832166,79.4350981 72.7454713,79.9230491 73.1722803,80.8448943 C73.4904076,81.2405887 74.5189236,80.9241774 74.8363312,81.3191509 C75.3235987,81.4705094 74.9039873,82.5242528 75.7892739,82.2734302 C77.1812611,82.5451547 78.4451338,82.1386491 80.3063949,82.2734302 C81.266535,81.6499774 82.5008981,81.295366 83.6344968,80.8448943 C86.5422675,80.7569623 89.3859809,79.3507698 92.4341019,79.1777887 C95.2245541,79.0199434 97.7825287,79.7897094 100.51828,80.1313472 C101.191962,79.3796 102.729338,79.4905962 102.894159,78.2263925 L102.894159,78.2263925 Z" id="Shape" stroke="#000000"></path>
            <path d="M112.167357,107.512819 C111.863624,107.499125 111.839873,107.207219 111.454089,107.275691 C111.250401,109.826442 110.244197,112.545128 111.215854,114.895509 C110.285943,116.68226 110.301057,118.921645 110.499707,121.323921 C110.132637,122.611189 109.513656,124.657411 109.787879,126.325238 C109.918153,127.107977 110.468758,127.601694 110.499707,128.228751 C110.194535,129.509532 109.387701,130.290109 109.075331,131.563683 C109.484866,132.8214 108.96593,135.006728 110.26651,135.372872 C111.071185,134.748698 111.034478,133.285566 110.978338,131.800091 C111.503032,130.501291 111.911847,129.082125 112.404873,127.752332 C112.167357,126.640928 111.817561,125.645566 111.929841,124.180992 C112.800013,122.353158 112.517873,119.375 112.882783,117.036872 C112.848236,116.197192 112.201904,115.973038 112.167357,115.133358 C112.700688,114.318185 113.516879,113.78843 113.592452,112.513415 C113.257771,110.707204 112.106178,109.71977 112.167357,107.512819 L112.167357,107.512819 Z" id="Shape" stroke="#000000"></path>
            <path d="M89.5795924,87.0354566 C87.860121,86.8509434 86.4918854,86.3168642 84.8249554,86.0840604 C81.9416561,85.8966642 80.1444522,86.7954453 77.9276369,87.2725849 C77.1524713,88.353717 74.5016497,89.3346642 74.1230637,90.6060755 C73.9747962,91.1055585 74.116586,91.189166 74.5988153,92.0346113 C75.6554013,91.982717 75.2357898,90.451834 76.0260701,90.1296566 C77.5735223,89.8543283 77.9463503,88.4020075 79.8277643,88.4632717 C80.4373885,89.7591887 80.7814268,91.3210642 81.2564586,92.7488792 C83.3732293,93.3997208 87.2440191,93.4847698 89.3413567,92.7488792 C89.7674459,91.5099019 89.9128344,89.9891094 91.4797197,89.8918075 C92.8134076,90.4619245 93.0365287,92.1434453 95.2850127,91.7967623 C95.7499682,90.2925472 94.5832611,89.232317 93.1459299,88.9411321 C92.1929873,88.0675774 90.6232229,87.8145925 89.5795924,87.0354566 L89.5795924,87.0354566 Z" id="Shape" stroke="#000000"></path>
            <text id="Hey,-I’m-James" font-family="Lato-Bold, Lato" font-size="36" font-weight="bold">
                <tspan x="0" y="234">Hey, I’m James</tspan>
                <tspan x="0" y="278" font-family="Lato-Regular, Lato" font-size="24" font-weight="normal">UX Designer in Seattle</tspan>
            </text>
        </g>
        <g id="Tree" transform="translate(192.000000, 96.000000)" stroke="#000000" stroke-width="3">
            <circle id="Oval" fill="#000000" cx="19.302" cy="936.302" r="5.302"></circle>
            <path d="M455.603,797.303 C455.603,800.234 453.231,802.606 450.304,802.606 C447.376,802.606 445,800.234 445,797.303 C445,794.377 447.376,792 450.304,792 C453.23,792 455.603,794.377 455.603,797.303 L455.603,797.303 Z" id="Shape" fill="#000000"></path>
            <circle id="Oval" fill="#000000" cx="449.301" cy="317.301" r="5.301"></circle>
            <circle id="Oval" fill="#000000" cx="450.301" cy="1267.301" r="5.301"></circle>
            <path d="M39.225,0.157 C39.225,0.157 37.772,0.157 102.407,0.157 C137.13,0.157 278.725,2.861 278.725,176.223 L278.725,936.657" id="Shape"></path>
            <path d="M278.011,158.384 C278.793,187.443225 275.872,217.371535 291.125,244.183275 C302.79,264.687525 321.79,281.656472 344.194,293.85357 C375.419,310.851572 412.646629,319.78127 449.574629,317.064632" id="Shape"></path>
            <path d="M278.011,617.487 C278.793,650.505483 275.872,684.512461 291.125,714.978138 C302.79,738.273822 321.79,757.556289 344.194,771.415624 C375.419,790.731106 413.46,800.120846 450.388,797.035923" id="Shape"></path>
            <path d="M278.695896,324.838269 C277.746973,353.998149 280.454676,383.819842 261.991838,410.726891 C247.874194,431.302517 229.728429,452.84889 202.610304,465.088957 C164.816801,482.147697 113.923609,485.921873 69.225,483.19738" id="Shape"></path>
            <path d="M39.225,0.157 L0.225,0.157" id="Shape"></path>
            <path d="M278.725,936.657 L278.212,1078.8502 C278.994,1113.40367 275.974,1148.99159 291.227,1180.87257 C302.892,1205.2543 321.84,1225.43217 344.247,1239.93479 C375.47,1260.14823 413.687,1269.84341 450.616,1266.61405" id="Shape"></path>
            <path d="M278.94184,720.657384 C278.905418,721.332652 278.975033,723.88315 278.94184,724.559086 C277.050467,763.074035 278.553,802.405852 254.704528,837.909081 C236.345684,865.532576 204.328091,898.509227 170.137092,914.942628 C133.851246,932.502129 101.325642,936.558051 60.9126387,936.498731 C50.3341888,936.483204 36.2605063,936.862476 24.243065,936.498731 C22.2928474,936.439702 20.3865437,936.617905 18.569,936.498731" id="Shape"></path>
            <circle id="Oval" fill="#000000" cx="70.303" cy="483.303" r="5.303"></circle>
        </g>
    </g>
</svg>