<?xml version="1.0" encoding="UTF-8" standalone="no"?>
<svg width="935px" height="600px" viewBox="0 0 935 600" version="1.1" xmlns="http://www.w3.org/2000/svg" xmlns:xlink="http://www.w3.org/1999/xlink">
    <!-- Generator: Sketch 39.1 (31720) - http://www.bohemiancoding.com/sketch -->
    <title>Logo1Round Copy 4</title>
    <desc>Created with Sketch.</desc>
    <defs></defs>
    <g id="Page-1" stroke="none" stroke-width="1" fill="none" fill-rule="evenodd">
        <g id="Artboard" transform="translate(-3335.000000, -4823.000000)">
            <g id="Logo1Round-Copy-4" transform="translate(3335.000000, 4823.000000)">
                <rect id="Rectangle-1-Copy-2" fill="#FFFFFF" x="0" y="0" width="935" height="600" rx="40"></rect>
                <path d="M468,600 C633.685425,600 768,465.685425 768,300 C768,134.314575 633.685425,0 468,0 C302.314575,0 168,134.314575 168,300 C168,465.685425 302.314575,600 468,600 Z" id="Background" fill="#50E3C2"></path>
                <path d="M250,404 C250,404 315.109059,508 468.5,508 C621.890941,508 687,404 687,404" id="Smile" stroke="#FFFFFF" stroke-width="20" stroke-linecap="round"></path>
                <path d="M591.535614,403.307333 C636.271819,399.428362 649.690739,377.464395 649.690739,377.464395 C649.690739,377.464395 663.05178,362.266742 663.05178,335.857435 C663.05178,309.448127 660.769656,302.470018 639.961086,302.470016 C599.242473,302.470014 613.183162,341.910858 611.346584,353.973724 C609.510006,366.036591 598.389779,372.21575 578.718224,371.934475 C551.942985,370.91144 550.597646,346.610222 551.418176,335.482402 L550.467318,185.415273 C608.161401,185.415273 604.663326,189.456983 604.663326,171.867423 C604.662609,158.531577 608.509227,160.524633 550.467318,160.524633 C550.467318,87.6583219 556.300276,93.0915024 525.610427,93.0915024 C494.920577,93.0915024 501.322661,87.6583226 501.322661,160.524634 L501.322661,335.482398 C501.737231,363.766186 471.396342,363.754312 471.396342,363.754312 C449.242338,363.645371 439.292082,335.482398 439.292082,335.482398 L439.292082,150.729415 C439.292082,88.435191 445.0297,93.0915024 413.620223,93.0915024 C382.210745,93.0915024 387.163139,88.4351892 387.163139,150.729413 L387.163142,262.62558 C387.163142,245.369843 372.999653,233.919189 366.87743,230.685638 C350.940189,222.268128 318.235127,214.706058 289.871164,248.412722 C280.010471,260.130798 273.371754,275.84813 272.270311,302.470016 C271.168869,329.091903 272.765205,347.938125 289.871163,371.988586 C309.686243,399.847992 352.711335,404.609603 371.968739,396.635101 C378.105009,394.094069 382.102448,392.137207 388.922195,386.238892 C395.741943,380.340576 398.611214,374.223999 398.611214,374.223999 C398.611214,374.223999 454.05278,422.553589 501.322669,371.988594 C526.187247,400.560288 564.431981,405.657426 591.535614,403.307333 Z M387.230127,345.024401 C387.230127,345.024401 387.505517,346.028551 387.526305,325.238407 C387.547093,304.448264 387.404144,293.128008 387.404144,293.128008 C387.545202,273.25466 370.240097,263.219662 353.94354,261.524644 C333.067567,259.353317 315.104409,273.254265 312.192676,298.913062 C309.280942,324.571859 317.648028,349.419243 338.342555,358.633035 C357.125316,366.995654 387.056785,357.532377 387.230127,345.024401 Z" id="DTflat" fill="#FFFFFF"></path>
            </g>
        </g>
    </g>
</svg>