<?xml version="1.0" encoding="UTF-8" standalone="no"?>
<svg width="1067px" height="686px" viewBox="0 0 1067 686" version="1.1" xmlns="http://www.w3.org/2000/svg" xmlns:xlink="http://www.w3.org/1999/xlink">
    <!-- Generator: Sketch 39.1 (31720) - http://www.bohemiancoding.com/sketch -->
    <title>TapShades Copy</title>
    <desc>Created with Sketch.</desc>
    <defs></defs>
    <g id="Page-1" stroke="none" stroke-width="1" fill="none" fill-rule="evenodd">
        <g id="Artboard" transform="translate(-149.000000, -7997.000000)">
            <g id="TapShades-Copy" transform="translate(149.000000, 7997.000000)">
                <rect id="Rectangle-1-Copy-2" fill="#FFFFFF" x="0.25" y="0.807486631" width="1066.5" height="684.385027" rx="40"></rect>
                <g id="TapRipple" transform="translate(192.000000, 2.000000)">
                    <circle id="Back" fill="#FFFFFF" cx="341.5" cy="341.5" r="341.5"></circle>
                    <circle id="Large" fill-opacity="0.400000006" fill="#50E3C2" cx="341.5" cy="341.5" r="341.5"></circle>
                    <path d="M341.5,603.472603 C486.183473,603.472603 603.472603,486.183473 603.472603,341.5 C603.472603,196.816527 486.183473,79.5273973 341.5,79.5273973 C196.816527,79.5273973 79.5273973,196.816527 79.5273973,341.5 C79.5273973,486.183473 196.816527,603.472603 341.5,603.472603 Z" id="Med" fill-opacity="0.600000024" fill="#50E3C2"></path>
                    <path d="M342.435616,540.786301 C451.981675,540.786301 540.786301,451.981675 540.786301,342.435616 C540.786301,232.889558 451.981675,144.084932 342.435616,144.084932 C232.889558,144.084932 144.084932,232.889558 144.084932,342.435616 C144.084932,451.981675 232.889558,540.786301 342.435616,540.786301 Z" id="Med-Copy" fill-opacity="0.600000024" fill="#50E3C2"></path>
                    <ellipse id="Small1" fill="#50E3C2" cx="341.967808" cy="341.967808" rx="133.325342" ry="133.325342"></ellipse>
                </g>
                <path d="M627.589845,496.063629 C648.08198,505.835126 670.948793,503.601624 686.029478,497.617436 C701.110163,491.633248 707.217645,484.366868 711.89043,479.775159 C714.309407,477.398152 718.025566,472.72332 721.129726,467.870939 C724.02193,463.349885 726.358104,458.646649 727.272978,456.245564 C729.169773,451.26743 732.203839,447.035986 726.666782,444.308195 C721.129726,441.580404 720.093826,444.550949 718.369857,446.049483 C710.872803,452.566182 706.097367,460.017224 688.438316,460.017224 C670.213952,460.017224 652.516931,446.131763 652.58431,421.399936 L652.58431,248.155977 C711.89043,248.155977 708.031558,248.231452 708.031558,233.743175 C708.031558,219.254898 711.89043,218.1475 652.58431,218.1475 C652.584307,137.919893 658.909138,138 621.717769,138 C584.5264,138 590.674009,138 590.674009,206.573881 L590.674008,426.381115 C586.035118,461.734536 555.069596,460.017222 555.069596,460.017222 C519.138588,460.017211 516.874011,426.381115 516.874011,426.381115 L516.874011,206.573885 C516.874012,138 522.473736,138 486.331281,138 C450.188826,138 453.167508,138 454.854343,206.573883 L454.854346,339.700754 C454.854346,319.170986 438.003538,305.547735 430.719709,301.700663 C411.758604,291.68605 372.848222,282.689185 339.102601,322.791209 C327.370982,336.732623 319.472664,355.432094 318.162238,387.105104 C316.851813,418.778115 318.751031,441.200139 339.1026,469.813833 C362.677309,502.959163 407.808483,508.251631 430.719705,498.764081 C438.020245,495.740924 445.05381,491.67766 453.167508,484.660223 C461.281206,477.642786 468.401847,466.040285 468.401847,466.040285 C468.401847,472.125517 537.530131,533.003404 594.830587,460.017211 C601.889923,473.043707 607.097711,486.292133 627.589845,496.063629 Z M458.503248,437.733577 C458.503248,437.733577 458.83089,438.92825 458.855622,414.193473 C458.880354,389.458696 458.710283,375.990583 458.710283,375.990583 C458.878104,352.346551 438.289602,340.407554 418.901005,338.39093 C394.064114,335.807626 373.920119,354.075751 369.22851,382.873268 C364.5369,411.670786 374.800567,439.183186 397.761303,453.244742 C418.648235,466.036264 458.297016,452.614763 458.503248,437.733577 Z" id="DTShortT" fill="#FFFFFF"></path>
            </g>
        </g>
    </g>
</svg>