<?xml version="1.0" encoding="UTF-8" standalone="no"?>
<svg width="626px" height="626px" viewBox="0 0 626 626" version="1.1" xmlns="http://www.w3.org/2000/svg" xmlns:xlink="http://www.w3.org/1999/xlink">
    <!-- Generator: Sketch 3.8.3 (29802) - http://www.bohemiancoding.com/sketch -->
    <title>Alt1 Copy</title>
    <desc>Created with Sketch.</desc>
    <defs></defs>
    <g id="Page-1" stroke="none" stroke-width="1" fill="none" fill-rule="evenodd">
        <g id="Alt1-Copy" transform="translate(13.000000, 13.000000)">
            <circle id="Circle" stroke="#000000" stroke-width="25" cx="300" cy="300" r="300"></circle>
            <path d="M346.734906,425.429559 L346.734906,223.744569 C394.833003,224.255333 391.604961,226.455033 391.604961,208.693285 C391.604237,195.219195 395.157913,195.90687 346.734906,196.123398 L346.734906,185.322284 C346.734906,117.265008 352.932651,121.527363 319.52661,121.632134 C317.248174,121.513444 314.572231,121.540837 311.432341,121.582966 C307.798499,121.54177 304.73885,121.509832 302.164663,121.640941 C270.637164,121.433523 277.416381,117.340697 277.416381,196.159817 L277.416381,294.799726 C268.937925,285.150178 261.598241,280.934823 249.428484,274.112514 C232.151389,264.427055 191.546843,254.421273 163.431872,293.259637 C156.344576,303.050115 145.703684,329.013299 144.809904,357.008192 C143.96764,383.389512 152.316224,411.572511 163.431872,429.807553 C187.312975,468.984119 243.876863,465.299034 258.381334,457.722484 C273.225515,449.968483 280.95271,442.698955 284.947849,437.523215 C312.19029,462.314986 349.770259,466.797621 377.099202,464.427993 C426.531473,460.141837 441.359009,435.872259 441.359009,435.872259 C441.359009,435.872259 456.122589,419.079273 456.122589,389.897718 C456.122589,360.716163 454.905221,350.429662 431.912325,350.42966 C383.533746,350.429656 398.286201,397.235532 395.040447,412.236117 C391.794693,427.236701 384.672865,430.072652 362.93634,429.761851 C356.167779,429.503236 350.869902,427.898378 346.734906,425.429559 Z" id="Combined-Shape" fill="#000000"></path>
            <path d="M275.07057,380.442585 C277.094484,350.856789 261.764287,321.331993 240.829616,314.497107 C219.894946,307.662221 200.078142,324.877062 196.567545,352.947531 C193.056948,381.017999 208.387145,410.542795 230.808499,418.893009 C253.229852,427.243222 273.046657,410.028381 275.07057,380.442585 L275.07057,380.442585 Z" id="Path" fill="#FFFFFF"></path>
        </g>
    </g>
</svg>