<?xml version="1.0" encoding="UTF-8" standalone="no"?>
<svg width="600px" height="600px" viewBox="0 0 600 600" version="1.1" xmlns="http://www.w3.org/2000/svg" xmlns:xlink="http://www.w3.org/1999/xlink">
    <!-- Generator: Sketch 3.8.3 (29802) - http://www.bohemiancoding.com/sketch -->
    <title>Logo2</title>
    <desc>Created with Sketch.</desc>
    <defs>
        <linearGradient x1="0%" y1="0%" x2="100%" y2="100%" id="linearGradient-1">
            <stop stop-color="#FFFFFF" stop-opacity="0.5" offset="0%"></stop>
            <stop stop-color="#000000" stop-opacity="0.5" offset="100%"></stop>
        </linearGradient>
        <rect id="path-2" x="0" y="0" width="600" height="600" rx="40"></rect>
    </defs>
    <g id="Page-1" stroke="none" stroke-width="1" fill="none" fill-rule="evenodd">
        <g id="Logo2">
            <g id="Rectangle-1-Copy">
                <use fill="#000000" xlink:href="#path-2"></use>
                <use fill-opacity="0.5" fill="url(#linearGradient-1)" xlink:href="#path-2"></use>
            </g>
            <path d="M520.520543,424.362236 L520.313078,424.21826 C520.31576,424.214395 520.286613,424.255587 520.225415,424.340389 C520.100344,424.513699 519.942768,424.727743 519.752467,424.981075 C519.179062,425.744402 518.472032,426.647651 517.629626,427.679267 C515.164016,430.698671 512.135202,434.094032 508.529229,437.773307 C498.116685,448.397515 485.222113,459.063339 469.73006,469.043477 C425.201525,497.729214 368.808184,514.980571 299.374122,514.980571 C229.940061,514.980571 173.546721,497.729214 129.018189,469.043478 C113.526138,459.06334 100.631567,448.397516 90.2190249,437.773308 C86.6130515,434.094033 83.5842379,430.698671 81.1186286,427.679268 C80.276223,426.647651 79.5691933,425.744402 78.9957879,424.981076 C78.8054866,424.727744 78.6479107,424.513699 78.5228404,424.34039 C78.4616422,424.255588 78.4324947,424.214395 78.4351772,424.218261 L78.3826022,424.254747 C76.5540988,422.254585 73.9235615,421 71,421 C65.4771525,421 61,425.477153 61,431 C61,432.641385 61.3954546,434.190406 62.0962853,435.556986 L62.0041378,435.620934 C62.1639689,435.851247 62.4092227,436.192856 62.7409523,436.639794 C62.908184,436.884221 63.0859839,437.120846 63.2736935,437.34901 C63.9495378,438.238669 64.7336337,439.234728 65.6273902,440.329229 C68.4682229,443.808134 71.8986797,447.653746 75.9353184,451.772441 C87.3588105,463.428149 101.399801,475.042241 118.186945,485.856691 C165.884685,516.584064 226.021431,534.980571 299.374122,534.980571 C372.726813,534.980571 432.863561,516.584064 480.561304,485.856691 C497.348449,475.042241 511.389441,463.428149 522.812934,451.772441 C526.849573,447.653746 530.280031,443.808135 533.120864,440.32923 C533.62286,439.714481 534.090262,439.130788 534.523319,438.57956 C536.652174,436.745706 538,434.030254 538,431 C538,425.477153 533.522847,421 528,421 C525.024411,421 522.352369,422.299636 520.520543,424.362236 Z" id="Smile" fill="#FFFFFF"></path>
            <path d="M239.187243,327.68587 L239.300739,327.984771 L238.980318,328.408485 C241.027854,333.760817 243.153508,338.736056 245.548946,343.390028 C260.598318,372.628675 285.648682,388.432567 321.639784,388.432572 C357.777207,388.432577 385.216271,372.443585 404.522793,342.809843 C404.950717,342.153019 405.374283,341.489882 405.793489,340.820515 L405.653064,340.575165 L405.709883,340.477135 C399.33812,329.328695 392.14276,316.445664 387.962133,303.740105 L358.505706,303.740105 L354.029941,296.624571 L358.505698,296.624571 L384.871801,296.624564 C380.048312,280.56092 376.813707,271.093738 372.37225,253.255069 C363.294733,216.796131 364.020105,168.265484 367.691557,139.035712 C372.063978,109.22063 373.279109,111.60626 377.537135,102.623126 C382.509149,92.1336938 393.127219,86.6830267 402.037186,86.218994 C409.881745,84.8581542 417.552551,89.9025849 423.992675,99.5942783 C429.498997,107.880702 434.328383,119.870956 438.187163,134.551447 C446.092442,164.626596 449.349514,203.505332 446.579063,240.76953 C445.106555,260.575615 442.018419,279.370082 437.304783,296.624571 L520.826484,296.624571 L525.302241,305.575243 L520.826484,305.575243 L434.669216,305.575243 C430.641161,318.300568 425.667927,330.077467 419.745147,340.672044 L419.856043,340.893088 L419.814026,340.959365 C420.473577,342.215878 421.14008,343.451532 421.813389,344.665673 C437.628468,373.184141 456.248076,388.432567 476.584202,388.432567 C490.312848,388.432567 504.184556,385.718934 521.02127,380.446147 C525.129528,378.521655 527.662611,378.185129 533.040873,376.413592 C537.734108,375.849226 540.548906,377.89841 543.872763,379.833216 C540.707499,385.315099 537.315702,387.320028 532.969452,389.039787 C529.442796,390.374068 526.754448,391.271213 523.668991,392.644642 C505.996229,397.580109 491.400332,400.366796 476.584202,400.366796 C451.595998,400.366796 430.013057,383.127873 412.513248,352.475428 L412.487442,352.516133 L412.439282,352.431988 C391.087354,383.369687 360.671429,400.366808 321.639782,400.366802 C281.106624,400.366796 252.000768,382.004356 234.936599,348.851264 C233.41184,345.888889 231.934186,342.804947 230.510494,339.608707 L230.416117,339.733508 L230.383673,339.654926 C215.241371,359.306086 199.944477,374.318875 185.854861,382.307059 C149.436853,402.954444 110.757981,403.471593 83.9278081,385.881526 C57.0125843,368.235698 48.1706273,336.25283 63.4950156,303.740096 C69.8460612,290.265506 79.2529337,281.772055 91.1653542,278.175613 C101.44632,275.071719 113.141298,275.727243 125.947064,279.487048 C138.179505,283.078523 151.057374,289.381298 164.151666,297.621514 C170.042117,301.328366 175.682361,305.243258 180.963244,309.199433 C188.275932,313.391883 189.351878,315.325572 194.936961,320.312979 C197.77238,324.094873 197.404967,327.556923 197.391147,331.4026 C191.725209,331.4026 188.380854,329.852842 185.115151,327.445589 C184.052792,326.876622 183.560164,326.459846 182.994153,325.988127 C181.363741,324.629324 179.480798,323.110583 177.373174,321.472161 C171.341389,316.78318 164.739067,312.092209 157.79432,307.721891 C148.787057,302.053635 144.121018,299.365425 131.392366,296.624576 C107.451987,293.714944 88.3809825,305.035219 85.2710595,329.915173 C82.1432513,355.547972 95.7917934,378.176488 117.136445,385.74429 C136.263135,388.520917 158.378531,384.165743 179.967895,371.925537 C193.904748,364.023963 209.550042,347.994223 225.092919,326.840327 L224.869595,326.299419 L225.043433,326.036914 C215.941634,300.975921 210.113648,270.751418 210.113648,238.816111 C210.113648,202.815647 216.342939,171.310711 230.059767,141.795895 C244.70504,110.283325 277.289704,84.0172544 295.264954,86.2567019 C304.852086,87.4511154 311.792336,93.2422506 315.600371,102.623125 C318.876179,110.692889 319.873204,121.409461 318.839055,134.47164 C316.95213,158.305102 308.225952,189.965525 294.483735,224.044724 C279.061306,262.29066 259.507484,298.803052 239.187243,327.68587 Z M414.929849,331.073907 L415.345129,331.901667 C415.222031,331.636523 415.099215,331.370633 414.976681,331.104001 C414.961074,331.094089 414.945466,331.084061 414.929849,331.073907 Z M416.800669,345.712559 L414.143781,349.903466 C414.270629,349.71082 414.397138,349.517667 414.523311,349.324003 C415.296044,348.137929 416.055161,346.933981 416.800669,345.712559 Z M424.904012,296.624571 C429.901027,279.312696 433.167381,260.184053 434.676554,239.88479 C437.35132,203.907627 434.205009,166.35103 426.643846,137.585047 C423.091289,124.069564 418.727735,113.235862 414.051642,106.198845 C412.012721,103.130487 410.077047,100.985695 408.290045,99.6616965 C393.550868,123.163735 387.800352,165.429054 393.059775,208.494652 C395.649559,239.857574 400.901682,271.676922 406.857559,296.624578 L424.904012,296.624571 L424.904012,296.624571 Z M422.110845,305.575243 C419.911799,312.110076 417.446994,318.347699 414.718032,324.249073 C412.840079,318.874113 410.949978,312.581615 409.102161,305.575243 L422.110845,305.575243 L422.110845,305.575243 Z M252.033749,174.122681 C237.958522,223.212112 232.68453,278.522533 239.085864,306.372829 C255.306846,280.983729 270.800038,250.863925 283.414317,219.581891 C296.741271,186.532501 305.164097,155.972704 306.940928,133.529827 C307.841376,122.156405 307.006705,113.184915 304.541309,107.111553 C303.837962,105.378899 303.020902,103.91007 302.073807,102.690206 C284.43802,106.047504 264.463025,132.552332 252.033749,174.122681 Z" id="Combined-Shape" fill="#FFFFFF"></path>
        </g>
    </g>
</svg>