<?xml version="1.0" encoding="UTF-8" standalone="no"?>
<svg width="600px" height="600px" viewBox="0 0 600 600" version="1.1" xmlns="http://www.w3.org/2000/svg" xmlns:xlink="http://www.w3.org/1999/xlink">
    <!-- Generator: Sketch 39.1 (31720) - http://www.bohemiancoding.com/sketch -->
    <title>FlatRed</title>
    <desc>Created with Sketch.</desc>
    <defs></defs>
    <g id="Page-1" stroke="none" stroke-width="1" fill="none" fill-rule="evenodd">
        <g id="Artboard" transform="translate(-2719.000000, -3976.000000)">
            <g id="FlatRed" transform="translate(2719.000000, 3976.000000)">
                <rect id="Rectangle-1" fill="#D0011B" x="0" y="0" width="600" height="600" rx="40"></rect>
                <path d="M380.365322,96.3693623 C380.365322,96.3693623 348.913932,96.1443038 335.705593,96.3693623 C326.807393,96.5209799 351.040406,178.48785 351.040406,178.470096 C351.040406,178.452343 268.665798,96.3693623 268.665798,96.3693623 L221.445751,96.3693623 L225.821479,254.146839 C225.821479,254.146839 210.956885,237.008396 209.432593,237.008396 C207.908301,237.008396 149.236361,263.151376 145.692608,268.114734 C130.589066,289.268657 128.766322,370.638599 128.766323,381.239643 C128.766323,381.239646 258.886597,510.408222 258.886597,510.408222 C258.886597,510.408222 145.199157,465.73534 142.425895,463.691089 C139.652633,461.646839 79.2333439,406.604005 78.8847878,406.603992 C78.6748197,406.603984 82.7374328,423.303534 99.9217165,440.443657 C143.704286,484.11371 226.090613,566.288315 259.581051,599.692688 L561.643563,599.692676 C583.734712,599.692676 599.999956,579.266939 599.999978,561.596485 L600,315.926314 C526.788441,242.740663 453.576882,169.555013 380.365322,96.3693623 Z" id="Combined-Shape" fill-opacity="0.200000003" fill="#000000"></path>
                <path d="M82,404 C82,404 147.109059,508 300.5,508 C453.890941,508 519,404 519,404" id="Smile-Copy-3" stroke="#FFFFFF" stroke-width="20" stroke-linecap="round"></path>
                <path d="M423.535614,403.307333 C468.271819,399.428362 481.690739,377.464395 481.690739,377.464395 C481.690739,377.464395 495.05178,362.266742 495.05178,335.857435 C495.05178,309.448127 492.769656,302.470018 471.961086,302.470016 C431.242473,302.470014 445.183162,341.910858 443.346584,353.973724 C441.510006,366.036591 430.389779,372.21575 410.718224,371.934475 C383.942985,370.91144 382.597646,346.610222 383.418176,335.482402 L382.467318,185.415273 C440.161401,185.415273 436.663326,189.456983 436.663326,171.867423 C436.662609,158.531577 440.509227,160.524633 382.467318,160.524633 C382.467318,87.6583219 388.300276,93.0915024 357.610427,93.0915024 C326.920577,93.0915024 333.322661,87.6583226 333.322661,160.524634 L333.322661,335.482398 C333.737231,363.766186 303.396342,363.754312 303.396342,363.754312 C281.242338,363.645371 271.292082,335.482398 271.292082,335.482398 L271.292082,150.729415 C271.292082,88.435191 277.0297,93.0915024 245.620223,93.0915024 C214.210745,93.0915024 219.163139,88.4351892 219.163139,150.729413 L219.163142,262.62558 C219.163142,245.369843 204.999653,233.919189 198.87743,230.685638 C182.940189,222.268128 150.235127,214.706058 121.871164,248.412722 C112.010471,260.130798 105.371754,275.84813 104.270311,302.470016 C103.168869,329.091903 104.765205,347.938125 121.871163,371.988586 C141.686243,399.847992 184.711335,404.609603 203.968739,396.635101 C210.105009,394.094069 214.102448,392.137207 220.922195,386.238892 C227.741943,380.340576 230.611214,374.223999 230.611214,374.223999 C230.611214,374.223999 286.05278,422.553589 333.322669,371.988594 C358.187247,400.560288 396.431981,405.657426 423.535614,403.307333 Z M219.230127,345.024401 C219.230127,345.024401 219.505517,346.028551 219.526305,325.238407 C219.547093,304.448264 219.404144,293.128008 219.404144,293.128008 C219.545202,273.25466 202.240097,263.219662 185.94354,261.524644 C165.067567,259.353317 147.104409,273.254265 144.192676,298.913062 C141.280942,324.571859 149.648028,349.419243 170.342555,358.633035 C189.125316,366.995654 219.056785,357.532377 219.230127,345.024401 Z" id="DTflat-Copy" fill="#FFFFFF"></path>
            </g>
        </g>
    </g>
</svg>