<?xml version="1.0" encoding="UTF-8" standalone="no"?>
<svg width="600px" height="600px" viewBox="0 0 600 600" version="1.1" xmlns="http://www.w3.org/2000/svg" xmlns:xlink="http://www.w3.org/1999/xlink">
    <!-- Generator: Sketch 39.1 (31720) - http://www.bohemiancoding.com/sketch -->
    <title>Logo1Round Copy 3</title>
    <desc>Created with Sketch.</desc>
    <defs></defs>
    <g id="Page-1" stroke="none" stroke-width="1" fill="none" fill-rule="evenodd">
        <g id="Artboard" transform="translate(-2705.000000, -3223.000000)">
            <g id="Logo1Round-Copy-3" transform="translate(2705.000000, 3223.000000)">
                <path d="M300,600 C465.685425,600 600,465.685425 600,300 C600,134.314575 465.685425,0 300,0 C134.314575,0 0,134.314575 0,300 C0,465.685425 134.314575,600 300,600 Z" id="Background" fill="#50E3C2"></path>
                <path d="M82,398 C82,398 147.109059,502 300.5,502 C453.890941,502 519,398 519,398" id="Smile" stroke="#FFFFFF" stroke-width="20" stroke-linecap="round"></path>
                <path d="M423.535614,397.307333 C468.271819,393.428362 481.690739,371.464395 481.690739,371.464395 C481.690739,371.464395 495.05178,356.266742 495.05178,329.857435 C495.05178,303.448127 492.769656,296.470018 471.961086,296.470016 C431.242473,296.470014 445.183162,335.910858 443.346584,347.973724 C441.510006,360.036591 430.389779,366.21575 410.718224,365.934475 C383.942985,364.91144 382.597646,340.610222 383.418176,329.482402 L382.467318,179.415273 C440.161401,179.415273 436.663326,183.456983 436.663326,165.867423 C436.662609,152.531577 440.509227,154.524633 382.467318,154.524633 C382.467318,81.6583219 388.300276,87.0915024 357.610427,87.0915024 C326.920577,87.0915024 333.322661,81.6583226 333.322661,154.524634 L333.322661,329.482398 C333.737231,357.766186 303.396342,357.754312 303.396342,357.754312 C281.242338,357.645371 271.292082,329.482398 271.292082,329.482398 L271.292082,144.729415 C271.292082,82.435191 277.0297,87.0915024 245.620223,87.0915024 C214.210745,87.0915024 219.163139,82.4351892 219.163139,144.729413 L219.163142,256.62558 C219.163142,239.369843 204.999653,227.919189 198.87743,224.685638 C182.940189,216.268128 150.235127,208.706058 121.871164,242.412722 C112.010471,254.130798 105.371754,269.84813 104.270311,296.470016 C103.168869,323.091903 104.765205,341.938125 121.871163,365.988586 C141.686243,393.847992 184.711335,398.609603 203.968739,390.635101 C210.105009,388.094069 214.102448,386.137207 220.922195,380.238892 C227.741943,374.340576 230.611214,368.223999 230.611214,368.223999 C230.611214,368.223999 286.05278,416.553589 333.322669,365.988594 C358.187247,394.560288 396.431981,399.657426 423.535614,397.307333 Z M219.230127,339.024401 C219.230127,339.024401 219.505517,340.028551 219.526305,319.238407 C219.547093,298.448264 219.404144,287.128008 219.404144,287.128008 C219.545202,267.25466 202.240097,257.219662 185.94354,255.524644 C165.067567,253.353317 147.104409,267.254265 144.192676,292.913062 C141.280942,318.571859 149.648028,343.419243 170.342555,352.633035 C189.125316,360.995654 219.056785,351.532377 219.230127,339.024401 Z" id="DTflat" fill="#FFFFFF"></path>
            </g>
        </g>
    </g>
</svg>