<?xml version="1.0" encoding="UTF-8" standalone="no"?>
<svg width="457px" height="448px" viewBox="0 0 457 448" version="1.1" xmlns="http://www.w3.org/2000/svg" xmlns:xlink="http://www.w3.org/1999/xlink">
    <!-- Generator: Sketch 39.1 (31720) - http://www.bohemiancoding.com/sketch -->
    <title>NeedleFinal Copy</title>
    <desc>Created with Sketch.</desc>
    <defs></defs>
    <g id="Page-1" stroke="none" stroke-width="1" fill="none" fill-rule="evenodd">
        <g id="Artboard" transform="translate(-4664.000000, -6684.000000)">
            <g id="NeedleFinal-Copy" transform="translate(4674.000000, 6684.000000)">
                <path d="M0,334 C0,334 65.1090589,438 218.5,438 C371.890941,438 437,334 437,334" id="Line" stroke="#50E3C2" stroke-width="20" stroke-linecap="round"></path>
                <path d="M299.32117,175 C299.363628,179.025672 299.397294,182.783698 299.418182,186.080368 C299.585882,212.547279 299.418176,265.482402 299.418176,265.482402 C298.597646,276.610222 299.942985,300.91144 326.718224,301.934475 C346.389779,302.21575 357.510006,296.036591 359.346584,283.973724 C361.183162,271.910858 347.242473,232.470014 387.961086,232.470016 C408.769656,232.470018 411.05178,239.448127 411.05178,265.857435 C411.05178,292.266742 397.690739,307.464395 397.690739,307.464395 C397.690739,307.464395 384.271819,329.428362 339.535614,333.307333 C312.431981,335.657426 274.187247,330.560288 249.322669,301.988594 C202.05278,352.553589 146.611214,304.223999 146.611214,304.223999 C146.611214,304.223999 143.741943,310.340576 136.922195,316.238892 C130.102448,322.137207 126.105009,324.094069 119.968739,326.635101 C100.711335,334.609603 57.6862428,329.847992 37.871163,301.988586 C20.7652052,277.938125 19.1688691,259.091903 20.2703115,232.470016 C21.3717539,205.84813 28.0104705,190.130798 37.8711636,178.412722 C66.2351266,144.706058 98.9401886,152.268128 114.87743,160.685638 C120.999653,163.919189 135.163142,175.369843 135.163142,192.62558 L135.163139,80.729413 C135.163139,18.4351892 130.210745,23.0915024 161.620223,23.0915024 C193.0297,23.0915024 187.292082,18.435191 187.292082,80.7294147 L187.292082,265.482398 C187.292082,265.482398 197.242338,293.645371 219.396342,293.754312 C219.396342,293.754312 249.737231,293.766186 249.322661,265.482398 L249.322661,175 L299.32117,175 Z M135.230127,275.024401 C135.230127,275.024401 135.505517,276.028551 135.526305,255.238407 C135.547093,234.448264 135.404144,223.128008 135.404144,223.128008 C135.545202,203.25466 118.240097,193.219662 101.94354,191.524644 C81.0675674,189.353317 63.1044094,203.254265 60.1926758,228.913062 C57.2809422,254.571859 65.6480276,279.419243 86.3425548,288.633035 C105.125316,296.995654 135.056785,287.532377 135.230127,275.024401 Z" id="Combined-Shape" fill="#50E3C2"></path>
                <g id="space-needle-copy" transform="translate(199.000000, 0.000000)" fill="#50E3C2">
                    <g id="Group" transform="translate(0.000000, 23.000000)">
                        <path d="M140.022321,72.9247564 C140.022321,72.9247564 149.357143,69.5973324 149.357143,65.4933237 C149.357143,61.389315 140.022321,58.061891 140.022321,58.061891 L9.33482143,58.061891 C9.33482143,58.061891 0,61.389315 0,65.4933237 C0,69.5973324 9.33482143,72.9247564 9.33482143,72.9247564 L140.022321,72.9247564 Z" id="Shape"></path>
                        <path d="M93.3482143,46.7809455 C93.3482143,46.7809455 102.683036,42.5917118 102.683036,37.4247564 C102.683036,32.257801 93.3482143,28.0685673 93.3482143,28.0685673 L84.0133929,28.0685673 L84.0133929,9.3561891 C84.0133929,9.3561891 79.8337266,0 74.6785714,0 C69.5234163,0 65.34375,9.3561891 65.34375,9.3561891 L65.34375,28.0685673 L56.0089286,28.0685673 C56.0089286,28.0685673 46.6741071,32.257801 46.6741071,37.4247564 C46.6741071,42.5917118 56.0089286,46.7809455 56.0089286,46.7809455 L93.3482143,46.7809455 Z" id="Shape"></path>
                        <path d="M93.3482143,215.192349 C93.3482143,188.894441 105.867377,124.758934 110.292082,102.91808 L121.352679,102.91808 C121.352679,102.91808 130.6875,98.7288464 130.6875,93.561891 C130.6875,88.3949356 121.352679,84.2057019 121.352679,84.2057019 L102.777551,84.2057019 L46.683442,84.2057019 L28.0044643,84.2057019 C28.0044643,84.2057019 18.6696429,88.3949356 18.6696429,93.561891 C18.6696429,98.7288464 28.0044643,102.91808 28.0044643,102.91808 L39.0650608,102.91808 C43.4897662,124.758934 56.0089286,188.894441 56.0089286,215.192349 C56.0089286,239.089226 93.3482143,239.089226 93.3482143,215.192349 Z M84.0133929,141.07028 L84.0133929,102.91808 L91.2362109,102.91808 C89.3937506,112.088315 86.697154,125.908576 84.0133929,141.07028 L84.0133929,141.07028 Z M65.34375,102.91808 L65.34375,141.07028 C62.6599888,125.908576 59.9633923,112.088315 58.1209319,102.91808 L65.34375,102.91808 L65.34375,102.91808 Z" id="Shape"></path>
                    </g>
                    <path d="M74.6785714,14.1971339 C78.4910269,14.1971339 81.5816327,11.1004945 81.5816327,7.28059627 C81.5816327,3.46069801 78.4910269,0.364058631 74.6785714,0.364058631 C70.866116,0.364058631 67.7755102,3.46069801 67.7755102,7.28059627 C67.7755102,11.1004945 70.866116,14.1971339 74.6785714,14.1971339 Z" id="Oval"></path>
                </g>
            </g>
        </g>
    </g>
</svg>