<?xml version="1.0" encoding="UTF-8" standalone="no"?>
<svg width="623px" height="623px" viewBox="0 0 623 623" version="1.1" xmlns="http://www.w3.org/2000/svg" xmlns:xlink="http://www.w3.org/1999/xlink">
    <!-- Generator: Sketch 3.8.3 (29802) - http://www.bohemiancoding.com/sketch -->
    <title>Alt2</title>
    <desc>Created with Sketch.</desc>
    <defs></defs>
    <g id="Page-1" stroke="none" stroke-width="1" fill="none" fill-rule="evenodd">
        <g id="Alt2" transform="translate(5.000000, 5.000000)">
            <path d="M239.187243,341.106834 L239.300739,341.405735 L238.980318,341.829449 C241.027854,347.181781 243.153508,352.15702 245.548946,356.810993 C260.598318,386.04964 285.648682,401.853531 321.639784,401.853536 C357.777207,401.853542 385.216271,385.864549 404.522793,356.230808 C404.950717,355.573983 405.374283,354.910846 405.793489,354.241479 L405.653064,353.996129 L405.709883,353.898099 C399.33812,342.74966 392.14276,329.866628 387.962133,317.161069 L358.505706,317.161069 L354.029941,310.045535 L358.505698,310.045535 L384.871801,310.045529 C380.048312,293.981884 376.813707,284.514702 372.37225,266.676034 C363.294733,230.217096 364.020105,181.686448 367.691557,152.456676 C372.063978,122.641594 373.279109,125.027224 377.537135,116.04409 C382.509149,105.554658 393.127219,100.103991 402.037186,99.6399583 C409.881745,98.2791185 417.552551,103.323549 423.992675,113.015243 C429.498997,121.301666 434.328383,133.291921 438.187163,147.972411 C446.092442,178.047561 449.349514,216.926297 446.579063,254.190495 C445.106555,273.996579 442.018419,292.791046 437.304783,310.045535 L520.826484,310.045535 L525.302241,318.996208 L520.826484,318.996208 L434.669216,318.996208 C430.641161,331.721532 425.667927,343.498431 419.745147,354.093008 L419.856043,354.314053 L419.814026,354.38033 C420.473577,355.636842 421.14008,356.872496 421.813389,358.086638 C437.628468,386.605105 456.248076,401.853531 476.584202,401.853531 C490.312848,401.853531 504.184556,399.139899 521.02127,393.867111 C525.129528,391.942619 527.662611,391.606093 533.040873,389.834557 C537.734108,389.27019 540.548906,391.319374 543.872763,393.25418 C540.707499,398.736064 537.315702,400.740993 532.969452,402.460752 C529.442796,403.795032 526.754448,404.692177 523.668991,406.065607 C505.996229,411.001073 491.400332,413.787761 476.584202,413.787761 C451.595998,413.787761 430.013057,396.548837 412.513248,365.896392 L412.487442,365.937097 L412.439282,365.852952 C391.087354,396.790651 360.671429,413.787772 321.639782,413.787766 C281.106624,413.78776 252.000768,395.425321 234.936599,362.272228 C233.41184,359.309854 231.934186,356.225911 230.510494,353.029671 L230.416117,353.154473 L230.383673,353.075891 C215.241371,372.727051 199.944477,387.739839 185.854861,395.728023 C149.436853,416.375408 110.757981,416.892557 83.9278081,399.30249 C57.0125843,381.656662 48.1706273,349.673795 63.4950156,317.16106 C69.8460612,303.68647 79.2529337,295.193019 91.1653542,291.596577 C101.44632,288.492683 113.141298,289.148207 125.947064,292.908012 C138.179505,296.499487 151.057374,302.802262 164.151666,311.042479 C170.042117,314.74933 189.239588,330.024511 194.520471,333.980686 C201.833159,338.173137 202.909105,340.106825 208.494188,345.094232 C211.329607,348.876127 210.962194,352.338176 210.948374,356.183854 C205.282437,356.183854 201.938082,354.634095 198.672379,352.226842 C197.610019,351.657875 197.117391,351.241099 196.551381,350.76938 C194.920968,349.410578 193.038025,347.891837 190.930401,346.253415 C184.898616,341.564433 164.739067,325.513173 157.79432,321.142855 C148.787057,315.474599 144.121018,312.786389 131.392366,310.045541 C107.451987,307.135908 88.3809825,318.456183 85.2710595,343.336138 C82.1432513,368.968937 95.7917934,391.597452 117.136445,399.165255 C136.263135,401.941881 158.378531,397.586707 179.967895,385.346502 C193.904748,377.444928 209.550042,361.415187 225.092919,340.261291 L224.869595,339.720383 L225.043433,339.457878 C215.941634,314.396885 210.113648,284.172382 210.113648,252.237075 C210.113648,216.236611 216.342939,184.731675 230.059767,155.216859 C244.70504,123.704289 277.289704,97.4382187 295.264954,99.6776662 C304.852086,100.87208 311.792336,106.663215 315.600371,116.04409 C318.876179,124.113854 319.873204,134.830425 318.839055,147.892604 C316.95213,171.726066 308.225952,203.386489 294.483735,237.465688 C279.061306,275.711625 259.507484,312.224016 239.187243,341.106834 Z M414.929849,344.494871 L415.345129,345.322631 C415.222031,345.057487 415.099215,344.791597 414.976681,344.524965 C414.961074,344.515054 414.945466,344.505025 414.929849,344.494871 Z M416.800669,359.133524 L414.143781,363.32443 C414.270629,363.131784 414.397138,362.938632 414.523311,362.744967 C415.296044,361.558893 416.055161,360.354945 416.800669,359.133524 Z M424.904012,310.045535 C429.901027,292.73366 433.167381,273.605017 434.676554,253.305755 C437.35132,217.328591 434.205009,179.771995 426.643846,151.006012 C423.091289,137.490528 418.727735,126.656826 414.051642,119.619809 C412.012721,116.551452 410.077047,114.406659 408.290045,113.082661 C393.550868,136.584699 387.800352,178.850018 393.059775,221.915617 C395.649559,253.278538 400.901682,285.097886 406.857559,310.045542 L424.904012,310.045535 L424.904012,310.045535 Z M422.110845,318.996208 C419.911799,325.53104 417.446994,331.768663 414.718032,337.670037 C412.840079,332.295077 410.949978,326.002579 409.102161,318.996208 L422.110845,318.996208 L422.110845,318.996208 Z M252.033749,187.543645 C237.958522,236.633076 232.68453,291.943497 239.085864,319.793793 C255.306846,294.404693 270.800038,264.284889 283.414317,233.002856 C296.741271,199.953466 305.164097,169.393669 306.940928,146.950791 C307.841376,135.577369 307.006705,126.605879 304.541309,120.532518 C303.837962,118.799864 303.020902,117.331034 302.073807,116.11117 C284.43802,119.468468 264.463025,145.973296 252.033749,187.543645 Z" id="Cursive" fill="#000000"></path>
            <path d="M536.475389,394.137074 C536.475389,394.137074 562.838268,385.840404 588.818859,352.407482 C614.79945,318.97456 611.010943,306.246143 612.066784,294.71339 C619.249584,216.257015 533.181867,8.51788487 317.928587,0.270842752 C102.675306,-7.97619937 0.128795578,174.090875 0.128795578,317.843092 C0.128795579,461.595309 129.751064,612.588451 296.682142,612.588455 C463.61322,612.588459 552.680614,515.177929 588.818838,432.216269" id="Path-35" stroke="#000000" stroke-width="10"></path>
        </g>
    </g>
</svg>