<?xml version="1.0" encoding="UTF-8" standalone="no"?>
<svg width="601px" height="600px" viewBox="0 0 601 600" version="1.1" xmlns="http://www.w3.org/2000/svg" xmlns:xlink="http://www.w3.org/1999/xlink">
    <!-- Generator: Sketch 39.1 (31720) - http://www.bohemiancoding.com/sketch -->
    <title>FlatGreen</title>
    <desc>Created with Sketch.</desc>
    <defs></defs>
    <g id="Page-1" stroke="none" stroke-width="1" fill="none" fill-rule="evenodd">
        <g id="Artboard" transform="translate(-5017.000000, -3976.000000)">
            <g id="FlatGreen" transform="translate(5017.000000, 3976.000000)">
                <rect id="Rectangle-1" fill="#50E3C2" x="0" y="0" width="600" height="600" rx="40"></rect>
                <path d="M380.488147,96.100026 C380.488147,96.100026 349.036756,95.8749675 335.828418,96.100026 C326.930218,96.2516435 351.16323,178.218513 351.16323,178.20076 C351.16323,178.183006 268.788623,96.100026 268.788623,96.100026 L221.568576,96.100026 L225.944303,253.877502 C225.944303,253.877502 211.07971,236.739059 209.555418,236.739059 C208.031126,236.739059 149.359186,262.88204 145.815433,267.845398 C130.711891,288.999321 128.889146,370.369263 128.889148,380.970306 C128.889148,380.97031 259.009421,510.138885 259.009421,510.138885 C259.009421,510.138885 145.321982,465.466003 142.54872,463.421753 C139.775458,461.377502 79.3561685,406.334669 79.0076124,406.334656 C78.7976443,406.334648 82.8602573,423.034198 100.044541,440.17432 C143.82711,483.844374 226.213437,566.018979 259.703876,599.423352 L561.766388,599.42334 C583.857537,599.42334 600.122781,578.997603 600.122803,561.327148 L600.122825,315.656978 C526.911265,242.471327 453.699706,169.285677 380.488147,96.100026 Z" id="Combined-Shape" fill-opacity="0.200000003" fill="#000000"></path>
                <path d="M82,404 C82,404 147.109059,508 300.5,508 C453.890941,508 519,404 519,404" id="Smile-Copy-3" stroke="#FFFFFF" stroke-width="20" stroke-linecap="round"></path>
                <path d="M423.535614,403.307333 C468.271819,399.428362 481.690739,377.464395 481.690739,377.464395 C481.690739,377.464395 495.05178,362.266742 495.05178,335.857435 C495.05178,309.448127 492.769656,302.470018 471.961086,302.470016 C431.242473,302.470014 445.183162,341.910858 443.346584,353.973724 C441.510006,366.036591 430.389779,372.21575 410.718224,371.934475 C383.942985,370.91144 382.597646,346.610222 383.418176,335.482402 L382.467318,185.415273 C440.161401,185.415273 436.663326,189.456983 436.663326,171.867423 C436.662609,158.531577 440.509227,160.524633 382.467318,160.524633 C382.467318,87.6583219 388.300276,93.0915024 357.610427,93.0915024 C326.920577,93.0915024 333.322661,87.6583226 333.322661,160.524634 L333.322661,335.482398 C333.737231,363.766186 303.396342,363.754312 303.396342,363.754312 C281.242338,363.645371 271.292082,335.482398 271.292082,335.482398 L271.292082,150.729415 C271.292082,88.435191 277.0297,93.0915024 245.620223,93.0915024 C214.210745,93.0915024 219.163139,88.4351892 219.163139,150.729413 L219.163142,262.62558 C219.163142,245.369843 204.999653,233.919189 198.87743,230.685638 C182.940189,222.268128 150.235127,214.706058 121.871164,248.412722 C112.010471,260.130798 105.371754,275.84813 104.270311,302.470016 C103.168869,329.091903 104.765205,347.938125 121.871163,371.988586 C141.686243,399.847992 184.711335,404.609603 203.968739,396.635101 C210.105009,394.094069 214.102448,392.137207 220.922195,386.238892 C227.741943,380.340576 230.611214,374.223999 230.611214,374.223999 C230.611214,374.223999 286.05278,422.553589 333.322669,371.988594 C358.187247,400.560288 396.431981,405.657426 423.535614,403.307333 Z M219.230127,345.024401 C219.230127,345.024401 219.505517,346.028551 219.526305,325.238407 C219.547093,304.448264 219.404144,293.128008 219.404144,293.128008 C219.545202,273.25466 202.240097,263.219662 185.94354,261.524644 C165.067567,259.353317 147.104409,273.254265 144.192676,298.913062 C141.280942,324.571859 149.648028,349.419243 170.342555,358.633035 C189.125316,366.995654 219.056785,357.532377 219.230127,345.024401 Z" id="DTflat-Copy" fill="#FFFFFF"></path>
            </g>
        </g>
    </g>
</svg>