<?xml version="1.0" encoding="UTF-8" standalone="no"?>
<svg width="935px" height="600px" viewBox="0 0 935 600" version="1.1" xmlns="http://www.w3.org/2000/svg" xmlns:xlink="http://www.w3.org/1999/xlink">
    <!-- Generator: Sketch 39.1 (31720) - http://www.bohemiancoding.com/sketch -->
    <title>Logo1Round Copy 4</title>
    <desc>Created with Sketch.</desc>
    <defs></defs>
    <g id="Page-1" stroke="none" stroke-width="1" fill="none" fill-rule="evenodd">
        <g id="Artboard" transform="translate(-3335.000000, -4823.000000)">
            <g id="Logo1Round-Copy-4" transform="translate(3335.000000, 4823.000000)">
                <rect id="Rectangle-1-Copy-2" fill="#FFFFFF" x="0" y="0" width="935" height="600" rx="40"></rect>
                <g id="Group-3" transform="translate(168.000000, 0.000000)">
                    <path d="M300,600 C465.685425,600 600,465.685425 600,300 C600,134.314575 465.685425,0 300,0 C134.314575,0 0,134.314575 0,300 C0,465.685425 134.314575,600 300,600 Z" id="Background" fill="#50E3C2"></path>
                    <path d="M521.520543,401.362236 L521.313078,401.21826 C521.31576,401.214395 521.286613,401.255587 521.225415,401.340389 C521.100344,401.513699 520.942768,401.727743 520.752467,401.981075 C520.179062,402.744402 519.472032,403.647651 518.629626,404.679267 C516.164016,407.698671 513.135202,411.094032 509.529229,414.773307 C499.116685,425.397515 486.222113,436.063339 470.73006,446.043477 C426.201525,474.729214 369.808184,491.980571 300.374122,491.980571 C230.940061,491.980571 174.546721,474.729214 130.018189,446.043478 C114.526138,436.06334 101.631567,425.397516 91.2190249,414.773308 C87.6130515,411.094033 84.5842379,407.698671 82.1186286,404.679268 C81.276223,403.647651 80.5691933,402.744402 79.9957879,401.981076 C79.8054866,401.727744 79.6479107,401.513699 79.5228404,401.34039 C79.4616422,401.255588 79.4324947,401.214395 79.4351772,401.218261 L79.3826022,401.254747 C77.5540988,399.254585 74.9235615,398 72,398 C66.4771525,398 62,402.477153 62,408 C62,409.641385 62.3954546,411.190406 63.0962853,412.556986 L63.0041378,412.620934 C63.1639689,412.851247 63.4092227,413.192856 63.7409523,413.639794 C63.908184,413.884221 64.0859839,414.120846 64.2736935,414.34901 C64.9495378,415.238669 65.7336337,416.234728 66.6273902,417.329229 C69.4682229,420.808134 72.8986797,424.653746 76.9353184,428.772441 C88.3588105,440.428149 102.399801,452.042241 119.186945,462.856691 C166.884685,493.584064 227.021431,511.980571 300.374122,511.980571 C373.726813,511.980571 433.863561,493.584064 481.561304,462.856691 C498.348449,452.042241 512.389441,440.428149 523.812934,428.772441 C527.849573,424.653746 531.280031,420.808135 534.120864,417.32923 C534.62286,416.714481 535.090262,416.130788 535.523319,415.57956 C537.652174,413.745706 539,411.030254 539,408 C539,402.477153 534.522847,398 529,398 C526.024411,398 523.352369,399.299636 521.520543,401.362236 Z" id="Smile" fill="#FFFFFF"></path>
                    <path d="M423.570295,397.307333 C468.3065,393.428362 481.725419,371.464395 481.725419,371.464395 C481.725419,371.464395 495.08646,356.266742 495.08646,329.857435 C495.08646,303.448127 493.984741,294.138844 473.176171,294.138842 C429.393557,294.138839 442.744529,336.498156 439.807121,350.073685 C436.869714,363.649215 430.42446,366.21575 410.752905,365.934475 C383.977665,364.91144 382.632326,340.610222 383.452856,329.482402 L382.501999,179.415273 C440.196081,179.415273 436.698007,183.456983 436.698007,165.867423 C436.69729,152.531577 440.543908,154.524633 382.501999,154.524633 C382.501999,81.6583219 388.334957,87.0915024 357.645107,87.0915024 C326.955257,87.0915024 333.357342,81.6583226 333.357342,154.524634 L333.357342,329.482398 C333.771911,357.766186 303.431022,357.754312 303.431022,357.754312 C281.277018,357.645371 271.326763,329.482398 271.326763,329.482398 L271.326763,144.729415 C271.326763,82.435191 277.06438,87.0915024 245.654903,87.0915024 C214.245426,87.0915024 219.19782,82.4351892 219.19782,144.729413 L219.197823,256.62558 C219.197823,239.369843 214.355095,232.429901 199.732778,225.084575 C183.560535,216.960666 147.349893,207.264003 121.905844,242.412722 C115.491841,251.273105 105.861834,274.769786 105.052963,300.105164 C104.290714,323.980259 111.846183,349.485873 121.905844,365.988586 C143.518243,401.443378 194.708561,398.108376 207.835107,391.251599 C233.555063,377.816532 235.666135,365.988586 235.666135,365.988586 C233.672946,365.992225 272.135815,411.48626 333.357349,365.988594 C358.221928,394.560288 396.466661,399.657426 423.570295,397.307333 Z M220.510633,323.295475 C221.990875,296.436103 207.26807,269.391951 187.626328,262.890671 C167.984586,256.389391 149.719515,271.759826 146.830151,297.221499 C143.940787,322.683172 158.663592,349.727324 179.714456,357.626303 C200.765321,365.525282 219.030391,350.154847 220.510633,323.295475 Z" id="dt" fill="#FFFFFF"></path>
                </g>
            </g>
        </g>
    </g>
</svg>