<?xml version="1.0" encoding="UTF-8" standalone="no"?>
<svg width="451px" height="453px" viewBox="0 0 451 453" version="1.1" xmlns="http://www.w3.org/2000/svg" xmlns:xlink="http://www.w3.org/1999/xlink">
    <!-- Generator: Sketch 39.1 (31720) - http://www.bohemiancoding.com/sketch -->
    <title>Group 5 Copy</title>
    <desc>Created with Sketch.</desc>
    <defs></defs>
    <g id="Page-1" stroke="none" stroke-width="1" fill="none" fill-rule="evenodd">
        <g id="Artboard" transform="translate(-3645.000000, -6660.000000)" fill="#50E3C2">
            <g id="Group-2" transform="translate(3570.000000, 6596.000000)">
                <g id="Group-5-Copy" transform="translate(75.000000, 64.000000)">
                    <g id="Group-4" transform="translate(41.000000, 0.000000)">
                        <g id="space-needle" transform="translate(164.418367, 22.635941)">
                            <g id="Group">
                                <path d="M140.022321,74.8495128 C140.022321,74.8495128 149.357143,70.6602791 149.357143,65.4933237 C149.357143,60.3263683 140.022321,56.1371346 140.022321,56.1371346 L9.33482143,56.1371346 C9.33482143,56.1371346 0,60.3263683 0,65.4933237 C0,70.6602791 9.33482143,74.8495128 9.33482143,74.8495128 L140.022321,74.8495128 Z" id="Shape"></path>
                                <path d="M93.3482143,46.7809455 C93.3482143,46.7809455 102.683036,42.5917118 102.683036,37.4247564 C102.683036,32.257801 93.3482143,28.0685673 93.3482143,28.0685673 L84.0133929,28.0685673 L84.0133929,9.3561891 C84.0133929,9.3561891 79.8337266,0 74.6785714,0 C69.5234163,0 65.34375,9.3561891 65.34375,9.3561891 L65.34375,28.0685673 L56.0089286,28.0685673 C56.0089286,28.0685673 46.6741071,32.257801 46.6741071,37.4247564 C46.6741071,42.5917118 56.0089286,46.7809455 56.0089286,46.7809455 L93.3482143,46.7809455 Z" id="Shape"></path>
                                <path d="M93.3482143,215.192349 C93.3482143,188.894441 105.867377,124.758934 110.292082,102.91808 L121.352679,102.91808 C121.352679,102.91808 130.6875,98.7288464 130.6875,93.561891 C130.6875,88.3949356 121.352679,84.2057019 121.352679,84.2057019 L102.777551,84.2057019 L46.683442,84.2057019 L28.0044643,84.2057019 C28.0044643,84.2057019 18.6696429,88.3949356 18.6696429,93.561891 C18.6696429,98.7288464 28.0044643,102.91808 28.0044643,102.91808 L39.0650608,102.91808 C43.4897662,124.758934 56.0089286,188.894441 56.0089286,215.192349 C56.0089286,239.089226 93.3482143,239.089226 93.3482143,215.192349 Z M84.0133929,141.07028 L84.0133929,102.91808 L91.2362109,102.91808 C89.3937506,112.088315 86.697154,125.908576 84.0133929,141.07028 L84.0133929,141.07028 Z M65.34375,102.91808 L65.34375,141.07028 C62.6599888,125.908576 59.9633923,112.088315 58.1209319,102.91808 L65.34375,102.91808 L65.34375,102.91808 Z" id="Shape"></path>
                            </g>
                        </g>
                        <path d="M239.096939,13.8330753 C242.909394,13.8330753 246,10.7364359 246,6.91653764 C246,3.09663938 242.909394,0 239.096939,0 C235.284483,0 232.193878,3.09663938 232.193878,6.91653764 C232.193878,10.7364359 235.284483,13.8330753 239.096939,13.8330753 Z" id="Oval"></path>
                        <path d="M355.462335,314.940867 C355.462335,314.940867 368.069253,300.063369 368.069253,274.210402 C368.069253,248.357434 367.029718,239.244261 347.395622,239.244259 C306.08418,239.244256 318.681598,280.711229 315.909983,294.000776 C313.138369,307.290322 307.056896,309.80279 288.495641,309.527441 C263.231646,308.525957 261.96224,284.73667 262.736458,273.843269 L262.245904,193.519892 C262.110359,171.32575 215.468428,161.392326 215.468428,190.802903 L215.468428,273.843265 C215.859598,301.531226 187.231206,301.519602 187.231206,301.519602 C166.327615,301.412956 156.93897,273.843265 156.93897,273.843265 L156.93897,92.9822999 C156.93897,32.0003702 162.352746,36.5585915 132.716078,36.5585915 C103.07941,36.5585915 107.752282,32.0003685 107.752282,92.9822982 L107.752285,202.521254 C107.752285,185.629027 103.182889,178.835282 89.3858831,171.644694 C74.1264319,163.691923 39.9595859,154.19953 15.9516468,188.607805 C9.89966193,197.281534 0.813190674,220.283233 0.0499740943,245.084894 C-0.669252129,268.457035 6.45977127,293.425346 15.951647,309.580412 C36.3442012,344.288311 84.6452422,341.023565 97.0309019,334.311232 C121.299176,321.15919 123.291095,309.580412 123.291095,309.580412 C121.410406,309.583974 157.702358,354.119629 215.468435,309.580419 C238.92961,337.55022 275.01574,342.539982 300.589593,340.239397 C342.800804,336.44214 355.462335,314.940867 355.462335,314.940867 Z M76.32883,205.91678 C57.0646335,199.301405 39.1506469,214.941586 36.316821,240.850103 C33.4829951,266.758619 47.9228041,294.277387 68.5690371,302.314991 C89.2152701,310.352595 107.129257,294.712413 108.581046,267.381668 C110.032836,240.050923 95.5930265,212.532155 76.32883,205.91678 Z" id="Combined-Shape-Copy-5"></path>
                    </g>
                    <path d="M433.261535,344.692812 C432.719991,345.439854 432.052248,346.323832 431.256651,347.333439 C428.928045,350.288424 426.06753,353.611346 422.661924,357.212124 C412.827962,367.609667 400.649886,378.047937 386.018662,387.81515 C343.964389,415.888881 290.704586,432.772184 225.128682,432.772184 C159.552777,432.772184 106.292976,415.888881 64.2387067,387.81515 C49.6074833,378.047937 37.4294091,367.609667 27.5954474,357.212125 C24.1898427,353.611346 21.3293274,350.288425 19.0007216,347.333439 C18.2051249,346.323833 17.5373818,345.439854 16.9958381,344.692813 C16.8161111,344.444886 16.6672911,344.235408 16.5491704,344.065796 C14.6898234,342.024492 12.2054539,340.796673 9.44434234,340.796673 C4.2283761,340.796673 0,345.178306 0,350.583324 C0,352.189691 0.373480831,353.705664 1.03536937,355.043088 C1.09929203,355.331071 1.33091813,355.665392 1.64421493,356.102795 C1.80215433,356.342006 1.97007457,356.573583 2.14735396,356.79688 C2.78564448,357.667557 3.5261715,358.642366 4.37026573,359.713516 C7.05324535,363.118199 10.2930862,366.881765 14.105426,370.912589 C24.894163,382.319624 38.1549553,393.685931 54.0093087,404.269657 C99.0566872,434.341466 155.851889,452.345487 225.128682,452.345487 C294.405474,452.345487 351.200678,434.341466 396.248059,404.269657 C412.102414,393.685931 425.363207,382.319624 436.151945,370.912589 C439.964285,366.881766 443.204126,363.1182 445.887106,359.713517 C446.361209,359.111883 446.80264,358.540643 447.211633,358.001176 C449.222197,356.206446 450.49513,353.548928 450.49513,350.583324 C450.49513,345.178306 446.266754,340.796673 441.050787,340.796673 C438.24054,340.796673 435.716971,342.068581 433.986933,344.087176 C433.590082,344.235407 433.441262,344.444885 433.261535,344.692812 Z" id="Smile-Copy-2"></path>
                </g>
            </g>
        </g>
    </g>
</svg>