<?xml version="1.0" encoding="UTF-8" standalone="no"?>
<svg width="683px" height="683px" viewBox="0 0 683 683" version="1.1" xmlns="http://www.w3.org/2000/svg" xmlns:xlink="http://www.w3.org/1999/xlink">
    <!-- Generator: Sketch 39.1 (31720) - http://www.bohemiancoding.com/sketch -->
    <title>Group 9</title>
    <desc>Created with Sketch.</desc>
    <defs></defs>
    <g id="Page-1" stroke="none" stroke-width="1" fill="none" fill-rule="evenodd">
        <g id="Artboard" transform="translate(-2677.000000, -6862.000000)">
            <g id="Group-9" transform="translate(2677.000000, 6862.000000)">
                <g id="TapRipple">
                    <circle id="Back" fill="#FFFFFF" cx="341.5" cy="341.5" r="341.5"></circle>
                    <circle id="Large" fill-opacity="0.400000006" fill="#50E3C2" cx="341.5" cy="341.5" r="341.5"></circle>
                    <path d="M341.5,603.472603 C486.183473,603.472603 603.472603,486.183473 603.472603,341.5 C603.472603,196.816527 486.183473,79.5273973 341.5,79.5273973 C196.816527,79.5273973 79.5273973,196.816527 79.5273973,341.5 C79.5273973,486.183473 196.816527,603.472603 341.5,603.472603 Z" id="Med" fill-opacity="0.600000024" fill="#50E3C2"></path>
                    <path d="M342.435616,540.786301 C451.981675,540.786301 540.786301,451.981675 540.786301,342.435616 C540.786301,232.889558 451.981675,144.084932 342.435616,144.084932 C232.889558,144.084932 144.084932,232.889558 144.084932,342.435616 C144.084932,451.981675 232.889558,540.786301 342.435616,540.786301 Z" id="Med-Copy" fill-opacity="0.600000024" fill="#50E3C2"></path>
                    <ellipse id="Small1" fill="#50E3C2" cx="341.967808" cy="341.967808" rx="133.325342" ry="133.325342"></ellipse>
                </g>
                <path d="M424.125446,496.548425 C444.886432,506.448121 458.076787,508.403385 478.952191,508.403385 C499.515352,508.403385 521.394668,502.82394 543.095749,483.731594 C549.266116,478.302982 563.882466,463.810281 566.46159,438.086444 C569.040715,412.362607 571.844076,387.584436 543.095749,387.584436 C500.381178,387.584436 519.781406,427.37573 514.1634,444.73536 C508.545393,462.094991 497.481543,468.102048 479.587646,468.102048 C458.775879,468.102048 445.567996,447.503243 445.636259,422.446941 L445.636263,246.493112 C511.447467,246.493109 511.447467,248.46503 511.447467,231.06124 C511.447467,213.657451 511.447467,216.491306 445.636263,216.491309 C445.636259,135.211137 451.932979,135.211137 415.675138,135.211137 C379.417296,135.211137 386.400008,135.211137 386.400008,204.68469 L386.400006,427.375738 C381.700256,463.192987 350.328474,461.453143 350.328474,461.453143 C313.92606,461.453131 311.631772,427.375738 311.631772,427.375738 L311.631772,204.684694 C311.631774,135.211137 317.304965,135.211137 280.68833,135.211137 C244.071695,135.211137 247.089456,135.211137 248.798422,204.684691 L248.798426,339.558152 C248.798426,318.759039 231.726539,304.957055 224.347148,301.059511 C205.137278,290.913508 165.716402,281.798607 131.528047,322.426759 C119.642512,336.551081 111.64057,355.495884 110.312952,387.584436 C108.985334,419.672989 110.909469,442.389183 131.528046,471.378282 C155.41205,504.958471 201.135332,510.320375 224.347144,500.70835 C231.743465,497.64553 238.869308,493.528957 247.089456,486.419453 C255.309604,479.309949 262.523666,467.555226 262.523666,467.555226 C262.523666,473.720295 332.558896,535.396884 390.611119,461.453131 C397.763071,474.650531 403.36446,486.648729 424.125446,496.548425 Z M250.654909,436.570064 C250.654909,436.570064 250.980308,437.756559 251.004871,413.191107 C251.029433,388.625655 250.860526,375.249741 250.860526,375.249741 C251.027199,351.767567 230.579638,339.9103 211.323769,337.907482 C186.656903,335.341862 166.650806,353.484929 161.991314,382.085309 C157.331821,410.685689 167.525227,438.00975 190.328781,451.975045 C211.07273,464.679001 250.450089,451.349379 250.654909,436.570064 Z" id="DTflat" fill="#FFFFFF"></path>
            </g>
        </g>
    </g>
</svg>