<?xml version="1.0" encoding="UTF-8" standalone="no"?>
<svg width="1067px" height="685px" viewBox="0 0 1067 685" version="1.1" xmlns="http://www.w3.org/2000/svg" xmlns:xlink="http://www.w3.org/1999/xlink">
    <!-- Generator: Sketch 39.1 (31720) - http://www.bohemiancoding.com/sketch -->
    <title>Group 9</title>
    <desc>Created with Sketch.</desc>
    <defs></defs>
    <g id="Page-1" stroke="none" stroke-width="1" fill="none" fill-rule="evenodd">
        <g id="Artboard" transform="translate(-2483.000000, -6862.000000)">
            <g id="Group-9" transform="translate(2483.000000, 6862.000000)">
                <rect id="Rectangle-1-Copy-3" fill="#FFFFFF" x="0" y="0" width="1066.5" height="684.385027" rx="40"></rect>
                <g id="TapRipple" transform="translate(194.000000, 0.000000)">
                    <circle id="Back" fill="#FFFFFF" cx="341.5" cy="341.5" r="341.5"></circle>
                    <circle id="Large" fill-opacity="0.400000006" fill="#50E3C2" cx="341.5" cy="341.5" r="341.5"></circle>
                    <path d="M341.5,603.472603 C486.183473,603.472603 603.472603,486.183473 603.472603,341.5 C603.472603,196.816527 486.183473,79.5273973 341.5,79.5273973 C196.816527,79.5273973 79.5273973,196.816527 79.5273973,341.5 C79.5273973,486.183473 196.816527,603.472603 341.5,603.472603 Z" id="Med" fill-opacity="0.600000024" fill="#50E3C2"></path>
                    <path d="M342.435616,540.786301 C451.981675,540.786301 540.786301,451.981675 540.786301,342.435616 C540.786301,232.889558 451.981675,144.084932 342.435616,144.084932 C232.889558,144.084932 144.084932,232.889558 144.084932,342.435616 C144.084932,451.981675 232.889558,540.786301 342.435616,540.786301 Z" id="Med-Copy" fill-opacity="0.600000024" fill="#50E3C2"></path>
                    <ellipse id="Small1" fill="#50E3C2" cx="341.967808" cy="341.967808" rx="133.325342" ry="133.325342"></ellipse>
                </g>
                <path d="M618.125446,496.548425 C638.886432,506.448121 652.076787,508.403385 672.952191,508.403385 C693.515352,508.403385 715.394668,502.82394 737.095749,483.731594 C743.266116,478.302982 757.882466,463.810281 760.46159,438.086444 C763.040715,412.362607 765.844076,387.584436 737.095749,387.584436 C694.381178,387.584436 713.781406,427.37573 708.1634,444.73536 C702.545393,462.094991 691.481543,468.102048 673.587646,468.102048 C652.775879,468.102048 639.567996,447.503243 639.636259,422.446941 L639.636263,246.493112 C705.447467,246.493109 705.447467,248.46503 705.447467,231.06124 C705.447467,213.657451 705.447467,216.491306 639.636263,216.491309 C639.636259,135.211137 645.932979,135.211137 609.675138,135.211137 C573.417296,135.211137 580.400008,135.211137 580.400008,204.68469 L580.400006,427.375738 C575.700256,463.192987 544.328474,461.453143 544.328474,461.453143 C507.92606,461.453131 505.631772,427.375738 505.631772,427.375738 L505.631772,204.684694 C505.631774,135.211137 511.304965,135.211137 474.68833,135.211137 C438.071695,135.211137 441.089456,135.211137 442.798422,204.684691 L442.798426,339.558152 C442.798426,318.759039 425.726539,304.957055 418.347148,301.059511 C399.137278,290.913508 359.716402,281.798607 325.528047,322.426759 C313.642512,336.551081 305.64057,355.495884 304.312952,387.584436 C302.985334,419.672989 304.909469,442.389183 325.528046,471.378282 C349.41205,504.958471 395.135332,510.320375 418.347144,500.70835 C425.743465,497.64553 432.869308,493.528957 441.089456,486.419453 C449.309604,479.309949 456.523666,467.555226 456.523666,467.555226 C456.523666,473.720295 526.558896,535.396884 584.611119,461.453131 C591.763071,474.650531 597.36446,486.648729 618.125446,496.548425 Z M444.654909,436.570064 C444.654909,436.570064 444.980308,437.756559 445.004871,413.191107 C445.029433,388.625655 444.860526,375.249741 444.860526,375.249741 C445.027199,351.767567 424.579638,339.9103 405.323769,337.907482 C380.656903,335.341862 360.650806,353.484929 355.991314,382.085309 C351.331821,410.685689 361.525227,438.00975 384.328781,451.975045 C405.07273,464.679001 444.450089,451.349379 444.654909,436.570064 Z" id="DTflat" fill="#FFFFFF"></path>
            </g>
        </g>
    </g>
</svg>