<?xml version="1.0" encoding="UTF-8" standalone="no"?>
<svg width="640px" height="640px" viewBox="0 0 640 640" version="1.1" xmlns="http://www.w3.org/2000/svg" xmlns:xlink="http://www.w3.org/1999/xlink">
    <!-- Generator: Sketch 39.1 (31720) - http://www.bohemiancoding.com/sketch -->
    <title>Measured Copy 2</title>
    <desc>Created with Sketch.</desc>
    <defs></defs>
    <g id="Page-1" stroke="none" stroke-width="1" fill="none" fill-rule="evenodd">
        <g id="Artboard" transform="translate(-3773.000000, -7437.000000)">
            <g id="Measured-Copy-2" transform="translate(3786.000000, 7450.000000)">
                <path d="M307,614 C476.551418,614 614,476.551418 614,307 C614,137.448582 476.551418,0 307,0 C137.448582,0 0,137.448582 0,307 C0,476.551418 137.448582,614 307,614 Z" id="circle" stroke="#50E3C2" stroke-width="25"></path>
                <g id="Group-2" transform="translate(115.000000, 114.000000)" fill="#50E3C2">
                    <path d="M278.467317,180 L278.467316,261.39328 C278.410682,282.180944 289.368445,299.270498 306.634681,299.270498 C321.48014,299.270498 330.979656,291.936696 335.320045,279.884603 C339.660434,267.832509 323.885788,232.470016 359.323425,232.470016 C383.174133,232.470016 380.848358,253.026932 378.708618,274.368408 C376.568878,295.709885 364.442596,307.733582 359.323425,312.237366 C341.319381,328.077104 323.167466,332.706024 306.107483,332.706024 C288.788452,332.706024 277.84523,331.083862 260.621124,322.870697 C243.397018,314.657532 238.749893,304.703369 232.81636,293.754303 C184.654022,355.100861 126.550125,303.93161 126.550125,298.816833 C126.550125,298.816833 120.565063,308.569 113.745316,314.467316 C106.925568,320.365631 101.013696,323.780897 94.8774261,326.32193 C75.6200221,334.296432 37.6862428,329.847992 17.871163,301.988586 C0.765205177,277.938125 -0.831130949,259.091903 0.270311457,232.470016 C1.37175386,205.84813 8.01047053,190.130798 17.8711636,178.412722 C46.2351266,144.706058 78.9401886,152.268128 94.8774297,160.685638 C100.999653,163.919189 115.163142,175.369843 115.163142,192.62558 L115.163139,80.729413 C115.163139,18.4351892 110.210745,23.0915024 141.620223,23.0915024 C173.0297,23.0915024 167.292082,18.435191 167.292082,80.7294147 L167.292082,265.482398 C167.292082,265.482398 169.195511,293.754303 199.396342,293.754312 C199.396342,293.754312 225.423569,295.197754 229.322661,265.482398 L229.322661,180 L278.467317,180 Z M115.230127,275.024401 C115.230127,275.024401 115.505517,276.028551 115.526305,255.238407 C115.547093,234.448264 115.404144,223.128008 115.404144,223.128008 C115.545202,203.25466 98.2400966,193.219662 81.9435395,191.524644 C61.0675674,189.353317 44.1360805,204.708092 40.1926758,228.913062 C36.2492711,253.118031 44.8761168,276.24283 64.1751382,288.061888 C81.731081,298.813454 115.056785,287.532377 115.230127,275.024401 Z" id="Combined-Shape"></path>
                    <g id="space-needle-copy-2" transform="translate(179.000000, 0.000000)">
                        <g id="Group" transform="translate(0.000000, 23.000000)">
                            <path d="M140.022321,72.9247564 C140.022321,72.9247564 149.357143,69.5973324 149.357143,65.4933237 C149.357143,61.389315 140.022321,58.061891 140.022321,58.061891 L9.33482143,58.061891 C9.33482143,58.061891 0,61.389315 0,65.4933237 C0,69.5973324 9.33482143,72.9247564 9.33482143,72.9247564 L140.022321,72.9247564 Z" id="Shape"></path>
                            <path d="M93.3482143,46.7809455 C93.3482143,46.7809455 102.683036,42.5917118 102.683036,37.4247564 C102.683036,32.257801 93.3482143,28.0685673 93.3482143,28.0685673 L84.0133929,28.0685673 L84.0133929,9.3561891 C84.0133929,9.3561891 79.8337266,0 74.6785714,0 C69.5234163,0 65.34375,9.3561891 65.34375,9.3561891 L65.34375,28.0685673 L56.0089286,28.0685673 C56.0089286,28.0685673 46.6741071,32.257801 46.6741071,37.4247564 C46.6741071,42.5917118 56.0089286,46.7809455 56.0089286,46.7809455 L93.3482143,46.7809455 Z" id="Shape"></path>
                            <path d="M93.3482143,215.192349 C93.3482143,188.894441 105.867377,124.758934 110.292082,102.91808 L121.352679,102.91808 C121.352679,102.91808 130.6875,98.7288464 130.6875,93.561891 C130.6875,88.3949356 121.352679,84.2057019 121.352679,84.2057019 L102.777551,84.2057019 L46.683442,84.2057019 L28.0044643,84.2057019 C28.0044643,84.2057019 18.6696429,88.3949356 18.6696429,93.561891 C18.6696429,98.7288464 28.0044643,102.91808 28.0044643,102.91808 L39.0650608,102.91808 C43.4897662,124.758934 56.0089286,188.894441 56.0089286,215.192349 C56.0089286,239.089226 93.3482143,239.089226 93.3482143,215.192349 Z M84.0133929,141.07028 L84.0133929,102.91808 L91.2362109,102.91808 C89.3937506,112.088315 86.697154,125.908576 84.0133929,141.07028 L84.0133929,141.07028 Z M65.34375,102.91808 L65.34375,141.07028 C62.6599888,125.908576 59.9633923,112.088315 58.1209319,102.91808 L65.34375,102.91808 L65.34375,102.91808 Z" id="Shape"></path>
                        </g>
                        <path d="M74.6785714,14.1971339 C78.4910269,14.1971339 81.5816327,11.1004945 81.5816327,7.28059627 C81.5816327,3.46069801 78.4910269,0.364058631 74.6785714,0.364058631 C70.866116,0.364058631 67.7755102,3.46069801 67.7755102,7.28059627 C67.7755102,11.1004945 70.866116,14.1971339 74.6785714,14.1971339 Z" id="Oval"></path>
                    </g>
                </g>
            </g>
        </g>
    </g>
</svg>