<?xml version="1.0" encoding="UTF-8" standalone="no"?>
<svg width="683px" height="683px" viewBox="0 0 683 683" version="1.1" xmlns="http://www.w3.org/2000/svg" xmlns:xlink="http://www.w3.org/1999/xlink">
    <!-- Generator: Sketch 39.1 (31720) - http://www.bohemiancoding.com/sketch -->
    <title>TapShades Copy</title>
    <desc>Created with Sketch.</desc>
    <defs></defs>
    <g id="Page-1" stroke="none" stroke-width="1" fill="none" fill-rule="evenodd">
        <g id="Artboard" transform="translate(-341.000000, -7999.000000)">
            <g id="TapShades-Copy" transform="translate(341.000000, 7999.000000)">
                <g id="TapRipple">
                    <circle id="Back" fill="#FFFFFF" cx="341.5" cy="341.5" r="341.5"></circle>
                    <circle id="Large" fill-opacity="0.400000006" fill="#50E3C2" cx="341.5" cy="341.5" r="341.5"></circle>
                    <path d="M341.5,603.472603 C486.183473,603.472603 603.472603,486.183473 603.472603,341.5 C603.472603,196.816527 486.183473,79.5273973 341.5,79.5273973 C196.816527,79.5273973 79.5273973,196.816527 79.5273973,341.5 C79.5273973,486.183473 196.816527,603.472603 341.5,603.472603 Z" id="Med" fill-opacity="0.600000024" fill="#50E3C2"></path>
                    <path d="M342.435616,540.786301 C451.981675,540.786301 540.786301,451.981675 540.786301,342.435616 C540.786301,232.889558 451.981675,144.084932 342.435616,144.084932 C232.889558,144.084932 144.084932,232.889558 144.084932,342.435616 C144.084932,451.981675 232.889558,540.786301 342.435616,540.786301 Z" id="Med-Copy" fill-opacity="0.600000024" fill="#50E3C2"></path>
                    <ellipse id="Small1" fill="#50E3C2" cx="341.967808" cy="341.967808" rx="133.325342" ry="133.325342"></ellipse>
                </g>
                <path d="M435.589845,494.063629 C456.08198,503.835126 478.948793,501.601624 494.029478,495.617436 C509.110163,489.633248 515.217645,482.366868 519.89043,477.775159 C522.309407,475.398152 526.025566,470.72332 529.129726,465.870939 C532.02193,461.349885 534.358104,456.646649 535.272978,454.245564 C537.169773,449.26743 540.203839,445.035986 534.666782,442.308195 C529.129726,439.580404 528.093826,442.550949 526.369857,444.049483 C518.872803,450.566182 514.097367,458.017224 496.438316,458.017224 C478.213952,458.017224 460.516931,444.131763 460.58431,419.399936 L460.58431,246.155977 C519.89043,246.155977 516.031558,246.231452 516.031558,231.743175 C516.031558,217.254898 519.89043,216.1475 460.58431,216.1475 C460.584307,135.919893 466.909138,136 429.717769,136 C392.5264,136 398.674009,136 398.674009,204.573881 L398.674008,424.381115 C394.035118,459.734536 363.069596,458.017222 363.069596,458.017222 C327.138588,458.017211 324.874011,424.381115 324.874011,424.381115 L324.874011,204.573885 C324.874012,136 330.473736,136 294.331281,136 C258.188826,136 261.167508,136 262.854343,204.573883 L262.854346,337.700754 C262.854346,317.170986 246.003538,303.547735 238.719709,299.700663 C219.758604,289.68605 180.848222,280.689185 147.102601,320.791209 C135.370982,334.732623 127.472664,353.432094 126.162238,385.105104 C124.851813,416.778115 126.751031,439.200139 147.1026,467.813833 C170.677309,500.959163 215.808483,506.251631 238.719705,496.764081 C246.020245,493.740924 253.05381,489.67766 261.167508,482.660223 C269.281206,475.642786 276.401847,464.040285 276.401847,464.040285 C276.401847,470.125517 345.530131,531.003404 402.830587,458.017211 C409.889923,471.043707 415.097711,484.292133 435.589845,494.063629 Z M266.503248,435.733577 C266.503248,435.733577 266.83089,436.92825 266.855622,412.193473 C266.880354,387.458696 266.710283,373.990583 266.710283,373.990583 C266.878104,350.346551 246.289602,338.407554 226.901005,336.39093 C202.064114,333.807626 181.920119,352.075751 177.22851,380.873268 C172.5369,409.670786 182.800567,437.183186 205.761303,451.244742 C226.648235,464.036264 266.297016,450.614763 266.503248,435.733577 Z" id="DTShortT" fill="#FFFFFF"></path>
            </g>
        </g>
    </g>
</svg>