<?xml version="1.0" encoding="UTF-8" standalone="no"?>
<svg width="2919px" height="3411px" viewBox="0 0 2919 3411" version="1.1" xmlns="http://www.w3.org/2000/svg" xmlns:xlink="http://www.w3.org/1999/xlink">
    <!-- Generator: Sketch 39.1 (31720) - http://www.bohemiancoding.com/sketch -->
    <title>Warden</title>
    <desc>Created with Sketch.</desc>
    <defs></defs>
    <g id="Page-1" stroke="none" stroke-width="1" fill="none" fill-rule="evenodd">
        <g id="Warden" transform="translate(2.000000, 0.000000)">
            <g id="Sun">
                <g id="SunFill" transform="translate(486.000000, 475.000000)">
                    <g id="Out">
                        <polygon id="Path-21" fill="#F6A623" points="37.1087964 1265.57673 119.353201 1469.4414 399.603299 1324.67698 333.306967 1169.27242"></polygon>
                        <polygon id="Path-22" fill="#F8E81C" points="0.977264765 1048.61235 33.5125849 1251.40617 334.038524 1169.36771 305.010307 1024.78171"></polygon>
                        <polygon id="Path-23" fill="#FF5AF0" points="7.72986738 821.33357 0.403320821 1053.72349 307.182107 1028.65042 314.972668 874.076565"></polygon>
                        <polygon id="Path-24" fill="#F5A623" points="8.13067709 825.872795 75.1170657 593.293677 363.344059 717.332871 316.188812 871.42498"></polygon>
                        <polygon id="Path-25" fill="#F8E81C" points="78.8365304 594.392405 214.889686 366.712532 455.98845 568.347146 366.676267 717.026668"></polygon>
                        <polygon id="Path-26" fill="#FF5AEF" points="221.031756 365.235554 411.841196 188.331328 583.233769 439.624848 457.591513 563.159708"></polygon>
                        <polygon id="Path-27" fill="#F6A623" points="409.564186 190.541596 587.839141 443.323112 772.664318 338.564155 682.183778 57.6184618"></polygon>
                        <polygon id="Path-28" fill="#F8E81C" points="688.615846 56.2371517 774.6484 345.19044 987.285772 314.241464 985.775238 0.389821671"></polygon>
                        <polygon id="Path-29" fill="#FF5AEF" points="984.638095 2.01067565 984.638095 312.001121 1185.76825 349.645667 1290.00359 50.7890457"></polygon>
                        <polygon id="Path-30" fill="#F6A623" points="1287.72082 50.746615 1185.08087 352.250914 1334.23339 423.857018 1518.19607 159.326859"></polygon>
                        <polygon id="Path-31" fill="#F8E81C" points="1335.56571 417.704562 1464.52119 528.643955 1699.61291 312.603637 1513.29956 162.602512"></polygon>
                        <polygon id="Path-32" fill="#FF5AEF" points="1464.11386 527.388005 1600.70687 723.604684 1892.49453 600.199142 1699.11223 309.650458"></polygon>
                        <polygon id="Path-33" fill="#F6A623" points="1602.22589 718.479052 1649.77377 908.475386 1959.00895 876.024361 1894.19176 599.231721"></polygon>
                        <polygon id="Path-34" fill="#F8E81C" points="1652.40448 907.346728 1642.50114 1098.00498 1951.15926 1166.59002 1961.72452 874.709009"></polygon>
                        <polygon id="Path-35" fill="#FF5AEF" points="1587.84187 1275.8831 1643.6892 1094.27956 1950.65858 1165.30861 1879.90109 1399.95056"></polygon>
                    </g>
                    <g id="In" transform="translate(304.000000, 309.000000)">
                        <polygon id="Path-37" fill="#F6A623" points="0.887016752 716.858116 32.0520673 858.792048 530.759026 709.181592 520.435723 680.977354"></polygon>
                        <polygon id="Path-36" fill="#FF5AEF" points="29.0569123 859.606196 529.155081 706.88476 529.155087 784.082293 98.6215132 1012.32763"></polygon>
                        <polygon id="Path-38" fill="#F8E81C" points="2.75643839 718.341422 512.482604 681.041317 491.249175 646.768887 10.7412456 563.691288"></polygon>
                        <polygon id="Path-39" fill="#FF5AEF" points="11.2123495 564.907675 484.04023 645.480635 537.005929 608.509504 60.4464324 403.827024"></polygon>
                        <polygon id="Path-40" fill="#F6A623" points="59.9337227 408.03892 531.595771 608.559482 565.015784 595.149722 148.29979 254.867831"></polygon>
                        <polygon id="Path-41" fill="#F8E81C" points="151.328345 260.667224 286.243055 126.741581 598.85343 572.570103 563.617621 595.077091"></polygon>
                        <polygon id="Path-42" fill="#FF5AEF" points="285.841479 130.125232 600.169909 576.31067 637.898974 576.31067 468.21654 36.9372573"></polygon>
                        <polygon id="Path-43" fill="#F6A623" points="469.815408 32.8248201 637.308191 587.063467 681.282434 579.402334 681.28243 3.8890281"></polygon>
                        <polygon id="Path-44" fill="#F8E81C" points="681.564065 0.238591723 681.564065 584.708135 686.795 584.708135 883.950802 34.2713196"></polygon>
                        <polygon id="Path-45" fill="#FF5AEF" points="879.684105 39.8690124 679.69151 594.959467 707.28666 583.11767 1031.88676 112.44149"></polygon>
                        <polygon id="Path-46" fill="#F6A623" points="1031.10388 109.003877 721.108463 561.561525 752.307111 590.895997 1161.59189 215.316758"></polygon>
                        <polygon id="Path-47" fill="#F8E81C" points="757.77918 583.669735 1164.54409 213.341671 1295.23955 414.248833 804.393194 610.613492"></polygon>
                        <polygon id="Path-48" fill="#FF5AEF" points="799.434051 610.815221 810.549234 650.409154 1348.48785 601.753226 1300.23788 407.87328"></polygon>
                        <polygon id="Path-50" fill="#F8E81C" points="1340.42603 786.281466 1288.59527 967.020652 813.512282 761.973781 813.512282 680.967685"></polygon>
                        <polygon id="Path-49" fill="#F6A623" points="802.292381 651.558548 1349.53588 599.348118 1341.69577 788.00132 811.436733 680.523395"></polygon>
                    </g>
                </g>
                <path d="M186,2187.99999 L937.999996,1770" id="Path" stroke="#000000" stroke-width="30"></path>
                <path d="M48,1874 L866,1629" id="Path-Copy-2" stroke="#000000" stroke-width="30"></path>
                <path d="M0,1563 L1098,1481" id="Path-Copy-3" stroke="#000000" stroke-width="30"></path>
                <path d="M24,1221 L1130,1404" id="Path-Copy-4" stroke="#000000" stroke-width="30"></path>
                <path d="M124,882 L1188,1337" id="Path-Copy-5" stroke="#000000" stroke-width="30"></path>
                <path d="M330,538 L1239,1287" id="Path-Copy-6" stroke="#000000" stroke-width="30"></path>
                <path d="M606,276 L1312,1246" id="Path-Copy-7" stroke="#000000" stroke-width="30"></path>
                <path d="M1024,64 L1379,1215" id="Path-Copy-8" stroke="#000000" stroke-width="30"></path>
                <path d="M1470,0 L1470,1209" id="Path-Copy-9" stroke="#000000" stroke-width="30"></path>
                <path d="M1939,69 L1531,1216" id="Path-Copy-10" stroke="#000000" stroke-width="30"></path>
                <path d="M2274,245 L1581,1242" id="Path-Copy-11" stroke="#000000" stroke-width="30"></path>
                <path d="M2532,470 L1648,1280" id="Path-Copy-12" stroke="#000000" stroke-width="30"></path>
                <path d="M2810,903 L1735,1339" id="Path-Copy-13" stroke="#000000" stroke-width="30"></path>
                <path d="M2915,1304 L1783,1420" id="Path-Copy-14" stroke="#000000" stroke-width="30"></path>
                <path d="M2901,1744 L2002,1545" id="Path-Copy-15" stroke="#000000" stroke-width="30"></path>
                <path d="M2796,2076 L2002,1718" id="Path-Copy-16" stroke="#000000" stroke-width="30"></path>
                <path d="M609.323112,1952.39978 C609.323112,1952.39978 492.911583,1775.86401 482.876008,1496.10608 C472.840433,1216.34815 552.799439,1087.48544 609.323112,980.686646 C676.02864,854.649726 776.824583,748.432272 903.330329,659.137803 C1049.66858,555.844497 1277.5345,480.447107 1453.13206,480.447106 C1637.40494,480.447105 1775.71289,510.622165 1957.1204,614.288964 C2129.23837,712.64718 2224.64677,834.51751 2298.74363,939.722927 C2380.06678,1055.18848 2429.48319,1189.5798 2449.1713,1417.38802 C2468.85941,1645.19625 2363.53715,1876.55489 2363.53715,1876.55489" id="Path-2" stroke="#000000" stroke-width="30"></path>
                <path d="M2074.32359,1749.73261 C2074.32359,1749.73261 2143.69126,1597.98693 2137.19163,1433.6479 C2132.47082,1314.285 2119.22447,1240.17274 2032.42283,1105.57108 C1935.2343,954.86266 1727.08439,789.967477 1467.38072,789.967477 C1207.67704,789.967477 968.531367,930.004594 853.648761,1182.73284 C813.671762,1270.67754 790.711895,1343.45656 790.711895,1488.62422 C790.711895,1633.79189 878.071365,1793.34191 878.071365,1793.34191" id="Path-3" stroke="#000000" stroke-width="30"></path>
            </g>
            <g transform="translate(1506.350126, 2329.506150) rotate(5.000000) translate(-1506.350126, -2329.506150) translate(788.350126, 1259.506150)">
                <g id="ColorBlock" transform="translate(55.333728, 161.424234)" fill="#FFFFFF">
                    <path d="M98.2180779,369.210859 C98.2180779,369.210859 71.2287904,349.27623 58.8372999,341.197667 C39.4079172,328.530789 0.705596174,326.378828 0.705596174,326.378828 L12.3338654,280.111227 C12.3338654,280.111227 48.8112966,284.054327 68.4459425,292.481778 C82.6363283,298.572479 102.180691,322.910684 102.180691,322.910684 L157.061566,182.198545 L210.287597,198.399845 C210.287597,198.399845 251.621913,198.810407 262.183898,182.198542 C273.695327,164.093395 291.767394,149.964666 289.156432,123.734518 C286.54547,97.5043692 281.56842,49.7656009 282.749938,57.4681855 C283.931457,65.1707702 342.441453,-5.7492742 381.003539,0.673277805 C430.232294,8.87237344 608.724579,89.8144031 768.646941,147.574323 C806.459566,161.231288 892.517403,142.188055 956.527679,108.134191 C988.175502,91.2973528 1006.32295,34.9211312 1020.89297,39.1399626 C1044.02147,45.8369472 1030.71957,90.1263738 1026.73209,123.734518 C1020.79288,173.79252 1020.78956,226.54367 1020.89297,229.891569 C1021.68552,255.550444 391.716682,295.885005 389.283172,300.572461 C358.031454,360.769902 152.405773,369.21086 152.405773,369.21086 L98.2180779,369.210859 Z" id="Path-51"></path>
                </g>
                <g id="Body" transform="translate(384.000000, 335.000000)">
                    <path d="M422.395386,1489.15795 C490.974067,1465.76938 563.130912,1413.28725 576.972306,1419.062 C593.891774,1426.12096 597.537529,1494.53143 590.918198,1552.09203 C586.892986,1587.09462 573.081433,1628.08734 573.081433,1628.08734 C573.081433,1628.08734 544.893057,1620.12761 544.763524,1631.35742 C544.365874,1665.83146 553.817219,1691.76113 550.679111,1716.88934 C547.727431,1740.52475 532.737545,1759.37989 527.28505,1772.34284 C520.366141,1788.7921 518.308242,1793.63909 525.123993,1800.4494 C531.939744,1807.25971 546.282303,1796.99342 557.922348,1792.43373 C569.562394,1787.87403 585.740464,1779.86836 590.918199,1778.04431 C596.045381,1776.23808 608.293972,1793.40663 622.773453,1789.95184 C637.252934,1786.49705 642.956129,1781.01965 650.665902,1763.78857 C652.696476,1759.25031 653.927079,1768.40058 673.574479,1768.07826 C693.221879,1767.75593 685.76258,1759.53796 697.574814,1757.35011 C706.041766,1755.78186 716.620251,1759.91528 724.209275,1760.00086 C740.488083,1760.18444 752.924231,1755.2893 754.826554,1743.31935 C759.258187,1715.43425 749.705046,1688.17797 744.958474,1652.52307 C734.509447,1574.03297 737.788922,1577.4616 733.468499,1547.49667 C727.950262,1509.22415 713.438802,1389.75621 702.610777,1297.49129 C698.075416,1258.84577 690.357969,1224.44384 690.357969,1203.62801 C690.357969,1133.11507 657.696902,958.869787 655.875718,935.497545 C655.579259,931.692926 732.436216,936.125226 806.316465,948.552556 C839.167184,954.078346 836.017598,981.930583 895.500596,974.236545 C955.322569,966.498662 972.169296,903.373957 976.849167,900.579325 C978.641759,899.50886 990.416272,848.790164 994.796799,788.882933 C997.126057,757.028459 991.709056,697.590744 996.10504,687.924505 C1003.70257,686.430974 1031.00183,677.948475 1039.54205,656.021184 C1046.68826,637.67307 1052.52221,611.062469 1050.79889,587.217168 C1049.01447,562.526561 1038.55895,540.618001 1034.00165,530.037053 C1033.28964,528.383942 1017.01063,498.884209 987.948118,467.951909 C967.945896,446.662813 923.122923,412.406164 912.30493,400.957952 C904.548479,392.749638 860.99011,330.937185 829.169371,294.122625 C819.797938,283.280477 803.402864,277.984918 795.94647,268.868291 C794.476704,267.071268 804.479795,261.140005 804.479795,250.133459 C804.479795,239.126913 784.797932,203.357984 779.967894,193.175954 C761.604368,170.193014 739.339705,142.713169 724.209288,127.831167 C718.274123,121.993447 716.07733,122.635313 712.709776,123.777258 C709.342222,124.919203 702.610777,125.802847 697.574827,125.802847 C692.538877,125.802847 680.086912,120.796132 680.086912,125.802847 C680.086912,130.809561 684.93292,176.74906 682.578001,187.937262 C680.223081,199.125463 677.207616,211.227633 673.574461,219.023306 C671.568504,223.327495 668.428587,222.080023 668.428587,231.189611 C668.428587,237.979772 672.701043,242.544502 684.957579,257.86939 C689.144246,263.104166 694.56378,268.591314 699.599729,272.914085 C704.635679,277.236857 735.947752,277.041967 736.882261,278.469579 C737.504642,279.420365 741.101255,299.028356 744.958494,302.278997 C748.815733,305.529638 754.717199,305.799982 759.547727,314.215459 C762.792403,319.868153 763.714759,328.451986 766.767149,335.610082 C771.617911,346.985502 777.754354,357.792586 782.409544,363.818273 C787.878446,370.89723 795.954356,378.329276 804.479795,383.319188 C810.957433,387.110529 817.724044,390.58862 821.955686,394.95313 C823.862341,396.919651 834.185972,423.089391 839.196714,431.705327 C841.392916,435.481682 848.446157,442.597566 855.160093,450.86408 C863.764329,461.458019 881.195245,485.394376 887.096556,490.116918 C892.825365,494.701415 900.329048,499.302232 907.290708,504.853979 C911.52441,508.230247 930.74529,527.849176 931.483567,530.037046 C933.57803,536.243952 940.243353,538.870772 944.19293,547.3877 C945.827644,550.912822 948.586241,558.623009 950.986631,569.052269 C953.387022,579.481529 954.705564,591.118701 953.387022,598.000982 C952.068479,604.883263 948.942181,617.522527 946.158445,618.488182 C941.420957,615.939293 938.641062,616.433858 933.318846,615.763189 C927.37732,615.014478 911.975303,613.512979 897.613829,611.053673 C882.270931,608.426304 868.044498,604.824604 865.504454,603.731084 C859.33309,601.074238 857.143867,596.377422 854.398802,590.687139 C850.544607,582.697728 848.387904,570.545116 847.934935,556.936101 C847.47071,542.988964 849.983887,516.560688 849.387754,515.276861 C845.675615,507.282422 835.772857,501.01548 829.169371,493.117803 C826.473029,489.893016 820.493284,481.082799 818.096556,477.500463 C820.493284,475.63471 823.735586,477.301021 823.192198,474.933111 C822.4656,471.766829 818.471664,463.861971 817.238951,462.048192 C814.561582,462.048192 802.884459,445.763045 798.279905,438.527105 C785.52725,418.486629 779.107927,399.172507 771.424375,392.429357 C768.365005,389.744427 761.686248,391.859425 759.547727,392.429357 C757.951403,392.85479 752.163224,393.634605 750.718626,397.550542 C749.232259,401.579704 763.533369,434.023167 765.260618,438.527105 C768.853697,446.542364 781.917415,470.751987 783.14105,472.404961 C788.323509,479.405791 795.573412,488.3893 793.909422,488.57636 C789.797521,489.038607 781.700987,483.670232 770.553709,478.136327 C767.009601,476.376906 756.719507,476.140022 744.958494,473.222661 C737.832404,471.455009 730.361605,467.846036 722.965025,464.772497 C704.173008,456.963753 687.895091,444.818552 673.574461,438.527105 C658.04669,431.705327 572.091596,406.756781 516.287352,402.93366 C494.398253,401.434049 458.070381,400.03085 435.987028,402.93366 C423.713717,404.546961 420.375718,411.02921 416.443357,411.02921 C415.661734,411.02921 427.984835,396.046911 438.120573,372.026739 C446.185152,352.914901 453.187767,328.209382 455.054716,309.02268 C455.784529,301.522366 464.292845,239.947332 464.292845,239.947332 C464.292845,239.947332 467.354836,244.308027 482.644346,248.283544 C495.368764,251.592096 518.88409,255.217145 534.651365,255.217138 C551.959013,255.21713 567.790983,250.627545 573.081419,250.627553 C575.495759,250.627557 579.18085,254.416557 585.101499,258.647466 C592.154505,263.68756 601.886784,269.539315 609.596983,272.914076 C616.922068,276.120272 625.194207,282.348049 633.472532,283.652562 C642.079769,285.008907 650.665892,284.869939 658.04669,285.603865 C659.094513,285.708057 708.203261,332.101426 710.095945,334.234319 C718.006012,343.148283 722.370704,355.190737 727.600523,357.541784 C729.610805,358.445499 739.398191,361.779228 746.068663,358.580711 C752.739134,355.382195 753.163593,344.901861 750.188536,340.034185 C748.481585,337.241338 737.739091,327.008434 736.252928,324.386754 C738.85749,319.739426 738.263614,316.364473 737.435484,314.801519 C735.316531,310.802358 727.600523,304.07299 721.88159,298.833623 C716.162657,293.594256 694.009771,279.917289 680.086912,266.839958 C678.953794,265.775654 665.607847,250.133458 663.735166,250.133458 C661.862486,250.133458 657.100096,244.954473 655.87573,243.377523 C655.359615,242.71278 653.262963,236.222664 654.060484,227.075354 C654.394641,223.24268 664.564695,211.691046 668.428587,187.937262 C673.207692,158.557079 668.353553,119.359717 668.428587,118.61955 C668.779114,115.1618 664.900897,113.027662 659.216062,112.339902 C655.105046,111.842545 650.036231,112.398026 645.000852,112.339902 C639.247528,112.273492 633.91515,110.861571 629.210142,111.381513 C619.101392,112.498613 620.544124,127.696709 620.249693,140.005468 C620.12129,145.373361 618.641232,150.038578 617.43878,153.003227 C616.991672,154.105571 614.809524,164.529456 609.596983,173.026588 C603.712597,182.618919 594.564314,190.474036 590.918211,193.175945 C584.042295,198.271276 573.460687,203.429755 564.056608,207.117498 C553.87716,211.109296 546.558531,213.103966 534.651365,214.48026 C522.7442,215.856555 487.141011,216.719529 471.028166,207.822277 C464.292845,204.103142 458.147306,199.521884 459.035551,197.735479 C459.923796,195.949074 485.80438,206.014488 493.896604,207.822273 C501.988829,209.630058 520.860563,210.323147 529.520323,209.266991 C538.180082,208.210835 562.785887,202.118828 568.907041,199.273186 C571.758623,197.947524 579.328775,194.175411 582.16931,186.994863 C585.426216,178.761772 583.641784,165.684461 581.478269,163.762456 C578.402695,161.030203 576.609506,158.119769 570.213865,156.351049 C562.450622,154.204118 554.647735,161.052886 544.763517,166.654455 C539.60272,169.579173 533.897585,171.624964 527.285063,173.026592 C513.846063,175.8752 489.898527,173.02659 484.776243,170.193014 C483.292093,169.372002 494.213201,135.951126 488.989653,100.172544 C486.33394,81.9822979 483.136103,63.0327805 474.32324,49.6625227 C469.205131,41.8976863 465.811094,37.6933727 462.492155,36.9416224 C459.173216,36.1898721 457.531813,36.8862818 451.215635,36.9416217 C448.019154,36.969628 440.912016,37.6933736 440.912016,37.6933736 C440.912016,37.6933736 436.710661,26.6457304 427.876524,26.6457306 C420.592339,26.6457307 412.705867,28.2169788 406.063383,30.9254583 C396.017256,35.0217767 389.189299,39.4460363 386.495695,41.4051008 C383.802092,43.3641653 369.585325,53.7139356 364.386717,58.8634008 C359.188108,64.012866 350.255949,79.4954061 348.78784,79.4954046 C347.319731,79.4954031 346.174347,66.2758117 349.636625,55.4529394 C351.13876,50.7573578 355.2491,45.472698 357.655912,41.4051031 C365.108395,28.8101545 389.4624,18.5121117 390.917112,13.7937403 C392.371824,9.07536891 381.70651,3.37153175 372.957914,1.9778681 C364.209318,0.58420444 338.620893,-1.00337437 327.362028,1.97786814 C316.103163,4.95911065 304.250882,9.3977884 296.049482,13.7937402 C290.75902,16.629429 286.957693,25.0978388 284.8468,26.6457312 C281.36588,29.1982475 281.547025,50.1632634 291.735533,68.6017091 C297.760301,79.5049111 305.20705,92.2322526 311.959349,100.172543 C319.0889,108.55646 320.446867,110.513867 319.166807,111.381512 C317.886747,112.249157 298.431614,107.956542 286.380796,92.9769099 C282.279925,87.8793678 277.37034,82.4736075 275.104261,75.6954539 C271.903461,66.1214216 264.001356,37.6933727 264.001356,37.6933727 C264.001356,37.6933727 249.168241,47.781332 245.053907,55.4529399 C240.939573,63.1245479 238.117567,75.6954555 238.117567,75.6954555 C238.117567,75.6954555 234.418047,87.9198171 247.470167,106.83585 C251.860798,113.199055 254.923108,120.855821 260.347029,125.802845 C271.825167,136.271771 286.380796,140.249981 286.380796,142.860043 C286.380796,144.171983 272.920772,146.400128 261.345472,144.704724 C249.892098,143.027177 244.443181,133.164008 239.869825,137.507391 C235.025365,142.108246 238.117567,155.106665 238.117567,155.106665 C238.117567,155.106665 239.223604,167.775984 254.034559,181.971395 C266.51943,193.937394 281.446084,207.017973 296.049482,207.822271 C310.652881,208.626569 313.995403,202.375567 324.710752,191.336453 C337.154071,178.517159 345.664759,162.694643 348.78784,163.762463 C353.174758,165.262405 352.997063,177.141605 347.39102,187.937268 C342.53416,197.290213 324.710752,207.822267 324.710752,211.691046 C324.710752,215.559824 337.588431,219.222536 345.015196,219.023308 C350.617821,218.873013 358.580771,217.342793 361.369078,216.07243 C364.72852,214.541855 376.002822,203.041804 381.70651,187.937268 C386.709443,174.688477 383.934907,156.902851 387.680021,155.106671 C390.560307,153.725268 394.965992,160.436265 396.227384,170.193014 C397.907847,183.191228 396.382237,200.534107 401.230436,201.07452 C409.717802,202.020581 439.78221,172.004126 447.67053,155.106671 C450.490019,149.067084 449.310483,133.967194 437.215208,122.07687 C432.550145,117.490855 426.283023,112.355942 419.262571,108.57243 C406.86769,101.892491 390.557541,96.3634089 392.16461,92.9769099 C393.771679,89.5904108 410.922231,88.7077685 425.229124,95.9994013 C438.435354,102.730072 445.624184,113.461244 451.215635,111.381512 C465.638252,106.017042 447.67053,63.1245475 447.67053,63.1245475 C447.67053,63.1245475 454.883009,73.4938071 457.234526,79.4954067 C461.610739,90.6644889 462.492155,108.807306 462.492155,111.381514 C462.492155,118.449837 455.054716,150.777378 455.054716,150.777378 C455.054716,150.777378 450.902675,164.601361 444.383696,173.026592 C435.057851,185.07946 427.876524,195.592369 416.443357,202.935711 C405.010191,210.279053 400.714231,208.732948 399.200437,211.691053 C397.686644,214.649158 406.464155,241.21605 402.728025,254.384077 C402.413457,255.492775 399.778921,265.813111 394.393339,272.914085 C386.992636,282.672028 376.068327,285.603874 372.957914,282.862209 C369.847502,280.120544 383.69879,242.797127 384.77371,234.455727 C385.848631,226.114327 384.536375,221.51107 381.70651,220.267189 C378.876646,219.023308 364.159999,225.417237 355.333036,227.075356 C338.760838,230.188394 320.155849,227.547123 302.624372,224.396633 C286.90452,221.571701 270.031905,215.994007 257.320555,207.822273 C244.136575,199.346701 237.132521,183.452095 227.428785,187.937267 C217.72505,192.422439 224.985281,196.610986 222.132337,207.822273 C220.866304,212.797438 218.588644,215.549093 217.105711,219.023308 C215.650744,222.432004 214.452153,226.532929 211.632292,234.455727 C205.938369,250.453606 200.146147,260.765831 201.126921,266.839958 C201.810052,271.070726 210.693708,278.32429 219.189283,286.740227 C222.890833,290.407078 227.548682,293.872081 229.699507,298.110653 C231.495636,301.650236 224.215606,305.090994 222.132337,309.022671 C219.827527,313.372456 225.063506,320.857186 229.699507,323.39608 C232.220408,324.776645 238.032234,324.709817 245.053907,322.22216 C254.38374,318.916763 260.251249,313.345341 267.815367,313.163567 C275.379484,312.981792 302.624372,318.587047 302.624372,321.286675 C302.624372,323.986302 290.062667,326.995642 271.872938,330.130821 C255.649532,332.927085 235.153745,332.938132 222.132337,332.938133 C194.51129,332.938137 181.795972,332.269287 139.720869,320.696465 C116.482462,314.304705 91.9888,297.25872 84.6890105,298.110649 C77.3892211,298.962578 75.946289,316.864012 76.2110509,317.592937 C76.7111571,318.969797 79.0746326,341.719627 87.577753,355.924614 C96.0808734,370.129601 104.07781,379.498975 111.72526,387.014519 C121.342578,396.465954 135.497417,404.933218 142.522329,399.709679 C149.091307,394.825161 137.631899,382.200457 128.747953,370.129601 C120.576739,359.027151 113.363935,348.258263 116.084742,346.849968 C118.805548,345.441673 144.354414,353.882072 155.119726,355.924614 C165.885038,357.967155 194.628782,360.810051 207.444639,361.779228 C210.129835,364.888023 222.132337,400.957939 224.479948,412.508633 C215.235014,414.176872 200.044905,412.508629 192.535429,411.029198 C185.025953,409.549767 166.493801,405.940151 164.555624,409.086849 C160.281546,416.025963 163.144506,420.787804 172.969915,428.532219 C182.795324,436.276634 232.460768,442.240959 250.992964,441.126186 C269.52516,440.011413 284.067495,438.12795 302.624372,422.892357 C309.993116,416.842461 317.364988,406.962768 319.84448,400.957943 C322.323973,394.953117 320.065565,390.23867 314.510374,389.51989 C308.955183,388.801109 304.190492,395.885828 289.256666,402.933647 C279.108426,407.722973 267.775352,411.029198 262.795011,411.029198 C257.320555,403.967735 250.220011,362.877988 250.992964,363.041592 C268.984441,366.849668 301.26123,356.650661 305.335112,355.924602 C319.442086,353.410417 357.313305,314.516797 361.369078,317.592937 C368.264707,322.822994 349.691916,360.012583 348.78784,363.041593 C346.406218,371.02096 367.022075,378.298408 364.832575,385.272764 C357.265293,409.377311 334.580166,420.734892 327.362028,426.531029 C320.14389,432.327166 295.150923,446.467396 261.345469,452.077635 C234.139873,456.592583 209.334219,449.125913 205.470888,452.077635 C204.376905,452.913476 199.597547,461.822047 205.470888,467.951902 C210.535781,473.238001 226.495105,475.642291 224.479947,478.647337 C222.11468,482.174474 224.243789,476.472563 219.189277,490.663267 C218.506398,492.58047 198.024311,495.115942 177.061284,486.398283 C162.309856,480.263772 150.139291,452.906534 133.157731,456.122038 C127.011013,457.285935 113.724199,459.00259 103.429803,459.088407 C87.4873609,459.221308 74.3170677,457.438844 71.854088,459.088407 C65.0791886,463.625849 50.0698471,489.99051 71.8540885,504.853971 C75.669756,507.457414 79.4065759,570.513357 103.429804,636.296507 C118.579556,677.78129 142.968765,738.376563 170.841627,788.882933 C206.946954,854.306748 250.992964,907.102964 250.992964,907.102964 L182.464018,1074.50909 C182.464018,1074.50909 213.896447,1128.71773 219.189283,1127.24701 C220.696572,1126.82818 364.832579,1133.11505 364.832579,1133.11505 L402.728025,1074.50909 L296.049482,900.579344 C296.049482,900.579344 337.234228,822.245827 355.333036,784.515013 C370.78922,752.293312 381.74999,681.894567 387.680021,652.145811 C393.827815,621.304619 402.034496,578.558245 390.917112,555.464598 C386.033803,545.320716 364.333351,539.134641 359.188108,539.134641 C357.112329,539.134641 335.431849,533.91142 331.928892,541.71948 C325.404661,556.261933 325.348509,592.110502 322.323973,608.390898 C320.990416,615.56913 317.16681,675.308277 305.335112,722.797788 C290.332245,783.015583 266.573406,832.814878 264.001356,832.814878 C259.735365,832.814878 196.397572,708.438263 182.464018,665.091917 C156.126396,583.157353 140.331397,511.902207 141.122206,512.612211 C148.791496,519.497861 193.797963,548.83134 214.134764,548.790159 C255.533691,548.706328 314.063003,533.409522 348.787846,530.037046 C387.556926,526.271795 447.12343,546.004116 482.644338,548.790159 C499.157677,550.085365 510.429646,570.865249 525.123998,583.583128 C541.999047,598.188387 561.496891,604.883268 566.91536,604.883268 C578.923882,604.883268 592.209347,604.03234 599.451523,587.217161 C608.679745,565.790701 611.227626,525.525794 622.773453,504.853971 C638.751401,476.246813 670.36403,471.597207 673.574479,472.404966 C691.27324,476.85803 698.530006,488.316579 709.191575,494.374845 C716.261119,498.392001 681.721373,513.040594 676.919798,535.719976 C672.118223,558.399359 674.383389,605.334173 680.086899,624.671293 C689.496075,656.572058 706.656521,659.26332 709.191575,659.672239 C714.081322,660.460985 721.674603,652.611798 724.209275,633.021482 C726.994888,611.491661 724.833506,576.993257 733.468491,552.565183 C736.415239,544.228936 747.798155,527.984764 750.188536,523.273277 C752.578916,518.56179 765.260618,509.70269 783.14105,512.612206 C801.021482,515.521721 806.43294,515.889288 814.664366,527.983421 C822.895792,540.077554 824.428709,556.920616 823.192198,567.522972 C821.955686,578.125328 789.972432,673.684814 783.141068,722.797788 C778.797721,754.023575 773.589805,783.13867 774.007017,809.713219 C774.685879,852.953746 781.882158,886.313751 769.586472,887.617741 C749.734164,889.723129 738.975635,871.478218 724.209288,841.511498 C710.353824,813.393319 717.640745,781.147667 694.796202,783.3265 C666.524972,786.022911 700.057511,896.614354 699.599717,896.193964 C694.387266,891.407393 659.216062,900.579369 631.059324,880.120873 C602.902586,859.662376 584.006864,803.568016 566.915373,807.528893 C549.823881,811.489769 571.074485,867.90443 566.91536,922.584205 C563.287622,970.27787 550.679136,977.881249 550.679123,1030.74714 C550.679111,1083.61303 563.668488,1127.86879 566.91536,1185.71694 C568.823151,1219.70724 564.142622,1249.22208 560.110892,1257.31997 C537.488376,1302.7582 291.735533,1465.85287 291.735531,1489.15795 C291.73553,1512.46303 356.16815,1511.74457 422.395386,1489.15795 Z" fill="#000000"></path>
                    <g id="Crystal" transform="translate(205.000000, 936.000000)" fill="#FFFFFF">
                        <polygon id="Path-5" points="0.734598828 129.157592 31.184838 126.382003 68.4601542 32.2513461 64.3468272 0.189145218"></polygon>
                        <polygon id="Path-6" points="3.8279381 143.237224 30.4898528 141.721024 37.6022116 155.883352 24.9575345 166.091952"></polygon>
                        <polygon id="Path-7" points="68 135.575318 120.340113 133.268372 88.8089447 79"></polygon>
                    </g>
                    <path d="M7.57338545,960.843983 C7.57338545,960.843983 9.26606734,1038.44203 14.5640881,1127.62384 C18.5699013,1195.05387 26.157066,1269.11082 27.9852774,1321.22887 C31.1137042,1410.41303 39.287653,1535.79186 42.0899908,1636.43004 C44.7275013,1731.14891 42.0899908,1803.9547 42.0899908,1803.9547" id="BodyLine" stroke="#000000" stroke-width="30" stroke-linecap="round" transform="translate(25.417802, 1382.399342) rotate(-1.000000) translate(-25.417802, -1382.399342) "></path>
                </g>
                <g id="Hair" transform="translate(331.000000, 0.000000)">
                    <path d="M4.68571128,223.212216 C5.0060481,230.797604 3.26025402,239.232624 8.85039319,244.822385 C12.6598157,248.63155 58.177593,219.451289 107.527106,197.800992 C157.303317,175.963497 214.429206,162.498441 214.429206,162.498441 L165.619166,240.672184 C165.619166,240.672184 119.697535,254.039657 84.4291026,270.334598 C55.307399,283.78959 38.5713489,296.577061 38.5713489,302.886234 C38.5713489,309.195408 39.1391055,313.696934 47.0439021,313.696934 C50.8622653,313.696934 81.5437574,298.332503 122.54201,285.286014 C166.418567,271.32359 227.512706,259.693119 259.777064,259.693119 C262.715342,259.693119 269.829139,286.176066 270.871882,311.715824 C271.502843,327.16986 265.03089,341.34716 266.647486,351.761326 C268.034723,360.697945 279.758662,358.246189 284.969599,356.672855 C288.015479,355.753216 297.809306,349.258168 310.113459,340.836277 C318.859442,334.849866 327.756293,327.302662 341.422023,322.731541 C357.24696,317.438174 369.711047,315.705785 380.887629,314.83353 C392.940882,313.892857 403.549552,314.096398 416.774897,316.034794 C435.917058,318.840398 440.972665,321.607731 464.598201,334.978611 C466.554681,336.085882 467.725691,342.620164 471.612513,346.487553 C475.243562,350.100445 480.185057,354.711802 486.531489,356.672855 C492.877921,358.633908 505.729247,359.278636 510.115748,360.106083 C514.50225,360.93353 543.717295,365.184448 559.845149,369.42548 C575.543036,373.553447 592.451099,380.456512 599.2998,387.587986 C606.841929,395.441519 612.021902,413.911274 612.571467,427.630802 C613.097186,440.755009 609.49552,457.765899 611.46612,466.095829 C617.043445,489.671752 632.256658,483.188664 636.649348,481.058781 C642.813179,478.070124 644.120952,464.770316 642.965083,447.118198 C642.451418,439.273645 637.288628,425.677627 639.622126,414.314213 C640.604317,409.531249 646.480346,405.955126 648.842585,402.062199 C653.299265,394.717671 646.216243,378.713993 642.965083,376.99625 C641.992374,376.482322 636.20954,371.339752 630.965693,367.314823 C627.401206,364.578891 623.700534,363.169486 623.425776,360.933536 C623.079592,358.116329 632.405397,362.260429 636.649348,360.933536 C640.644168,359.684535 642.754407,358.726225 645.087947,353.67548 C647.421486,348.624735 643.996916,344.869535 645.087947,342.668918 C646.178977,340.468302 647.850642,338.335636 650.327571,338.335636 C652.804499,338.335636 656.182726,343.299878 659.774165,345.874119 C664.766243,349.452298 670.496917,351.832275 673.32672,351.202674 C678.664744,350.01502 686.959893,351.774143 690.450068,348.185947 C694.534534,343.98677 698.260432,330.510288 698.260432,330.510288 C698.260432,330.510288 705.709769,331.918241 706.620051,327.646793 C712.258695,301.187764 716.011103,247.960544 719.957759,240.672184 C723.234506,234.620955 736.894282,211.427967 742.70904,211.427967 C748.523799,211.427967 748.8175,214.743656 748.8175,226.095859 C748.8175,229.483714 743.426213,233.7862 738.85876,244.822391 C733.801474,257.042149 732.280928,278.921346 726.474543,297.368381 C719.953061,318.087299 711.233607,325.012948 708.571341,345.874112 C703.42844,386.173214 716.275766,417.854677 726.47454,430.139554 C733.457881,438.5513 745.095977,449.79016 757.532218,448.822385 C763.258401,448.376779 770.532401,448.452207 774.460257,441.217923 C778.388114,433.98364 762.046984,343.397251 764.773734,297.368375 C766.980917,260.110043 779.853751,246.469266 783.883475,240.672177 C787.913199,234.875089 795.431944,225.555491 792.2517,211.42796 C789.071457,197.300429 787.284593,192.299924 773.059623,184.128812 C758.834653,175.957699 742.12316,174.166669 731.040458,177.103787 C719.957755,180.040906 714.004947,188.478987 701.026667,207.018177 C688.016494,225.602927 678.435447,254.1376 677.94958,250.631672 C676.397799,239.434301 672.827302,222.50244 666.945063,211.427967 C662.019998,202.155562 651.989511,188.335737 638.352839,177.103794 C624.716168,165.871851 608.388545,168.724689 603.872126,169.901951 C599.355708,171.079212 586.912104,181.674625 585.539729,185.800632 C584.167353,189.926639 581.591516,197.62824 584.167353,208.246723 C587.347529,221.356496 612.571467,256.759861 612.571467,256.759861 C612.571467,256.759861 580.239901,223.76394 554.262873,211.427967 C540.361507,204.826485 529.751582,207.952045 522.889216,212.471149 C519.577291,214.652166 514.074295,221.059763 512.427607,227.649952 C510.66233,234.714748 511.148829,242.389088 511.148829,242.389088 C511.148829,242.389088 484.271449,237.294773 482.636195,234.875095 C481.000941,232.455418 479.572194,199.423679 479.572194,199.423679 C479.572194,199.423679 482.765967,196.588544 484.67956,192.229252 C486.259749,188.629479 486.357352,183.657472 488.444361,181.323185 C490.995361,178.469932 497.178609,176.587223 501.558619,173.41962 C505.111564,170.850147 509.933217,164.075403 510.115748,159.916736 C510.229616,157.322448 508.755152,156.943058 505.901026,155.71793 C503.0469,154.492802 484.67956,152.691166 484.67956,150.088428 C484.67956,149.238546 482.088651,147.487861 487.590235,144.340519 C491.973852,141.832743 500.190886,139.478593 505.901026,136.590824 C514.971396,132.003698 516.576289,129.661327 517.363093,128.019642 C518.149897,126.377956 520.589484,116.847014 511.148829,113.129475 C506.502045,111.299665 471.612513,106.482052 465.887782,106.482052 C463.418545,106.482052 455.756061,106.212341 448.388667,106.867679 C438.675339,107.731691 427.653578,109.268838 426.493586,108.16547 C425.317622,107.046909 432.855005,100.713004 433.50854,94.832012 C433.988625,90.5118477 429.66268,86.5293684 426.493586,85.4166983 C415.150002,81.4339611 379.608943,86.4373892 379.608943,86.4373892 C379.608943,86.4373892 382.844666,74.6722795 376.775996,74.385166 C369.765454,74.0534919 362.647014,73.170925 355.403437,73.170925 C346.251679,73.170925 378.746184,58.5460242 358.755152,51.4163817 C352.003554,49.0084778 319.949999,54.2245291 295.085444,60.6571082 C271.721603,66.7014455 251.001025,76.1429068 249.607768,70.8978003 C244.974128,53.4538306 305.75494,8.00119349 287.442195,1.46983442 C277.107825,-2.21598541 249.319552,5.78118064 222.451579,16 C210.421524,20.575446 195.233662,27.8572664 183.509333,35.272954 C174.266655,41.1189869 165.619166,48.436162 161.886195,49.4358644 C158.153224,50.4355669 167.026881,37.7237863 152.397334,39.298253 C142.557946,40.3571914 113.212098,79.7781341 97.8883235,101.856816 C90.4281725,112.605493 95.1122997,113.129476 90.3232143,113.129476 C82.076099,113.129476 73.3607026,109.092379 67.3967921,108.165471 C51.5662766,105.7051 43.064696,104.149747 38.5713489,111.547803 C34.0780017,118.945859 37.4786497,126.28675 40.2197177,132.389127 C42.9607857,138.491503 51.8925922,142.083814 50.8206393,144.340512 C49.1673719,147.821007 42.4358116,147.198772 36.8325379,150.088422 C26.9334779,155.19344 16.046824,163.479333 10.6999862,169.147092 C5.24957321,174.924643 2.0236036,180.706857 0.567854221,186.535748 C-1.19926502,193.61138 2.11377218,198.241475 2.11377218,203.124234 C2.11377218,207.831908 4.43172773,217.198035 4.68571128,223.212216 Z" fill="#000000"></path>
                    <g id="Illuminati" transform="translate(193.000000, 152.000000)">
                        <path d="M93.6232328,11.0378816 C93.6232328,11.0378816 134.447308,10.2928672 138.616085,13.5908858 C142.784863,16.8889043 138.616085,64.5152745 138.616085,64.5152745 L93.6232328,11.0378816 Z" id="Path-13" fill="#FFFFFF"></path>
                        <path d="M23.1753985,85.6041071 C15.4877579,86.7682984 0.236735024,89.9584416 0.236735024,89.9584416 L12.3701331,67.7691805 C12.3701331,67.7691805 16.8560206,73.0981361 24.7873141,76.4847814 C32.7186076,79.8714268 48.4471728,82.6576092 48.4471728,82.6576092 C48.4471728,82.6576092 31.5579038,84.3346876 23.1753985,85.6041071 Z" id="Path-14" fill="#FFFFFF"></path>
                        <path d="M101.756324,78.6673538 C90.8557527,78.9904479 80.3993099,80.0619728 80.3993099,80.0619728 C80.3993099,80.0619728 90.4738767,75.3469657 96.8272292,71.1208335 C103.180582,66.8947014 106.482075,59.8868674 106.482075,59.8868674 L123.113337,78.9904472 C123.113337,78.9904472 112.656894,78.3442596 101.756324,78.6673538 Z" id="Path-15" fill="#FFFFFF"></path>
                        <path d="M43.9703798,5.29275333 C43.9703798,5.29275333 46.8311345,1.8992667 49.9151616,0.949547939 C52.9991886,-0.000170819775 56.3316852,0.0343021914 58.0740949,0.94954795 C59.8165046,1.86479371 61.9356414,7.35397303 61.9356414,7.35397303 C61.9356414,7.35397303 58.5517281,7.41661355 53.6171447,8.18403589 C48.6825613,8.95145824 44.5589404,10.5998957 43.9703797,10.1479157 C42.8105072,9.25720178 43.9703798,5.29275333 43.9703798,5.29275333 Z" id="Path-16" fill="#FFFFFF"></path>
                        <path d="M51.1448591,38.51845 C55.5631371,38.51845 59.4485129,36.3388225 59.4485129,33.3012564 C59.4485129,30.2636903 55.5631371,26.9809167 51.1448591,26.9809167 C46.7265811,26.9809167 42.8503149,30.2636903 42.8503149,33.3012564 C42.8503149,36.3388225 46.7265811,38.51845 51.1448591,38.51845 Z" id="Oval" fill="#FFFFFF" transform="translate(51.149414, 32.749683) rotate(-30.000000) translate(-51.149414, -32.749683) "></path>
                        <path d="M18.5377466,56.8704684 L31.1938192,39.9367202 C31.1938192,39.9367202 27.6623766,53.2276877 37.1437189,60.5846671 C41.8135118,64.2081593 50.10487,67.7107038 58.3424036,67.5366973 C66.8299962,67.3574085 75.2786181,63.3894756 80.9025652,59.5237311 C91.9847681,51.9061335 89.1597859,37.1746958 89.1597859,37.1746958 L99.2867242,50.9603451 C99.2867242,50.9603451 97.3752131,55.3189928 93.7257349,59.5237311 C90.4630941,63.2827754 85.6521506,66.805886 82.1369516,68.7975024 C74.6897715,73.0168727 63.3221133,74.9850016 55.8063814,74.9206446 C49.245919,74.8644676 44.4051659,73.058652 32.3612672,67.5366973 C20.3173686,62.0147425 18.5377466,56.8704684 18.5377466,56.8704684 Z" id="Path-17" fill="#FFFFFF"></path>
                        <path d="M322.511368,138.433975 C311.54824,139.826928 300.314281,140.394526 299.280677,139.779144 C297.235638,138.561578 299.457549,127.025067 303.740209,119.806287 C308.022869,112.587507 316.659497,104.571891 319.272132,104.571891 C319.728198,104.571891 320.552511,108.558583 323.079276,112.951912 C325.546378,117.241504 329.700277,121.918497 331.503996,123.672033 C337.39063,129.394888 343.712428,134.88828 343.712428,134.88828 C343.712428,134.88828 333.23934,137.0709 322.511368,138.433975 Z" id="Path-18" fill="#F8E71C"></path>
                        <path d="M361.400796,98.7577619 C358.763791,101.935041 370.045194,117.693421 373.678127,120.708691 C377.311059,123.723961 424.085705,168.445994 426.19473,166.120714 C428.303754,163.795435 388.271336,120.93507 382.611107,115.185156 C376.950877,109.435243 364.0378,95.5804827 361.400796,98.7577619 Z" id="Path-19" fill="#FFFFFF"></path>
                        <path d="M422.709104,58.2298515 C419.162096,61.6596602 456.373694,111.214182 459.666454,109.664863 C462.959214,108.115543 451.244625,79.9390903 447.386737,73.6925485 C443.528849,67.4460066 426.256112,54.8000428 422.709104,58.2298515 Z" id="Path-20" fill="#FFFFFF"></path>
                    </g>
                </g>
                <g id="RightArm" transform="translate(0.000000, 282.000000)">
                    <path d="M134.161528,443.244852 C136.700079,445.980356 138.639705,447.600174 141.643217,449.702219 C144.627307,451.790671 149.599743,453.585977 147.998335,456.057322 C140.40752,467.771714 126.099721,481.306289 112.323561,500.680521 C80.8463843,544.948745 43.0477392,605.828949 29.6646268,646.262797 C24.61992,661.504162 13.6462527,707.687073 14.9173052,725.876322 C15.1679592,729.463276 19.0255657,737.066555 23.4279254,736.747904 C29.3325308,736.320518 33.8623234,731.837748 37.7761633,728.321512 C40.2360533,726.111521 48.9049323,666.34733 59.0775206,641.723246 C69.250109,617.099161 88.3120151,588.758858 102.203486,560.311625 C112.39665,539.437859 126.799681,521.773381 137.657591,506.775889 C158.252689,478.328902 169.135908,465.759196 170.931731,463.583903 C172.727553,461.40861 180.380382,461.922153 182.744108,464.429087 C184.479251,466.269354 182.768928,473.68446 181.864821,475.973734 C180.844066,478.558369 176.896376,487.608309 172.727553,503.338877 C169.486959,515.56688 166.728956,532.417574 161.14749,549.640482 C149.93963,584.22493 127.508559,617.424271 114.031294,658.298685 C89.4448301,732.865548 75.1959705,811.374783 75.5618199,817.61204 C75.7711836,821.181419 69.6214568,826.035135 65.9141066,832.97703 C59.9027944,844.233021 59.07752,859.898051 55.5909674,859.898051 C54.3344671,859.898051 44.4685784,845.243527 37.7761633,829.10142 C30.4476283,811.424991 27.7051251,783.854028 23.4279254,770.263895 C20.7728197,761.827713 14.9173052,759.569803 14.9173052,759.569803 C14.9173052,759.569803 4.93483288,762.81126 2.86891875,765.396891 C0.803004615,767.982522 0.415184497,773.180887 0.415184515,776.170572 C0.415184532,779.160258 2.10911131,785.675061 2.86891874,790.949503 C5.30617939,807.868513 7.69432875,826.232865 13.8476262,842.669535 C17.1185302,851.406764 22.1752647,863.871941 30.472714,872.844401 C40.8953188,884.114901 55.5909658,888.940104 55.5909658,888.940104 C55.5909658,888.940104 58.229897,904.485148 56.9104314,906.53007 C56.3265986,907.4349 53.4627623,910.447245 52.3949208,916.190958 C51.0494343,923.428072 51.5962367,934.306806 52.3949208,942.980326 C54.1045519,961.546513 61.5010688,980.636014 69.494612,993.871561 C99.1803923,1043.02468 160.345231,1061.75217 173.823792,1061.75217 C193.890223,1061.75217 234.874116,1064.18676 277.523254,1036.56699 C297.411979,1023.68696 305.799722,1007.30461 318.310845,985.592325 C323.091194,977.296324 326.265709,955.775126 331.232018,955.775126 C336.198327,955.775126 379.633134,946.27122 400.601677,923.120646 C414.916233,907.316487 430.937865,883.53145 434.728773,853.470927 C439.724364,813.857712 434.085788,767.05355 432.217757,722.270182 C431.147143,696.603768 434.728773,640.88859 434.728773,635.584757 C434.728773,630.280924 442.642134,621.521097 440.994093,612.978373 C439.346052,604.435648 428.982617,597.743424 410.192091,588.132853 C396.130255,580.940809 386.047713,570.908915 376.106917,576.084208 C366.166121,581.259501 369.404677,595.256144 370.246138,610.026591 C370.642696,616.987513 367.620394,636.47865 367.88304,652.842631 C367.952952,657.198471 371.125212,658.102453 371.406935,661.905924 C372.312611,674.13324 370.684565,685.901758 367.88304,685.139567 C364.910402,684.330822 357.273713,674.815995 355.141402,665.243448 C353.702402,658.783377 357.161909,651.976694 357.161909,649.019449 C357.161909,641.680155 346.707197,620.204325 344.622633,617.128336 C342.538069,614.052347 335.787847,608.740344 328.755171,610.026591 C322.055095,611.252006 316.040053,611.032755 310.315169,618.898905 C304.590285,626.765055 310.763123,636.340693 301.030714,647.554972 C299.565379,649.243422 295.609538,647.263999 293.983443,649.019449 C288.16657,655.299053 279.703878,659.39617 272.725661,666.34733 C266.986216,672.064521 263.51038,681.493116 257.444929,689.900797 C252.969029,696.105108 245.838627,701.554948 241.76338,705.570841 C229.894467,717.266893 214.516035,726.229288 208.903258,723.841532 C206.21247,722.696832 204.621927,716.527744 205.732146,709.737467 C206.937758,702.363746 212.506102,697.636908 212.506102,694.440409 C212.506102,692.433038 211.208092,686.810025 207.258986,683.085123 C204.554265,680.533959 196.870619,681.525492 196.870619,675.011881 C196.870619,668.49827 207.258986,667.717081 212.506102,661.905924 C217.753218,656.094767 212.523469,645.503639 215.123762,641.723246 C219.153734,635.864339 227.303968,633.480251 233.23773,628.949869 C240.287645,623.567314 245.300263,616.138333 251.846495,610.026591 C261.929994,600.612358 279.061956,587.855319 285.174574,580.216715 C291.354972,572.493411 286.453314,569.932559 285.174574,568.490031 C282.121677,565.046098 275.570345,559.409878 265.177077,565.309 C247.79279,575.176158 222.283348,604.526248 217.522841,598.073282 C212.506102,591.272989 239.091809,520.146366 239.714567,516.493387 C240.372805,512.632297 244.500868,501.363292 248.886305,488.065623 C250.988033,481.692693 249.962485,473.48279 254.639616,467.979502 C259.222678,462.586899 268.074164,466.526936 275.159224,464.429087 C284.023905,461.804301 285.174574,462.071146 296.340986,456.057322 C302.271677,452.863267 312.847107,445.580085 323.788862,433.266306 C333.448446,422.395476 342.86666,406.57994 357.161909,400.841349 C366.653644,397.031049 399.661479,392.78256 400.601668,395.166575 C401.489421,397.417629 406.176075,409.196419 414.864638,423.960612 C425.749168,442.456341 440.994093,464.429087 440.994093,464.429087 C440.994093,464.429087 431.302578,464.074304 418.427534,467.979502 C406.604693,471.565551 392.200706,479.134179 377.916456,485.420847 C348.310431,498.45081 322.131927,515.784463 314.278639,526.297281 C308.278298,534.329649 308.09632,539.724558 312.48741,545.804789 C316.878499,551.885019 328.755171,545.804789 328.755171,545.804789 C328.755171,545.804789 347.979214,529.396337 373.460188,516.493387 C401.436634,502.326791 436.348768,489.348124 443.020186,488.065623 C449.691603,486.783121 465.778193,487.031854 471.91664,486.783121 C484.522069,486.272343 485.138777,485.420847 485.138777,473.060892 C485.138777,465.508937 466.873469,444.870356 451.745741,423.960612 C441.072236,409.207552 430.206801,395.166575 425.869643,384.199473 C423.484036,378.167137 411.614485,362.849006 405.702681,346.58436 C400.866515,333.27903 401.749062,319.276604 400.601654,309.73819 C400.487565,308.789767 422.239407,301.717433 436.298048,284.513071 C442.271738,277.202726 448.576234,270.32762 451.745741,262.49116 C454.839348,254.84236 454.845943,244.749273 456.730726,244.749277 C458.310415,244.749281 461.374172,265.406906 456.730726,278.181223 C450.157719,296.26385 429.828074,299.967973 433.575575,309.738199 C437.323076,319.508426 464.653364,313.975168 467.5157,311.641642 C468.934158,310.48524 475.161561,300.928653 479.169356,289.422404 C483.248971,277.70996 485.097671,263.982694 485.138777,255.651285 C485.234631,236.223763 473.954226,217.624475 476.328491,210.581268 C477.4472,207.262644 497.584824,223.314349 501.97798,241.687021 C503.769704,249.180212 506.121179,258.179354 505.194716,265.911417 C504.026894,275.657803 499.161478,284.110694 498.318726,293.056427 C497.736842,299.233065 496.759474,305.741923 500.418715,311.641642 C501.605071,313.55438 508.579323,316.893608 517.805617,315.685557 C537.037238,313.167451 565.980066,301.395017 572.168471,289.422404 C576.848189,280.368624 584.572638,242.006246 557.661268,210.581263 C547.771851,199.033178 532.171409,181.757126 516.597059,173.824625 C496.908298,163.796527 475.54085,164.089222 476.328491,158.579987 C477.623937,149.518863 508.456834,143.099343 536.182312,154.162903 C564.745114,165.560588 584.005477,197.352391 592.450331,195.541666 C600.895185,193.730941 591.500579,154.761532 587.522583,143.154648 C579.603163,120.047587 552.922377,92.1028769 544.381836,87.5438614 C535.841295,82.9848458 516.315767,81.4033377 501.97798,81.4033377 C490.693717,81.4033377 467.515686,87.5438614 467.515686,87.5438614 C467.515686,87.5438614 449.390601,103.136953 440.994093,121.153254 C432.180538,140.064408 433.012105,161.434325 430.206787,161.08641 C427.185672,160.711733 421.908265,139.840644 425.869629,120.047584 C429.687575,100.971116 447.375838,89.772402 445.346022,83.6245062 C443.316206,77.4766104 425.614214,74.2858169 414.864638,80.0184805 C406.884897,84.2740127 404.735245,94.4349763 401.919997,104.906718 C399.104748,115.378459 397.712869,134.056809 398.422835,141.176249 C399.334523,150.318535 402.489437,157.384912 400.601668,158.579981 C395.872304,161.573947 382.017087,124.449473 377.916456,126.586298 C370.743982,130.323851 367.147871,135.995899 363.601471,133.37413 C358.186283,129.370811 363.559019,124.789014 363.601471,113.893356 C363.638607,104.361971 358.128692,88.9739486 357.161896,78.4677502 C355.119728,56.2754631 356.745851,25.8357215 353.052979,10.6639731 C350.407605,-0.20424557 342.663917,0.478454259 339.826874,0.478454259 C329.768698,0.478454259 324.805667,26.3081126 314.278625,28.2021487 C303.769442,30.0929715 280.41487,19.3497565 275.159224,28.2021487 C273.075962,31.7111089 273.267618,36.5403296 277.523268,42.1651861 C284.003757,50.7306975 296.340973,59.9685461 296.340973,59.9685461 C296.340973,59.9685461 293.495642,63.7177991 290.029433,64.0164015 C288.314537,64.164134 286.861627,61.1865325 282.920983,59.2425062 C281.036703,58.3129402 277.759886,59.2428196 275.159224,57.8182318 C271.381385,55.7488118 269.876974,49.6881578 267.40959,47.3816016 C264.626214,44.7796497 260.695153,46.4490683 257.444939,47.3816016 C254.194726,48.3141348 245.019005,50.5731795 245.019005,50.5731795 C245.019005,50.5731795 224.731734,46.1261141 215.123757,47.3816016 C207.997225,48.3128352 200.40549,53.7067168 199.058526,54.8408415 C197.711561,55.9749663 184.19506,64.2304326 172.727553,81.4033377 C161.260045,98.5762428 158.552261,110.150278 156.620131,124.748629 C154.688,139.346979 156.620131,176.839487 156.620131,176.839487 C156.620131,176.839487 136.080881,162.964786 114.031294,154.162897 C93.7710073,146.075272 72.3995272,143.710851 63.4505217,147.147669 C54.3254759,150.652094 45.9051268,158.579981 44.4976752,164.241709 C42.3955361,172.697942 33.9491928,206.277978 48.9049323,219.19018 C61.6116,230.160621 83.4633047,220.406158 105.124075,229.384409 C111.450244,232.006566 117.214528,236.688812 123.51618,241.687021 C133.202769,249.370023 136.524153,253.676733 143.164107,259.10731 C144.513188,260.210674 151.788446,272.515812 156.620131,273.550455 C160.744562,274.433649 164.486104,271.512109 168.356047,268.176645 C170.041448,266.724016 172.6544,266.278212 173.82379,264.219309 C173.878611,264.122788 174.883354,258.275482 170.931731,250.969218 C165.515468,240.954943 153.132889,225.846915 137.657591,215.069224 C130.459735,210.056314 119.979994,203.883827 108.965636,201.623423 C95.4482772,198.849345 81.3117273,200.372262 73.7277739,197.612604 C69.3274586,196.011412 70.4082091,190.483921 70.4082091,188.742029 C70.4082091,185.390517 69.1988179,179.457676 73.7277739,176.839487 C78.9151833,173.840647 90.5749389,174.512617 102.20349,176.839487 C123.984544,181.197872 137.457045,193.790034 145.116896,200.500941 C148.356434,203.339147 156.018005,209.372168 161.14749,216.913248 C168.146615,227.202968 172.525595,239.255984 173.82379,240.205836 C178.500419,243.627591 184.92375,245.989832 188.80844,240.205836 C192.693129,234.421839 188.80844,198.797358 188.80844,198.797358 C188.80844,198.797358 185.668525,162.194738 186.172362,144.380656 C186.523887,131.951817 192.671812,112.245867 194.674635,107.895067 C195.625399,105.829692 201.90131,93.4411628 210.013106,85.8462012 C218.989147,77.4420579 229.883705,73.9223033 231.056685,75.0976584 C232.116075,76.1591939 229.160809,85.4399727 223.148039,97.6553671 C219.602228,104.858949 212.730482,113.237139 208.903258,123.257197 C205.85906,131.227212 202.980802,140.660498 201.685225,151.102335 C196.417406,193.558849 204.303969,250.969218 201.685225,276.617808 C201.685225,276.617808 207.033337,284.235802 207.258986,284.513071 C210.424538,288.402782 220.735747,281.506663 229.804564,293.056437 C238.873381,304.606211 262.730749,341.420345 261.702711,351.50532 C260.850534,359.865123 251.904016,349.650134 241.76338,344.768259 C233.731232,340.901447 232.084837,338.973093 224.06056,343.855204 C221.366312,345.494432 216.015349,350.795054 215.123762,353.498972 C214.635027,354.981161 210.923153,362.340138 208.903258,370.484904 C207.238311,377.198421 207.585259,384.543875 204.303969,388.71583 C198.172004,396.512239 186.18174,395.249685 184.70851,400.841349 C183.110552,406.906419 181.688703,411.281955 181.864821,414.138895 C182.140573,418.612095 184.36016,420.077733 180.82382,423.960612 C178.305482,426.725731 175.531526,431.797348 170.931731,431.813822 C165.295058,431.834009 157.509337,428.032572 157.509337,423.960612 C157.509337,419.888651 168.332579,424.854624 170.931731,420.368967 C173.530882,415.883311 188.80844,332.58848 188.80844,324.339213 C188.80844,316.089945 184.104054,305.961131 181.864821,302.09376 C177.905209,295.25513 170.931731,295.543436 170.931731,295.543436 C170.931731,295.543436 155.689006,303.983804 159.147917,309.738199 C164.620006,318.841805 162.313905,335.863852 159.147917,351.50532 C154.55951,374.174204 147.998335,395.166575 147.998335,395.166575 C147.998335,395.166575 135.384941,401.890819 130.09062,410.26182 C127.34579,414.60175 128.200949,418.879956 127.898436,423.960612 C127.485722,430.89208 129.748606,438.489556 134.161528,443.244852 Z" fill="#000000"></path>
                    <g id="ArmHoles" transform="translate(85.000000, 82.000000)">
                        <path d="M4.11084249,839 C5.87645119,839 11.158508,866.399009 12.9682607,874.476148 C14.7780135,882.553287 24.9865808,911.479915 23.9224529,911.953212 C21.8536251,912.873373 7.38878464,900.215643 2.58811053,874.476148 C-2.21256357,848.736654 0.475189498,839 4.11084249,839 Z" id="Path-4" fill="#FFFFFF"></path>
                        <path d="M162.702723,712.043039 C165.583821,710.607239 176.229234,745.341164 183.601307,779.491604 C190.973381,813.642044 196.928314,857.049343 194.415106,858.947686 C191.901898,860.846028 178.411671,810.623703 172.37814,782.673935 C166.344609,754.724168 159.821624,713.478839 162.702723,712.043039 Z" id="Path-8" fill="#FFFFFF"></path>
                        <path d="M23.9245965,663.862405 C27.3594352,662.664191 28.8744257,673.648247 42.1464224,673.648247 C47.2109548,673.648247 56.6323693,673.468185 65.626446,670.992942 C80.2020391,666.981619 90.1194332,657.541503 95.6690066,661.499531 C99.1225791,663.962663 90.5432889,680.363566 80.3862917,693.159951 C74.2219287,700.926179 65.626446,707.115055 61.967398,710.797158 C46.0241351,726.840875 23.5746185,732.274686 18.8199561,730.503842 C14.0652937,728.732999 16.9686035,723.057583 18.8199562,702.853373 C20.6713089,682.649163 20.4897578,665.060618 23.9245965,663.862405 Z" id="Path-9" fill="#FFFFFF"></path>
                        <path d="M175.630693,64.9139039 C173.507777,63.0016622 184.984433,38.1168409 189.480389,31.3188613 C193.976345,24.5208818 212.085694,0.172260624 214.931936,0.172260623 C217.778177,0.172260621 220.784025,7.93512335 219.77894,10.5265544 C218.773854,13.1179855 204.702457,24.693162 204.702457,26.7259315 C204.702456,28.758701 215.494581,39.8406742 214.931936,41.5840419 C214.369291,43.3274097 177.753609,66.8261455 175.630693,64.9139039 Z" id="Path-10" fill="#FF5AEF"></path>
                        <path d="M252.222572,103.982573 C253.417964,104.361551 253.279044,116.258512 253.279044,120.469541 C253.279044,124.68057 255.282253,137.580024 254.655837,139.651446 C253.424502,143.723203 239.283428,163.937542 237.208415,177.272635 C235.133402,190.607727 238.841513,213.961707 243.622695,217.398184 C248.403877,220.834661 265.134714,216.976751 268.301734,210.88761 C271.468754,204.798468 262.492551,191.467385 262.055442,184.253897 C261.618333,177.040409 263.237643,166.61853 268.301734,166.618531 C273.365825,166.618532 280.031012,180.429116 280.031012,180.429116 C280.031012,180.429116 275.476036,188.214652 275.833095,190.791128 C276.190153,193.367604 281.795892,213.37208 281.161745,214.976914 C280.826948,215.824183 275.547223,214.35262 270.909293,215.661581 C266.762403,216.831957 263.266593,220.727344 262.055442,222.406035 C259.489725,225.962192 257.895199,239.674264 262.055442,241.4588 C266.215684,243.243335 284.281334,249.832758 282.72154,251.926037 C281.161746,254.019316 258.36875,254.775859 240.273398,241.4588 C222.178047,228.14174 217.93679,218.212304 212.271268,200.078993 C206.605746,181.945682 203.111223,169.18425 214.463974,145.208391 C225.816725,121.232533 249.789306,103.211149 252.222572,103.982573 Z" id="Path-11" fill="#FFFFFF"></path>
                        <path d="M296.278668,131.333783 C293.0111,127.205263 292.415395,123.032357 291.506705,123.032357 C290.686284,123.032357 292.631379,132.312728 295.195526,141.029707 C297.289894,148.149645 299.94268,154.918408 300.634318,155.742764 C302.172732,157.576384 309.18763,156.597597 317.456238,153.539887 C326.705725,150.11945 334.969912,143.332665 334.215666,142.10553 C332.78716,139.781395 316.914729,142.378759 306.141793,138.180547 C301.936487,136.54174 298.370918,133.977307 296.278668,131.333783 Z" id="Path-12" fill="#FFFFFF"></path>
                    </g>
                </g>
            </g>
        </g>
    </g>
</svg>