<?xml version="1.0" encoding="utf-8"?>
<!-- Generator: Adobe Illustrator 15.0.2, SVG Export Plug-In  -->
<!DOCTYPE svg PUBLIC "-//W3C//DTD SVG 1.1//EN" "http://www.w3.org/Graphics/SVG/1.1/DTD/svg11.dtd" [
	<!ENTITY ns_flows "http://ns.adobe.com/Flows/1.0/">
]>
<svg version="1.1"
	 xmlns="http://www.w3.org/2000/svg" xmlns:xlink="http://www.w3.org/1999/xlink" xmlns:a="http://ns.adobe.com/AdobeSVGViewerExtensions/3.0/"
	 x="0px" y="0px" width="254px" height="500px" viewBox="-0.5 -0.501 254 500" enable-background="new -0.5 -0.501 254 500"
	 xml:space="preserve">
<defs>
</defs>
<path d="M252.305,61.894h-1.968V24.836h-0.004c0.008-0.126,0.008-0.254,0-0.385c0,0,0.193-5.918-3.33-9.966s-6.66-4.763-6.66-4.763
	c-1.594-0.7-4.297-1.501-5.993-1.885c0,0-4.979-1.335-19.175-3.244c-8.446-1.136-21.727-2.337-29.475-2.747
	c-8.683-0.458-20.179-1.325-31.267-1.638c-12.552-0.354-24.219-0.167-27.885-0.091c-3.666-0.075-15.333-0.263-27.885,0.091
	C87.576,0.521,76.08,1.388,67.397,1.846c-7.748,0.409-21.029,1.611-29.475,2.747C23.726,6.502,18.747,7.837,18.747,7.837
	c-1.696,0.384-4.399,1.185-5.993,1.885c0,0-3.138,0.714-6.66,4.763c-3.522,4.048-3.33,9.966-3.33,9.966
	c-0.008,0.13-0.008,0.259-0.004,0.385v70.173H0.397C0.178,95.009,0,95.182,0,95.403v77.664c0,0.218,0.178,0.394,0.397,0.394H2.76
	v300.798c-0.003,0.126-0.003,0.254,0.004,0.385c0,0-0.192,5.917,3.33,9.966c3.522,4.048,6.66,4.763,6.66,4.763
	c1.594,0.7,4.297,1.501,5.993,1.885c0,0,4.979,1.334,19.175,3.244c8.445,1.136,21.727,2.337,29.475,2.746
	c8.683,0.458,20.179,1.325,31.266,1.638c12.552,0.354,24.219,0.167,27.885,0.091c3.666,0.075,15.333,0.263,27.885-0.091
	c11.087-0.313,22.584-1.179,31.267-1.638c7.748-0.409,21.029-1.61,29.475-2.746c14.196-1.91,19.175-3.244,19.175-3.244
	c1.696-0.384,4.399-1.185,5.993-1.885c0,0,3.138-0.715,6.66-4.763c3.522-4.049,3.33-9.966,3.33-9.966
	c0.008-0.131,0.008-0.259,0-0.385h0.004V93.827h1.968c0.219,0,0.397-0.18,0.397-0.393V62.286
	C252.702,62.069,252.524,61.894,252.305,61.894z M126.548,17.74c3.048,0,5.52,2.471,5.52,5.519s-2.471,5.519-5.52,5.519
	c-3.048,0-5.519-2.471-5.519-5.519S123.5,17.74,126.548,17.74z M41.985,24.442c1.198,0,2.168,0.971,2.168,2.168
	c0,1.197-0.971,2.168-2.168,2.168c-1.197,0-2.168-0.971-2.168-2.168C39.817,25.413,40.788,24.442,41.985,24.442z M239.692,443.903
	H13.404V43.365h226.288V443.903z"/>
</svg>
